<?xml version="1.0" encoding="utf-8"?>
<!-- Generator: Adobe Illustrator 18.1.1, SVG Export Plug-In . SVG Version: 6.00 Build 0)  -->
<svg version="1.1" xmlns="http://www.w3.org/2000/svg" xmlns:xlink="http://www.w3.org/1999/xlink" x="0px" y="0px"
	 viewBox="0 0 320.8 335" enable-background="new 0 0 320.8 335" xml:space="preserve">
<g id="Layer_1">
</g>
<g id="Layer_2">
	<g>
		<g>
			<path d="M171.9,106.7c0.6,4.6,2.3,9,3.8,13.3c1.5,4.4,3.6,11.2,7.4,14.2c4.3,3.4,9.6-1.1,13.5,1.4c2.2,1.4,5,7.3,1.3,8.8
				c-9.4,3.9-19,0.1-22.9-9.2c-2-4.8-3-9.7-3.3-14.9C171.4,118.4,170,106.6,171.9,106.7C172,107.7,171.7,106.7,171.9,106.7z"/>
			<path d="M214.1,181.9c-2.7,5.5-6.1,10.5-10,15.3c-1.8,2.2-10.9,8.8-9.4,11.8c2.8,5.4,9.5-2.5,11.5-4.4c1.4-1.4,4.2-5.3,6.6-4.8
				c2.3,0.5,3.4,2.3,2,4.4c-3,4.4-7.3,7.5-7.6,13.3c-0.1,2.7,1.1,3.2,2.8,4.9c1.8,2,0.2,4.2-0.8,6.1c-1.2,2.2-2.2,4.9-3.9,6.7
				c-1.7,1.9-5.6,3.1-8,4c-2.8,1.2-5.8,1.8-8.8,2.4c-3.7,0.7-2.7,1.8-4.6,4.7c-3.3,5-7.6,5.2-13.1,5.4c-4.1,0.1-5.6,0.7-5.6-3.9
				c0-6.9-0.1-13.8,0-20.7c0-2,0.4-5.1,2.1-6.5c1.6-1.3,4.5-0.6,6.4-1.5c3.9-2,2.8-7.9,3-11.5c0.1-1.5-0.6-5.3,1.3-6.1
				c3.3-1.4,6.7-2.2,9.6-4.3c4.4-3.1,7.6-7.5,10.4-11.9c1.7-2.7,2.2-3.7,5.4-3.7C206.5,181.5,211.2,180.7,214.1,181.9
				C213.3,183.5,213.6,181.7,214.1,181.9z"/>
		</g>
		<g>
			<g>
				<path d="M240,212.5c0-0.1,0-0.3,0-0.4C240.1,212.3,240,212.4,240,212.5z"/>
				<path d="M240.1,211.9C240.1,211.9,240.1,211.8,240.1,211.9C240.1,211.8,240.1,211.9,240.1,211.9z"/>
				<path d="M240,213C240,213,240,213,240,213C240,213,240,213,240,213C240,213,240,213,240,213C240,213,240,213,240,213z"/>
				<path d="M295.6,233.6c0-0.1,0-0.2,0-0.4C295.3,232.1,295.5,234,295.6,233.6z"/>
				<path d="M249.7,260.3C249.7,260.4,249.7,260.4,249.7,260.3C249.7,260.4,249.7,260.4,249.7,260.3z"/>
				<path d="M249.6,260.2c0,0,0,0.1,0,0.1C249.7,260.3,249.6,260.2,249.6,260.2z"/>
				<path d="M157.4,173.2c-2-1-3.9-2-5.9-3.1c-4.4-2.4-6.2-2.9-10.9-0.9c-4.8,2-9.6,4-14.5,5.7c-4.5,1.5-7.5,3.6-11.6,0.3
					c-5.9-4.8-11.6-9.2-10.4-17.5c1.1-7.6,7.7-10.8,13.2-15.3c14.7-12,0.5-32.1,4.4-47.4c2-7.9,7.9-14.5,14.4-19.1
					c3.3-2.3,6.8-4.3,10.4-6.1c2.7-1.4,6.3-1.9,8.3-4.2c-4.3-2-12.7,2.4-16.8,4c-6.1,2.3-12.1,4.7-18.1,7.1
					c-12.1,4.8-24.7,9.1-34.7,17.7c-9,7.6-17.8,19.3-19.2,31.3c-1.4,12.1,1.6,24.5,8.7,34.5c3.3,4.6,7.6,8.3,12.2,11.4
					c3.3,2.3,12.8,5.3,13.1,9.9c0.4,6.9-26.2,1.7-30.4-0.2c-6.2-2.7-10.6-6.2-13.5-12.3c-2.9-6-5.7-12-8.8-17.9
					c-3-5.6-4.6-9.9-4.4-16.4c0.2-5.7,2-12,1.5-17.5c-11.3,2.7-13.6,17-12.6,26.7c0.6,6,3.6,11.8,5.5,17.5c2,6,3.1,12.1,4.4,18.2
					c0.5,2.5,0.9,5.5,3.2,6.9c2.6,1.6,5.5,2.7,8.2,4.3c5,3,9.6,7.7,14.8,10.2c1.8,0.8,4.4-0.3,6.4-0.1c3.1,0.3,6.2,1.1,9.3,1.6
					c5.2,0.7,10.6,1,15.6,2.6c-0.3,3.8-26.3,5-30,5.4c-10.3,1.1-20.1-4-29.7-7.3c-3.9-1.3-11.5-2.4-14.2-5.7
					c-3.1-3.7-6-7.5-8.6-11.6c-2.5-4-3.8-10.4-7.1-13.7c-2.9-3-5.6,6.3-5.6,7.9c-0.2,5.9,1.9,9.9,4.8,14.9c1.9,3.3,3.9,7.7,7,10.2
					c8.4,6.7,18.6,11.5,28,16.5c4.1,2.2,9.5,6.6,14.5,5.7c4.7-0.8,9.3-2.5,14-3.2c5.4-0.9,10.8-1.7,16.2-2.4c4.8-0.7,9.5-2,13.8,0.5
					c-2.7,3.6-6.4,3.7-10.6,4.7c-4.1,1-8.2,1.9-12.4,2.9c-4.4,1-8.8,1.9-13.2,3c-4.1,1-9,3.2-13.2,3c-4-0.1-8.9-3.1-12.6-4.5
					c-4.1-1.6-8.5-2.9-12.4-4.8c-3.5-1.7-6.1-5.9-8.7-8.7c-2.3-2.5-4.5-5-6.9-7.3c-4.1,4.4-0.1,14.4,2.7,18.5
					c3.5,5.2,9,9.1,14.6,11.9c6.4,3.1,13,6,19.6,8.8c6.1,2.6,14.8-2.1,20.8-4c7.5-2.4,15-4.9,22.5-7.5c3.4-1.2,7.5-3.4,11.1-3.3
					c4.5,0.1,2.7,3.1,0.2,4.6c-11,6.6-24.2,17.2-37.5,16.8c-7.3-0.3-14.6-2.8-21.9-4c-2.5-0.4-6-1.5-5.6,2.2
					c0.2,1.9,1.1,4.8,2.9,5.9c6.2,3.6,13.8,5.3,20.7,7.1c3.3,0.9,7.5,2.7,11,2.5c3.2-0.1,6.6-3.2,9.3-4.7c6.4-3.7,13-7,19.6-10.2
					c6.1-2.9,11.5-7,18.6-5.6c3.4,0.6,6.8,2.3,9.9,4c2.6,1.5,5,4.2,8.2,4.3c7.2,0.3,14.4,0.5,21.6,0.7l4.2,0c6-0.2,16,1.3,21.1-2.2
					c5.7-3.9,12.8-8,20.1-6.9c6.8,1,14.3,6.3,20.4,9.4c3.9,2,7.7,4.2,11.5,6.4c2.8,1.6,6.4,4.7,9.7,4.9c3.1,0.1,7.2-1.7,10.2-2.6
					c3.9-1.1,7.8-2.3,11.7-3.4c5.7-1.7,13-3.2,12.6-10.8c-0.2-3.8-14.5,0.9-16.9,1.5c-8.6,2-15.9,2.3-23.8-1.7
					c-6.7-3.4-13.2-6.9-19.6-10.8c-1.1-0.6-9-4.3-7.2-6.5c2-2.3,7.5,0.1,9.7,0.8c7.2,2.1,14.3,4.9,21.4,7.3
					c4.4,1.5,8.8,2.9,13.3,4.3c2.8,0.9,7.4,3.5,10.4,2.7c3.1-0.8,6.6-3.4,9.7-4.7c3.4-1.5,6.9-3,10.2-4.6
					c11.4-5.3,25.1-17,19.6-31.2c-5.3,4.4-8.9,10.7-14.4,15c-5.7,4.4-14.7,6.3-21.4,8.8c-7.3,2.8-15-0.5-22.4-2.3
					c-7.5-1.8-15-3.5-22.5-5.3c-2.7-0.6-6.4-0.8-8.6-2.6c-2.7-2.2,1.2-3.5,3-3.3c7.5,0.8,14.9,1.7,22.3,2.8
					c3.8,0.6,7.7,1.3,11.5,2.1c2.4,0.6,7.1,3,9.6,1.7c6.6-3.4,13.4-6.4,19.8-10.1c6.3-3.6,13.4-7.2,18.9-11.9
					c4.7-4,9.1-11.6,11.3-17.4c1.1-3,1.5-6.3,0.9-9.5c-0.4-1.8-1.9-7.3-4.6-6.9c-2.3,0.3-3.9,6.7-4.8,8.5c-1.6,3.2-3.5,6.3-5.5,9.3
					c-1.9,2.8-3.9,5.8-6.3,8.1c-2.3,2.2-5.9,2.8-8.8,3.9c-7.5,2.6-15,5.3-22.6,7.9c-7.3,2.5-14.2,1-21.7,0c-7-0.9-13.8-1.4-20.6-3.7
					c0.1-2.1,18-3.7,20.6-4.1c3.3-0.4,6.3-0.2,9.6-0.3c2.5-0.1,5.3-3.3,7.3-4.7c3.1-2.1,6-4.2,9.2-6.1c2.6-1.6,6-2.5,8.3-4.5
					c2.4-2.1,2.4-6,3.1-8.9c0.8-3.3,1.6-6.6,2.4-9.9c1.9-7.7,6.4-15.8,7.1-23.6c0.6-5.9,0.1-14.8-3.9-19.6c-1.5-1.8-5.6-6.5-8-6.8
					c-2.3-0.3-0.6,5.8-0.5,7.1c0.8,6.9,2.5,14.4-0.3,21.1c-3.2,7.5-7.6,14.7-11.1,22.1c-3.2,6.7-7.1,10.7-14,13.5
					c-7.4,3.1-15.2,3.4-23.2,3.5c-2.2,0-7.3,0.8-7.5-2.6c-0.1-3.2,3.8-4.9,6.1-6.1c12.3-6.7,22.7-16.6,26.5-30.5
					c4.1-14.7,1-28.4-8.1-40.5c-9.3-12.4-21.8-18.8-35.8-24.7c-7.6-3.2-15.2-6.4-23-9.2c-6-2.1-14-6.9-20.5-5.2
					c2.2,2.4,6.3,3.1,9.3,4.6c3.6,1.8,7,4,10.3,6.4c6.2,4.5,12,11,13.7,18.7c3.6,16-10.2,34.7,4.7,47.5c6.1,5.3,12.5,8.1,12.9,17.3
					c0.3,7.5-7,13.8-13.2,16.9c-2.4,1.2-7.5-1.7-9.9-2.5c-3.8-1.4-7.7-2.5-11.4-4c-3.1-1.3-6.4-4.2-9.8-2.3
					c-3.9,2.3-8.1,4.1-12.2,6.2 M312.2,174.5c-0.1,0.1-0.3,0.4-0.5,0.7C311.9,175,312,174.7,312.2,174.5z M312.3,174.3
					c4,5.2,0.4,14.6-1.9,19.8c-0.9,1.9-3.2,7.7-5.5,8.3c-1.8,0.5-6.2-3.9-7.7-5C303.9,190.9,307,181.9,312.3,174.3z M239.4,218.6
					c0.2-1.9,0.4-3.7,0.6-5.6c0,0,0,0,0,0c0,0,0,0,0,0c0,0,0,0,0,0c0-0.1,0-0.2,0-0.3c0,0.1,0,0.2,0,0.2c0-0.1,0-0.3,0-0.4
					c0,0,0,0,0,0.1c0-0.1,0-0.3,0-0.4c0,0,0,0,0,0c0-0.1,0-0.2,0-0.2c0,0,0,0,0,0c0,0,0-0.1,0-0.1c5.3,0.4,12.2-0.5,17.2,1
					c2.3,0.6,4.1,8.9,4.5,11.1c-5.7-0.5-11.3-1.7-16.9-2.7C242.4,220.8,239.1,221.5,239.4,218.6z M269.5,162.8
					c1.7-4,3.9-7.9,5.9-11.8c1-1.9,2.9-8,5.1-8.7c1.3-0.4,5.9,3.5,5.5,5c-1.1,3.6-2.3,7.3-3.4,10.9c-2.4,7.7-4.9,15.3-7.5,22.9
					c-2.3-2.7-6-5.3-7.7-8.3C265.8,170.1,268.4,165.4,269.5,162.8z M52.6,173.8c-2.2,2.4-4.4,5-6.9,7.1c-3.4-7.7-5.8-16-8.5-23.9
					c-0.9-2.9-2.9-7.3-2.7-10.4c0.1-1.3,5.2-5.7,6.3-3.6c3.8,6.8,7.7,13.5,10.7,20.8C52.8,166.6,55.1,171.1,52.6,173.8z M15,201.9
					c-1.8-2.7-3.7-5.4-5.1-8.4c-2.8-6-3.8-13.2-1.8-19.4c5.4,7.6,8.6,16.7,15.3,23.4C22.2,198.3,16.3,203.8,15,201.9z M73.9,221.6
					c-5.1,0.9-10.1,1.7-15.2,2.6c0.5-2.2,2.1-11.3,4.9-11.4c5.4-0.3,11.6-1.6,17-0.9c0.3,2.8,0.6,5.6,0.8,8.4
					C78.9,220.7,76.4,221.2,73.9,221.6z M52.7,240.4c-0.2,1.2,0.3,6.5-1.7,6.3c-3.3-0.3-7.2-2.7-10.2-3.9
					c-3.2-1.3-15.4-4.8-15.7-9.1c0,0.3-0.1,0.4,0-0.3c0.2-1.5,0.4-5.2,2.6-5.1c3,0.1,6.6,2.6,9.2,3.8
					C39.7,233.2,53.3,237.2,52.7,240.4z M69.5,264.1c-0.8,2.1-0.4,3.5-2.9,2.9c-2.9-0.7-5.7-1.6-8.4-2.7c-5.1-2-11.7-3.5-15.6-7.5
					c-5.4-5.6,7.4-2.5,9.7-2c6.4,1.5,12.9,2.6,19.1,4.6C70.8,260.9,70.1,262.5,69.5,264.1z M268.2,254.7c3.3-0.7,15.6-3.5,9.2,2.8
					c-4.1,4-11.8,6-17.1,7.8c-2.5,0.8-5.3,1.8-7.9,2c-0.9-2.3-1.8-4.5-2.6-6.8c0,0,0,0-0.1-0.2l0,0c0,0,0,0,0,0
					c0-0.1-0.1-0.2-0.1-0.3c0,0,0,0,0,0c0,0,0-0.1,0-0.1c0-0.1-0.1-0.2-0.1-0.3c0,0,0,0,0,0.1c-0.1-0.1-0.1-0.3-0.2-0.4
					C255.6,257.7,261.9,256.1,268.2,254.7z M282.1,232.7c3.6-1.6,7.2-2.9,10.8-4.3c1.9-0.7,2.4,3.8,2.8,4.9c0,0.2,0,0.3,0,0.4
					c-0.8,4.5-11.9,7.7-15.5,9.1c-3.2,1.3-6.5,2.6-9.7,3.8c-2.6,1-2.2-3.5-2.3-4.9C267.6,236.6,278.2,234.4,282.1,232.7z
					 M160.3,176.6c4.1-1.3,8.2-2.7,12.3-4c3.9-1.2,7.4,0,11.1,1.1c3.9,1.2,7.8,2.4,11.7,3.6c2.8,0.9,6.2,2.7,9.1,1.3
					c9.1-4.4,28.8-14.4,18.9-27.7c-4.4-5.9-12.2-7-17.8-11.2c-5.3-3.9-5.7-10-5.6-16.1c0.2-7.6,1.4-15.2,1.3-22.8
					c0-3.3-0.7-6.7-1.8-9.8c-1-2.9-3.7-5.4-4.3-8.4c4.2,3.9,9,9.1,10.2,14.9c1.3,5.9-0.9,13.1-1.7,19c-0.4,2.8,0.9,14.7,6.5,10.4
					c3.4-2.5,5.1-8.5,10.3-4.3c8,6.5,16.1,22.2,15.3,32.6c-0.4,5.7-3.4,10.4-7.2,14.4c-1.9,2-3.9,4.3-6.2,5.8
					c-2,1.3-4.2,2.2-5.2,4.6c-2.6,6.6,3.9,6.8,8.5,6.7c6.6-0.2,13.2-0.4,19.8-0.5c2.5-0.1,5.3,9.1,2.9,9.9
					c-5.5,1.8-11.8,2.2-17.6,3.2c-3.8,0.6-15.2,0.6-14.8,6.7c0.2,2.9,1.7,5,1.2,8c-0.4,2.6-2.1,4.8-2.5,7.4
					c-0.7,5.6,7.5,5.9,11.2,6.7c6.1,1.4,12.1,2.7,18.2,3.9c-0.7,1.5-2.6,8.2-4.8,7.5c-3.1-1-6.2-2-9.3-2.9
					c-4.8-1.5-12.5-5.7-17.6-4.1c-6.7,2.2,1.6,8.1,3.7,9.5c5,3.3,10.1,6.3,15.2,9.4c-1,1.4-3,5.4-4.8,5.6c-1.7,0.2-3.9-1.3-5.4-2
					c-4.9-2.3-9.6-5.9-14.8-7.4c-5.2-1.4-9.7,0.8-14.4,2.7c-5.2,2.1-10.6,3.6-16.2,4.3c-4.3,0.6-8.6,0.9-12.9,1.4l-6.3-0.3
					c-2-0.2-4-0.5-6-0.7c-3.2-0.4-6.4-0.5-9.5-1c-6-0.9-10.9-4.1-16.6-5.9c-6.9-2.2-12,0.4-18.1,3.4c-3,1.5-6,2.9-9,4.4
					c-3.1,1.5-3.4,1.3-5.4-1.4c-0.7-1-3.2-2.8-1.7-3.8c1.7-1,3.4-2,5-3c2.8-1.7,5.6-3.4,8.4-5.1c2.4-1.4,5.3-2.7,6.6-5.3
					c1.1-2.2-0.5-5-2.9-5.3c-6.2-0.7-14.7,3.4-20.4,5.4c-2,0.7-5.3,2.9-7.2,1.2c-1.6-1.5-2.1-4.8-2.9-6.8c6.4-1.8,12.9-2.8,19.4-4.3
					c4-0.9,11.3-1.6,9.6-7.3c-1-3.3-2.6-6.2-2.3-9.8c0.2-2.3,1.9-4.4,0.8-6.6c-2.2-4.5-11.2-4.5-15.4-5.2
					c-2.3-0.4-17.1-1.3-17.5-3.6c-0.3-2.2,1.4-5.5,2-7.6c0.6-2.3,4-1.4,5.7-1.4c6.5,0.1,13.9,1.4,20.4,0.6c6.5-0.7,4.9-7.2,0.9-10.3
					c-9.5-7.1-17.5-15.5-14.7-28.1c1.4-6.5,4.5-12.1,8-17.6c2.1-3.3,5.8-10,10.5-9.8c4.5,0.2,4.8,8,9.7,6c4.8-2,3.2-10.4,2.7-14.3
					c-0.7-5.5-2.7-11.8-0.7-17.2c1.9-5,5.8-9.4,9.9-12.8c-4.1,6.6-6.8,13-6.3,20.9c0.4,7.6,1.9,15.2,1.4,22.9
					c-0.5,7.4-3.2,12.1-9.9,15.3c-5.3,2.5-12.4,5.3-14.9,11.2c-2.7,6.2,0.7,12.8,5.3,17c3.8,3.5,11.3,8.4,16.5,8.8
					c3.3,0.3,7.2-1.7,10.3-2.6c3.6-1.1,7.3-2.1,10.9-3.1c4.1-1.2,6.7-1.6,10.8,0 M160.2,176.7C160.3,176.6,160.3,176.6,160.2,176.7"
					/>
				<path d="M249.7,260.4C249.7,260.4,249.7,260.4,249.7,260.4C249.7,260.4,249.7,260.4,249.7,260.4z"/>
				<path d="M249.5,259.8C249.5,259.8,249.5,259.8,249.5,259.8c0,0-0.1-0.1-0.1-0.2C249.4,259.6,249.4,259.7,249.5,259.8z"/>
				<path d="M23.3,197.5C23.3,197.5,23.3,197.5,23.3,197.5C23.3,197.5,23.3,197.5,23.3,197.5z"/>
				<path d="M22.4,198.1C22.3,198.2,22.2,198.3,22.4,198.1L22.4,198.1z"/>
				<path d="M25.2,233.4c0,0.1,0,0.2,0,0.3C25.2,233.4,25.3,232.9,25.2,233.4z"/>
				<path d="M80.6,211.9C80.3,211.8,80.8,214.7,80.6,211.9L80.6,211.9z"/>
				<path d="M22.7,197.9c-0.1,0.1-0.2,0.1-0.3,0.2C22.5,198,22.6,198,22.7,197.9z"/>
				<path d="M23,197.7c-0.1,0.1-0.2,0.2-0.3,0.2C22.8,197.8,22.9,197.8,23,197.7z"/>
				<path d="M23.4,197.4C23.4,197.4,23.3,197.4,23.4,197.4C23.4,197.4,23.4,197.4,23.4,197.4z"/>
				<path d="M23.2,197.5c-0.1,0-0.1,0.1-0.2,0.1C23.1,197.6,23.2,197.6,23.2,197.5z"/>
				<path d="M45.7,180.9C46.1,180.6,45.4,180.2,45.7,180.9L45.7,180.9z"/>
			</g>
			<path d="M149.4,106.7c1,4.5-0.2,10.1-0.6,14.6c-0.4,4.9-1,10-3,14.5c-1.9,4.3-5.3,7.7-9.8,9.3c-3.6,1.3-10.9,1.9-13.9-1.2
				c-2.5-2.6,0.1-7.4,2.9-8.6c1.7-0.8,4,0.4,5.7,0.6c2.7,0.3,5.5-0.3,7.6-2.2c3.4-3.1,5-8.7,6.5-12.8
				C145.4,119,148.6,106.7,149.4,106.7C149.5,107.2,149.2,106.7,149.4,106.7z"/>
			<path d="M106.6,181.6c5,0,12.5-1.9,15.5,2.7c3.1,4.7,6.1,9.3,10.6,12.6c2.1,1.5,4.3,2.7,6.7,3.5c3.3,1.1,4.4,0.9,4.5,4.6
				c0.1,3.7-1.2,11,2.3,13.6c3.2,2.4,9.1,0.4,9.2,6.2c0.1,6.6,0,13.1,0,19.7c0,1.3,0.8,6.6-0.6,7.3c-2.1,1-6.8-0.1-9-0.3
				c-6.5-0.4-7.5-3.9-10.6-8.6c-1.1-1.7-5.4-1.7-7.2-2.1c-3.1-0.7-5.9-1.9-8.8-3.2c-4.7-2.3-7.7-6.8-9.3-11.8
				c-0.9-2.7,1.4-3.2,2.7-5c1.4-1.7,0.7-4.7,0.1-6.6c-1-3.1-9.4-10.4-7.3-13.3c3.3-4.5,9.9,4.2,11.6,6.5c1.8,2.6,10.7,5.4,8.6-0.4
				c-0.8-2.2-3.8-4.1-5.4-5.8c-2-2.1-3.8-4.4-5.6-6.6C111.7,190.6,108.1,186.3,106.6,181.6C111.2,181.6,106.9,182.4,106.6,181.6z"/>
		</g>
	</g>
	<g>
		<g>
			<path d="M176.1,193c-1-2.2-1.8-4.4-3.5-6.2c-1.5-1.6-3.5-2.7-5.6-3.4c-2.4-0.7-5-1.1-7.4-0.9c-3.3,0.3-6.1,1.2-8,2.4
				c2,1.4,4.1,2.4,4,5.3c0,2.6-2.2,5.5-4.9,5.6c-2.4,0-5.1-1.8-5.6-4.2c-0.6-2.6,0.8-5.2,2.7-6.9c5-4.3,11-6,17.4-4.4
				c2.9,0.7,5.9,2.3,7.9,4.6c0.9,1.1,1.6,2.3,2.2,3.7C175.6,189.2,176.8,192.9,176.1,193C176.1,193,176.2,193,176.1,193z
				 M152.6,190.7c0-1.4-0.7-3.5-2.2-3.9c-1.8-0.5-2.8,2.2-2.7,3.5c0,1.5,1.2,3.2,2.7,3.5C152.1,194.1,152.6,191.9,152.6,190.7
				C152.7,190.6,152.6,190.7,152.6,190.7z"/>
		</g>
		<g>
			<path d="M145.3,195.1c1,2.2,1.8,4.4,3.5,6.2c1.5,1.6,3.5,2.7,5.6,3.4c2.4,0.7,5,1.1,7.4,0.9c3.3-0.3,6.1-1.2,8-2.4
				c-2-1.4-4.1-2.4-4-5.3c0-2.6,2.2-5.5,4.9-5.6c2.4,0,5.1,1.8,5.6,4.2c0.6,2.6-0.8,5.2-2.7,6.9c-5,4.3-11,6-17.4,4.4
				c-2.9-0.7-5.9-2.3-7.9-4.6c-0.9-1.1-1.6-2.3-2.2-3.7C145.8,199,144.6,195.2,145.3,195.1C145.3,195.1,145.3,195.1,145.3,195.1z
				 M168.8,197.5c0,1.4,0.7,3.5,2.2,3.9c1.8,0.5,2.8-2.2,2.7-3.5c0-1.5-1.2-3.2-2.7-3.5C169.4,194,168.8,196.2,168.8,197.5
				C168.7,197.5,168.8,197.5,168.8,197.5z"/>
		</g>
	</g>
</g>
</svg>
