<?xml version="1.0" encoding="utf-8"?>
<!-- Generator: Adobe Illustrator 18.1.1, SVG Export Plug-In . SVG Version: 6.00 Build 0)  -->
<svg version="1.1" xmlns="http://www.w3.org/2000/svg" xmlns:xlink="http://www.w3.org/1999/xlink" x="0px" y="0px"
	 viewBox="0 0 320.8 335" enable-background="new 0 0 320.8 335" xml:space="preserve">
<g id="Layer_1">
</g>
<g id="Layer_2">
	<g>
		<g>
			<path fill="#FFFFFF" d="M75.6,168.9c0.2-6.7,6-9.2,11-12.1c-4.1-2.6-13.2-4.4-17.5-1.3c3.9-0.7,12,1,7.7,6.5
				c-4.5,5.8-10.6,8.8-17.6,10.5c-6.1,1.5-13.7,1.6-16.6,8.3c-2.9,6.5-1.4,11.3,4.1,15.5c-2.1,2.6-8.3-0.1-10.5-1.3
				c-3.6-2-6.2-5.4-7.2-9.4c-2.1-8.4,1.7-16.8,8.7-21.6c7.9-5.4,17-5.3,26-7c2.1-0.4,3.3-8.4,3.8-10.1c1.5-5.2,4.5-6,9-7.6
				c8.8-3.1,3.5-17.2,3.4-23.9c-0.1-11.2,3.3-21,8.5-30.7c4.8-9,11.3-14.5,20.7-18.4c3.8-1.6,9-2.2,12.4-4.6
				c3.5-2.5,3.1-7.4,7.6-9.2c6.5-2.7,19.9,4.7,25.4,8.1c5.8,3.6,18.8,11.3,18.4,19.4c-0.1,2.1-1.8,3.3-2.6,5.1
				c-0.8,1.9-0.1,4.3,0.4,6.2c1.3,5,1.6,9.2,1.5,14.3c-0.3,9.9-3,21.4-9.7,29c-5.1,5.8-11.2,11.5-17.2,16.2c-3.1,2.4-6.3,5.1-8.9,8
				c-3.5,3.9-3.6,8.6-5.9,13c-1.7,3.3-4.6,8.5-7.7,10.5c-1.8,1.2-4.1,1.5-6.1,1.9c-1.3,0.3-4.6-0.5-5.6,0.3c-2,1.6-1.2,8.2-0.8,10.3
				c1,5.3,6.5,9.2,10.2,12.6c5.6,5,13.4,6.9,19.5,11.3c7,5.1,9.1,12.5,12.8,19.8c3.7,7.2,13.2,9.1,20.8,9.8c2.7,0.2,20.7-4,20.7-3.9
				c-11,6.6-22.5,12.5-35.8,10.4c-13.9-2.3-24.2-7.9-31.7-19.9c-3.4-5.4-4.9-9.5-10.7-12.5c-6.4-3.4-12.5-7.3-18.9-10.7
				c-6.3-3.3-11.5-8.7-16.1-14.1c-4.1-4.7-5.2-12.9-6.5-18.8c-0.3,7.1,1.7,12.9,3.4,19.7c2,8-0.7,12.1-4.8,18.6
				c-6.9,10.9,6.2,26.3,17.4,17.6c1.6-1.3,3.7-3.8,1.8-5.8c-2.3-2.4-4.1,3.1-6,3c-1.9-0.1,0.9-13.1,8.8-7.2
				c4.9,3.7,3.7,12.2,0.3,16.4c5.4,5.4,10.5,11.6,16.3,16.5c10.9,9.2,29,10.3,42.6,9.7c7.3-0.3,13.4-3.4,20.4-4.8
				c7.2-1.5,14.4-0.6,21.3,1.5c6.6,2.1,12.4,6.3,18.7,8.9c7.6,3.1,17.3,3.5,25.4,4c7.8,0.5,15.6,0,23.3-0.1
				c2.5-0.1,19.9-3.2,19.2-6.2c-6.7,0.6-50.4,4.5-46.9-10.3c0.8-3.4,6.3-4.6,9-5.9c4.1-2,8.4-3.9,12.4-6.1c2-1.1,6-3,5.9-5.8
				c-0.1-2.8-6.8-4-8.8-4.7c-8.7-2.8-17.8-1.7-26.6-3.8c-5.6-1.3-19-5.5-17.6-13.6c1.7-9.6-12.6-9.6-18.2-9.7
				c-9.8-0.2-17.3,0.9-26.5,3.7c-8,2.5-18.1,1.2-26.3,0.2c-7.1-0.9-16.2-4.8-21.1-10.2c-4-4.4-12.6-14.7-3.1-18.6
				c8.6-3.5,9.8,7,14.2,11.1c10.4,9.8,33,7.1,44.6,1.3c8-4,15.2-10.5,21.6-16.7c3-3,5.2-5.6,7.1-9c1.7-2.9,5.2-7.6,5.7-9.6
				c0.3,3.5-1.1,6.2-2.4,10.3c-1.7,5.4-4.4,10.5-6.9,15.7c-4.5,9.1-10.2,14.2-18.5,19.8c8.4,0.2,17.3-0.4,25.5,1.4
				c2.9,0.6,7.1,1,8,4.5c0.8,3.1-2.3,5.6-1.3,8.7c1.8,5.5,16.2,6.3,21,7.7c7.9,2.4,16.5,2.5,24.2,5.4c8,3,12,6.2,5.9,13.7
				c-3.7,4.6-14.2,6.6-16.1,12c-4.9,14,39.6,5.3,44.5,4.9c1.5,4.9-34.9,15.4-39.9,15.6c-14.3,0.5-29.3-3-42-9.5
				c-6.5-3.3-12.8-7.8-20.2-8.5c-8.8-0.8-14,3.2-21.8,5.9c-15.8,5.5-31,5.9-46-2.1c-6.3-3.3-11.9-7.9-17.1-12.8
				c-2-1.9-8.5-14.7-12-12.5c-13.3,8.1-31.2,5.7-42.2-4.9c-11.1-10.7-8.7-27.8-3.8-41c2.8-7.5,7.2-12.7,12.4-18.6
				C64.8,173.1,67.8,168.9,75.6,168.9C75.6,168.9,75.1,168.9,75.6,168.9z M142.5,99.5c-2.8,1.2-5.5,2.8-8.2,4.2
				c-3,1.6-2.4-3.9-2.6-5.5c-0.5-4.4-0.2-6-4.9-4.7c-3.2,0.9-7.3,0.9-10.2,2.7c-4.7,2.8-10.2,8.1-12.1,13.3
				c-1.9,4.9-7.5,18.5-3.2,23.2c1.6,1.8,6.1,2.2,8.3,3c3.7,1.4,7.3,3.3,10.7,5.5c1.1,0.7,5.8,5.4,7.1,4.4c3.2-2.3,6.9-4.4,9.3-7.7
				c3.8-5.3,6.9-12.4,8.1-18.8c0.5-2.8,1.4-6.9-1.5-8.8C141.3,109,142.5,101.3,142.5,99.5C141.7,99.8,142.5,102.8,142.5,99.5z
				 M113,68c-9.1,3.8-13.7,18.7-17.3,27c-4.6,10.7-8,21.4-10.5,32.8c0.3,0.1,9.7-19.6,11.2-22c4.1-6.4,13.6-14,21.5-14.5
				C116.3,83.5,114.6,75.8,113,68C112.5,68.2,114.7,75.9,113,68z M154.7,91.8c3.6-2.1,7.3-3.9,11.1-5.5c3.2-1.4-4.5-8.3-6-9.2
				c-4.2-2.3-7.3-6.1-11.6-8.3c-5.2-2.7-11.2-4.3-16.8-5.6c-4.2-1-5.5,0.1-4.6,4.4c0.4,1.9,1.8,13.7,4.5,11.4c3-2.6,5.4-5.6,9.5-6.1
				c1.7-0.2,0.9,10.9,1.4,12.2c2.1-1.4,8.2-7.1,10.8-5.6C156.2,81.3,153.6,88.8,154.7,91.8C155.8,91.2,154.5,91.2,154.7,91.8z
				 M169.6,98.9c-4.8,1.7-9.5,4.6-14,6.9c-2,1-4,2-6,3c-2,1,1.1,3.4,1.6,4.7c4.9,11.4,0.7,23.6-6.8,32.6c3.7-1.5,6.2-6.2,8.6-9.2
				c2.9-3.6,5.7-7.3,8.1-11.3C165.9,117.3,169.2,108.5,169.6,98.9C169,99.1,169.3,105.4,169.6,98.9z M91.3,155.9c0,0,7.3,4.8,9,4.1
				c1.5-0.6,4.4-7,3.9-8.5c-0.7-2.2-7.4-4.7-9.5-4.8C92.9,146.5,91.3,155.9,91.3,155.9L91.3,155.9z M88.6,154.9c1.3-3,2.7-6,4-9
				c-4.1-1.4-9.9-3.5-12,1.4C78,153.7,83.7,153.4,88.6,154.9C89.9,152,88.6,154.9,88.6,154.9z M102.7,161.7c1.3,0.8,5.1,3.8,6.6,3.2
				c1.4-0.6,4.4-5.3,4.4-6.9c0-1.7-3.7-3.7-5.1-4.3C105.3,152.5,104,159,102.7,161.7C104.7,162.8,102.7,161.7,102.7,161.7z
				 M110.9,166.7c0,0,3.9,4.3,5.9,6.4c1.2-1.7,4.6-4.8,4.3-7c-0.3-2.4-4.1-4.9-5.7-6.5C113.9,161.9,112.4,164.3,110.9,166.7
				C112.8,168.7,110.9,166.7,110.9,166.7z M80.5,144c-1.7-0.1-6-1.2-7.4,0.3c-1,1.1-5.2,6.5-3.7,8.2c0.7,0.8,6.9,0.5,7.5-0.5
				C78.5,149.7,78.8,146.5,80.5,144C78.3,143.9,80.5,144,80.5,144z M119.4,181.1c5-2.4,8.8-8.6,3.2-12.7
				C118.5,173.8,117.3,174.7,119.4,181.1C119.4,181.1,118.8,179.1,119.4,181.1z"/>
		</g>
		<g>
			<g>
				<path fill="#FFFFFF" d="M123.4,110.7c-1.5,2.5-2.9,5-4.4,7.6c-0.8-1.2-2.6-6-4.5-5.5c-1.1,0.3-2.2,1.9-3,2.8
					c-0.6,0.7-1.4,2.4-2.3,2.6c0.1-0.7,0.8-1.6,1.2-2.2c0.6-1,1.2-1.9,1.8-2.9c0.5-0.8,0.9-1.6,1.4-2.3c0.6-1,0.9-0.8,1.5,0.1
					c0.9,1.2,2.5,2.9,4,2.8c0.9-0.1,1.5-0.7,2.2-1.3c0.3-0.3,1.7-2.1,2.1-2.1c0.5,0,1.3,1.4,1.7,1.8c0.6,0.7,1.4,1.3,2.3,1.5
					c1.9,0.4,3.1-1.4,3.9-2.8c0.3-0.5,0.7-1.2,1.1-0.4c0.6,1,1.2,1.9,1.8,2.9c0.6,0.9,1.2,1.9,1.8,2.8c0.5,0.7,1.2,1.4,1.3,2.2
					c-0.8-0.3-1.4-1.2-2-1.9c-0.8-0.8-1.6-1.7-2.3-2.6c-1.7-1.9-2.6-0.2-3.6,1.4c-0.5,0.9-1.4,2.2-1.9,3.1
					C127.6,118.1,124.4,112.8,123.4,110.7C122,113.2,123.4,110.7,123.4,110.7z"/>
			</g>
			<g>
				<path fill="#FFFFFF" d="M123.5,119.8c-1.5,2.5-2.9,5-4.4,7.6c-0.8-1.2-2.6-6-4.5-5.5c-1.1,0.3-2.2,1.9-3,2.8
					c-0.6,0.7-1.4,2.4-2.3,2.6c0.1-0.7,0.8-1.6,1.2-2.2c0.6-1,1.2-1.9,1.8-2.9c0.5-0.8,0.9-1.6,1.4-2.3c0.6-1,0.9-0.8,1.5,0.1
					c0.9,1.2,2.5,2.9,4,2.8c0.9-0.1,1.5-0.7,2.2-1.3c0.3-0.3,1.7-2.1,2.1-2.1c0.5,0,1.3,1.4,1.7,1.8c0.6,0.7,1.4,1.3,2.3,1.5
					c1.9,0.4,3.1-1.4,3.9-2.8c0.3-0.5,0.7-1.2,1.1-0.4c0.6,1,1.2,1.9,1.8,2.9c0.6,0.9,1.2,1.9,1.8,2.8c0.5,0.7,1.2,1.4,1.3,2.2
					c-0.8-0.3-1.4-1.2-2-1.9c-0.8-0.8-1.6-1.7-2.3-2.6c-1.7-1.9-2.6-0.2-3.6,1.4c-0.5,0.9-1.4,2.2-1.9,3.1
					C127.7,127.3,124.5,122,123.5,119.8C122,122.4,123.5,119.8,123.5,119.8z"/>
			</g>
		</g>
	</g>
</g>
</svg>
