<?xml version="1.0" encoding="utf-8"?>
<!-- Generator: Adobe Illustrator 18.1.1, SVG Export Plug-In . SVG Version: 6.00 Build 0)  -->
<svg version="1.1" xmlns="http://www.w3.org/2000/svg" xmlns:xlink="http://www.w3.org/1999/xlink" x="0px" y="0px"
	 viewBox="0 0 320.8 335" enable-background="new 0 0 320.8 335" xml:space="preserve">
<g id="Layer_1">
</g>
<g id="Layer_2">
	<g>
		<g>
			<g>
				<path d="M174.4,116.5c-7.1,4-14.2,8.8-22.8,8.2c-6.2-0.4-3.9-2.9-0.8-5.2c3.3-2.6,4.5-3,4.9-7.2c0.5-5.1,8.1-9.3,4.2-13.4
					c-2.4-2.5,0.1-6.2,1.8-8.2c2.6-3.1,1.1-7.2,1.6-10.9c0.5-3.1,1.5-6.4,2.9-9.2c0.9-1.8,5.4-8,7.6-7.6c1.8,0.4,1,7.7,1.3,9.1
					c0.8,3.4,3,7.2,5.8,9.3c5,3.6,13.8,0.5,18.1-3.1c3.3-2.8,5.4-6.5,8.4-9.5c3.1-3.2,6.9-4.4,11-5.8c3.3-1.1,5.6-1.7,8.1-4.2
					c2.6-2.5,5.1-5,8.5-6.5c7.5-3.6,16.4-2,23.9,0.5c4.8,1.6,16.2,6.4,15.5,13c-0.5,3.9-4.7,5-5.6,8.3c-1,3.6,0.6,8.7,0.9,12.4
					c0.7,8.3-1.7,16.7-6.1,23.6c-4.4,7-13.4,13.2-13.7,21.7c-0.3,8.1,0.4,15.9,5.3,22.8c2.5,3.6,5.3,5.2,9.4,6.6
					c1.2,0.4,6.1,3.6,5.4,5.1c-3.2-0.5-6.3-2.7-9.3-3.9c-3.6-1.4-7.5-2.4-10.9-4.2c-7.1-3.8-15.5-3.7-23.2-2.6
					c-5.7,0.8-12.5,4.5-17.5,7.5c-5.4,3.2-7.6,7.1-11.7,11.3c-4.9,5.1-6.3,11.2-7,18c-0.6,6.5,2.9,16.9,7.3,21.8
					c9.4,10.6,22.7,16.4,36.2,10.6c5.8-2.5,12.5-6.3,16.2-11.7c3.3-4.9,9.6-13.5,6.7-19.6c0.2,0.4-2.9-4.3-0.2-3.3
					c2.4,0.9,1.9,4,2.4,6.1c1.7,7,1,15.6-1.6,22.2c-5.2,13.1-14.8,24.5-18.1,38.4c-1.7,7.1-0.3,13.9,4.5,19.4
					c2.1,2.4,4.7,4.4,7.4,6.1c2.6,1.6,7.7,2.5,9.1,5.2c-2.8,0.9-6.9-2.3-9.4-3.5c-4-2-8.1-3.9-11.8-6.3c-7.6-5-15.7-8.7-22.7-14.7
					c-13.5-11.6-26.4-24.4-35.1-40.2c-8.6-15.6-14.9-32.7-16.9-50.5c-1.1-9.5-1.7-18.8,1.1-28.1
					C168.2,134.8,170.9,125.7,174.4,116.5C171.2,118.3,174.4,116.5,174.4,116.5z M258,202.4c-4.2,6.8-6.7,12.8-13.2,18
					c-5.8,4.7-13.9,8.5-21.4,9c-16.5,1-29.4-9-37-23.1c-7-13-4.2-33.1,6-43.8c5.3-5.5,11.7-8.5,18.2-12.3c7-4.1,14-8,21.1-12
					c-12.4-9.8-5.4-24.4-0.7-36.3c-8.8,4.3-17.4,6.1-27.2,6.2c-4.6,0-8.7-0.6-13.3-1.2c-0.8-0.1-2.2-0.9-3.6,0
					c-1.9,1.1-2.8,5.3-3.6,7.3c-4.4,10.6-8.8,20.4-10.4,31.9c-1.5,11.1-1.1,23.3,1.4,34.3c4.6,20.6,12.8,41,24.9,58.3
					c11.3,16.1,27.4,30.1,44.2,40.1c-1.5-2.5-3.4-4.7-4.9-7.3c-1.4-2.6-2.3-5.6-5.1-7.1c-1.2-0.6-15.8-6.4-13.2-8.9
					c0.1-0.1,8.1,5.2,9.2,5.7c4.1,1.8,8.1-1.7,8.5-5.8c1.2-10.9-19.6-2.6-22.2-10.6c2.4-0.4,5.3,1.4,7.7,2c2.7,0.7,5.6,1,8.4,0.5
					c3.3-0.6,10.4-3.6,12.3-6.7c4-6.6-3.2-4.3-6.4-3.1c-5.3,2-12.3,4.2-17.9,2.9c0.1-1.3,12.5-3,14.6-3.7c3.8-1.3,8-4,10.8-7
					c4.1-4.5,7.2-8.9,10.3-14.2C257,212.6,259.9,205.6,258,202.4C257.9,202.5,258.1,202.5,258,202.4z M254.5,75
					c3.1,2.5-14.4,19.4-16.5,21.7c-2.9,3.1-4.1,9.1-5.6,13c-2,5-2.5,9.3-2.3,14.7c0.2,5.2,2.2,6.3,4.9,10.1c1.8,2.6,11-6.2,12.3-7.5
					c8.8-7.9,16.8-17.2,19.8-29c1.3-5,1.4-10.1,0.8-15.2c-0.4-3.5,0.5-7.9-3.3-8.4c-5.8-0.7-11.5-3.8-16.3-7
					c-2.5-1.7-4.9-3.6-7.1-5.6c-1.5-1.4-2.3-4.6-4-5.4c-2.6-1.3-8.6,4.9-10.5,6.2c-4.9,3.2-10.1,6.1-14.2,10.3
					c-8.2,8.3-16.6,18.2-23,28c12.5,3.9,26.2,1.7,38.2-2.9c5.3-2.1,9.5-3.4,13.7-7.5C246.4,85.8,250.1,80.1,254.5,75
					C254.7,75.1,254,75.6,254.5,75z M254.2,156.6c-0.1,0.1-4.4-9.8-4.8-11.6c-1.3-5.4-1.2-11.1-0.9-16.6c-3.1,1.3-5.6,4.2-8.6,6
					c-3.4,2-3,5.4-2.4,9c0.4,2.6,1.4,8.7,3.8,10.3C244.4,155.8,250.4,155.9,254.2,156.6C254.4,156.5,252.4,156.3,254.2,156.6z
					 M271.9,68.6c-4.3-3.9-11.8-3.7-17-6.2c-5.5-2.7-9.4-8.1-15.5-6.5c1.9,6.6,10,10.5,15.6,13.5c3,1.6,6.6,3.5,10.1,3.5
					C267.9,72.9,270,70.3,271.9,68.6C269.5,66.4,271.9,68.6,271.9,68.6z M234.4,138.2c-5.4,1.7-7.2,4.5-6.3,10
					c1.1,6.5,4.3,5.3,9.8,5.3C236.8,148.4,235.6,143.3,234.4,138.2C234.1,138.3,235.6,143.4,234.4,138.2z M226.1,142.9
					c-1,0.5-6,2.1-6.1,3.3c-0.4,2.7-0.7,5.7,1.5,7.8c1.3,1.3,4.9-0.1,6.4-0.3C227.3,150.1,226.7,146.5,226.1,142.9
					C224.2,143.8,226.1,142.9,226.1,142.9z M218.2,147.4c-1.5,0.8-6.1,2.2-6.3,4.4c-0.1,1.1-0.8,4.9,0.7,5.6
					c1.4,0.7,6.3-1.9,7.7-2.4 M193.9,166.8c-3.8,4.2-6.3,6.9-2.8,12.3C194.6,174.5,195.7,172.2,193.9,166.8
					C192.8,168.1,193.9,166.8,193.9,166.8z M209.7,152.4c-3.5,2.4-6.3,4.4-3.2,8.9c1.4-1,2.9-1.9,4.3-2.9
					C210.5,156.4,210.1,154.4,209.7,152.4C208.8,153.1,209.7,152.4,209.7,152.4z M203.4,157.3c-2.6,1.1-5.2,4.1-3.4,7
					c1.5,2.4,3.5-0.8,5-2C204.5,160.6,204,158.9,203.4,157.3C199.3,159.1,203.4,157.3,203.4,157.3z M197.7,162
					c-2.4,3.4-1.9,4.5-1,8.5C200.2,167.1,199.5,166.1,197.7,162C196.9,163.2,197.7,162,197.7,162z M188.3,178.1
					c0.2,3.1-0.5,5.9,0.3,9C190.2,183.9,191.3,181.1,188.3,178.1z"/>
				<path d="M253.9,98c-0.2-3.7,1.8-7.3,3.4-10.5c1.9-3.6,4.4,4,4,5.7c-0.8,3.4-1.1,7.1-3.3,9.9C254.6,107.3,254.4,100.4,253.9,98
					C253.7,95.2,254.3,99.9,253.9,98z"/>
				<path d="M235.3,72.6c-0.5,3-5,4-7.3,4.9c-0.2,0.1-9.9,4-8.3,1c1.4-2.5,2.7-5.4,5.3-6.9C226.6,70.8,236.1,69.3,235.3,72.6
					C235.1,74.3,235.6,71.5,235.3,72.6z"/>
			</g>
			<g>
				<path d="M132,221.6c7.1-4,14.2-8.8,22.8-8.2c6.2,0.4,3.9,2.9,0.8,5.2c-3.3,2.6-4.5,3-4.9,7.2c-0.5,5.1-8.1,9.3-4.2,13.4
					c2.4,2.5-0.1,6.2-1.8,8.2c-2.6,3.1-1.1,7.2-1.6,10.9c-0.5,3.1-1.5,6.4-2.9,9.2c-0.9,1.8-5.4,8-7.6,7.6c-1.8-0.4-1-7.7-1.3-9.1
					c-0.8-3.4-3-7.2-5.8-9.3c-5-3.6-13.8-0.5-18.1,3.1c-3.3,2.8-5.4,6.5-8.4,9.5c-3.1,3.2-6.9,4.4-11,5.8c-3.3,1.1-5.6,1.7-8.1,4.2
					c-2.6,2.5-5.1,5-8.5,6.5c-7.5,3.6-16.4,2-23.9-0.5c-4.8-1.6-16.2-6.4-15.5-13c0.5-3.9,4.7-5,5.6-8.3c1-3.6-0.6-8.7-0.9-12.4
					c-0.7-8.3,1.7-16.7,6.1-23.6c4.4-7,13.4-13.2,13.7-21.7c0.3-8.1-0.4-15.9-5.3-22.8c-2.5-3.6-5.3-5.2-9.4-6.6
					c-1.2-0.4-6.1-3.6-5.4-5.1c3.2,0.5,6.3,2.7,9.3,3.9c3.6,1.4,7.5,2.4,10.9,4.2c7.1,3.8,15.5,3.7,23.2,2.6
					c5.7-0.8,12.5-4.5,17.5-7.5c5.4-3.2,7.6-7.1,11.7-11.3c4.9-5.1,6.3-11.2,7-18c0.6-6.5-2.9-16.9-7.3-21.8
					c-9.4-10.6-22.7-16.4-36.2-10.6c-5.8,2.5-12.5,6.3-16.2,11.7c-3.3,4.9-9.6,13.5-6.7,19.6c-0.2-0.4,2.9,4.3,0.2,3.3
					c-2.4-0.9-1.9-4-2.4-6.1c-1.7-7-1-15.6,1.6-22.2c5.2-13.1,14.8-24.5,18.1-38.4c1.7-7.1,0.3-13.9-4.5-19.4
					c-2.1-2.4-4.7-4.4-7.4-6.1c-2.6-1.6-7.7-2.5-9.1-5.2c2.8-0.9,6.9,2.3,9.4,3.5c4,2,8.1,3.9,11.8,6.3c7.6,5,15.7,8.7,22.7,14.7
					c13.5,11.6,26.4,24.4,35.1,40.2c8.6,15.6,14.9,32.7,16.9,50.5c1.1,9.5,1.7,18.8-1.1,28.1C138.2,203.3,135.5,212.4,132,221.6
					C132,221.6,133.2,218.4,132,221.6z M48.4,135.7c4.2-6.8,6.7-12.8,13.2-18c5.8-4.7,13.9-8.5,21.4-9c16.5-1,29.4,9,37,23.1
					c7,13,4.2,33.1-6,43.8c-5.3,5.5-11.7,8.5-18.2,12.3c-7,4.1-14,8-21.1,12c12.4,9.8,5.4,24.4,0.7,36.3c8.8-4.3,17.4-6.1,27.2-6.2
					c4.6,0,9.1,0.3,13.7,0.9c0.8,0.1,3.2,0.9,3.2,0.9c1.8-1.3,2.7-5.9,3.6-7.9c4.4-10.6,8.8-20.4,10.4-31.9
					c1.5-11.1,1.1-23.3-1.4-34.3c-4.6-20.6-12.8-41-24.9-58.3C95.9,83.5,79.8,69.6,63,59.5c1.5,2.5,3.4,4.7,4.9,7.3
					c1.4,2.6,2.3,5.6,5.1,7.1c1.2,0.6,15.8,6.4,13.2,8.9c-0.1,0.1-8.1-5.2-9.2-5.7c-4.1-1.8-8.1,1.7-8.5,5.8
					C67.2,93.8,88,85.4,90.7,93.5c-2.4,0.4-5.3-1.4-7.7-2c-2.7-0.7-5.6-1-8.4-0.5c-3.3,0.6-10.4,3.6-12.3,6.7
					c-4,6.6,3.2,4.3,6.4,3.1c5.3-2,12.3-4.2,17.9-2.9c-0.1,1.3-12.5,3-14.6,3.7c-3.8,1.3-8,4-10.8,7c-4.1,4.5-7.2,8.9-10.3,14.2
					C49.3,125.5,46.5,132.5,48.4,135.7C48.5,135.6,48.3,135.6,48.4,135.7z M51.9,263.1c-3.1-2.5,14.4-19.4,16.5-21.7
					c2.9-3.1,4.1-9.1,5.6-13c2-5,2.5-9.3,2.3-14.7c-0.2-5.2-2.2-6.3-4.9-10.1c-1.8-2.6-11,6.2-12.3,7.5c-8.8,7.9-16.8,17.2-19.8,29
					c-1.3,5-1.4,10.1-0.8,15.2c0.4,3.5-0.5,7.9,3.3,8.4c5.8,0.7,11.5,3.8,16.3,7c2.5,1.7,4.9,3.6,7.1,5.6c1.5,1.4,2.3,4.6,4,5.4
					c2.6,1.3,8.6-4.9,10.5-6.2c4.9-3.2,10.1-6.1,14.2-10.3c8.2-8.3,16.6-18.2,23-28c-12.5-3.9-26.2-1.7-38.2,2.9
					c-5.3,2.1-9.5,3.4-13.7,7.5C60,252.3,56.3,258,51.9,263.1C51.7,263,52.4,262.5,51.9,263.1z M52.2,181.5
					c0.1-0.1,4.4,9.8,4.8,11.6c1.3,5.4,1.2,11.1,0.9,16.6c3.1-1.3,5.6-4.2,8.6-6c3.4-2,3-5.4,2.4-9c-0.4-2.6-1.4-8.7-3.8-10.3
					C62,182.3,55.9,182.2,52.2,181.5C52,181.6,54,181.8,52.2,181.5z M34.5,269.5c4.3,3.9,11.8,3.7,17,6.2c5.5,2.7,9.4,8.1,15.5,6.5
					c-1.9-6.6-10-10.5-15.6-13.5c-3-1.6-6.6-3.5-10.1-3.5C38.5,265.2,36.4,267.9,34.5,269.5C36.9,271.8,34.5,269.5,34.5,269.5z
					 M72,199.9c5.3-2,7.2-4.5,6.3-10c-1.1-6.5-4.3-5.3-9.8-5.3C69.6,189.7,70.8,194.8,72,199.9C72.3,199.8,72,199.9,72,199.9z
					 M80.3,195.2c1-0.5,6-2.1,6.1-3.3c0.4-2.7,0.7-5.7-1.5-7.8c-1.3-1.3-4.9,0.1-6.4,0.3C79.1,188,79.7,191.6,80.3,195.2
					C82.2,194.3,80.3,195.2,80.3,195.2z M88.2,190.7c1.5-0.8,6.1-2.2,6.3-4.4c0.1-1.1,0.8-4.9-0.7-5.6c-1.4-0.7-6.3,1.9-7.7,2.4
					 M112.4,171.3c3.8-4.2,6.3-6.9,2.8-12.3C111.7,163.6,110.6,165.9,112.4,171.3C113.5,170.1,112.4,171.3,112.4,171.3z M96.6,185.7
					c3.5-2.4,6.3-4.4,3.2-8.9c-1.4,1-2.9,1.9-4.3,2.9C95.9,181.7,96.3,183.7,96.6,185.7C97.6,185,96.6,185.7,96.6,185.7z
					 M102.9,180.8c2.6-1.1,5.2-4.1,3.4-7c-1.5-2.4-3.5,0.8-5,2C101.8,177.5,102.4,179.2,102.9,180.8
					C107.1,179,102.9,180.8,102.9,180.8z M108.7,176.1c2.4-3.4,1.9-4.5,1-8.5C106.2,171,106.9,172,108.7,176.1
					C109.5,174.9,108.7,176.1,108.7,176.1z M118,160c-0.2-3.1,0.5-5.9-0.3-9C116.2,154.2,115.1,157,118,160z"/>
				<path d="M52.5,240.1c0.2,3.7-1.8,7.3-3.4,10.5c-1.9,3.6-4.4-4-4-5.7c0.8-3.4,1.1-7.1,3.3-9.9C51.7,230.9,52,237.7,52.5,240.1
					C52.7,242.9,52.1,238.2,52.5,240.1z"/>
				<path d="M71.1,265.5c0.5-3,5-4,7.3-4.9c0.2-0.1,9.9-4,8.3-1c-1.4,2.5-2.7,5.4-5.3,6.9C79.8,267.3,70.3,268.8,71.1,265.5
					C71.3,263.8,70.8,266.6,71.1,265.5z"/>
			</g>
		</g>
		<g>
			<path d="M163.3,173.1c-2.1,0.7-4.6-0.1-6.3-1.4c-0.9-0.7-1.7-1.6-2.4-2.5c-0.6-0.9-0.7-2.8-1.6-3.3c-1-0.6-1,0.8-1.1,1.3
				c-0.3,1.2-0.9,2.2-1.7,3.1c-1.9,1.9-4,3.1-6.7,3.3c0.3-0.4,0.8-0.4,1.2-0.7c0.6-0.4,1.2-0.8,1.7-1.3c0.9-0.8,1.7-1.8,2.2-2.9
				c0.5-1.2,0-2.4-1.3-2.6c-0.3,0-3.8-0.4-2.1-1.3c0.9-0.5,2.7,0.5,3.4-0.2c0.8-0.7,0.5-2,0-2.9c-0.6-1.1-1.4-2-2.3-2.9
				c-0.4-0.3-3.2-2-3.1-2.2c2.4,0.3,4.8,1.6,6.7,3.2c0.8,0.7,1.4,1.5,1.9,2.4c0.3,0.5,0.5,2.5,1.2,2.4c0.9-0.1,0.6-1.4,0.8-2
				c0.3-1.1,0.9-2.2,1.6-3.1c1.5-1.7,4.5-3.5,6.8-2.7c-1,0.7-2,0.8-2.9,1.7c-0.9,0.9-1.8,2-2.2,3.2c-0.3,0.8-0.4,2.6,0.8,2.7
				c0.4,0,3-0.2,2.4,1c-0.5,0.8-2.2,0.1-2.9,0.7c-0.9,0.7-0.4,1.8-0.1,2.7c0.5,1.1,1.2,2.2,2.2,2.9
				C160.4,172.5,162.1,172.3,163.3,173.1C163,173.2,162.7,172.7,163.3,173.1z"/>
		</g>
	</g>
</g>
</svg>
