<?xml version="1.0" encoding="utf-8"?>
<!-- Generator: Adobe Illustrator 18.1.1, SVG Export Plug-In . SVG Version: 6.00 Build 0)  -->
<svg version="1.1" xmlns="http://www.w3.org/2000/svg" xmlns:xlink="http://www.w3.org/1999/xlink" x="0px" y="0px"
	 viewBox="0 0 320.8 335" enable-background="new 0 0 320.8 335" xml:space="preserve">
<g id="Layer_1">
</g>
<g id="Layer_2">
	<g>
		<g>
			<g>
				<path fill="#FFFFFF" d="M181.6,115c-7.1,4-14.2,8.8-22.8,8.2c-6.2-0.4-3.9-2.9-0.8-5.2c3.3-2.6,4.5-3,4.9-7.2
					c0.5-5.1,8.1-9.3,4.2-13.4c-2.4-2.5,0.1-6.2,1.8-8.2c2.6-3.1,1.1-7.2,1.6-10.9c0.5-3.1,1.5-6.4,2.9-9.2c0.9-1.8,5.4-8,7.6-7.6
					c1.8,0.4,1,7.7,1.3,9.1c0.8,3.4,3,7.2,5.8,9.3c5,3.6,13.8,0.5,18.1-3.1c3.3-2.8,5.4-6.5,8.4-9.5c3.1-3.2,6.9-4.4,11-5.8
					c3.3-1.1,5.6-1.7,8.1-4.2c2.6-2.5,5.1-5,8.5-6.5c7.5-3.6,16.4-2,23.9,0.5c4.8,1.6,16.2,6.4,15.5,13c-0.5,3.9-4.7,5-5.6,8.3
					c-1,3.6,0.6,8.7,0.9,12.4c0.7,8.3-1.7,16.7-6.1,23.6c-4.4,7-13.4,13.2-13.7,21.7c-0.3,8.1,0.4,15.9,5.3,22.8
					c2.5,3.6,5.3,5.2,9.4,6.6c1.2,0.4,6.1,3.6,5.4,5.1c-3.2-0.5-6.3-2.7-9.3-3.9c-3.6-1.4-7.5-2.4-10.9-4.2
					c-7.1-3.8-15.5-3.7-23.2-2.6c-5.7,0.8-12.5,4.5-17.5,7.5c-5.4,3.2-7.6,7.1-11.7,11.3c-4.9,5.1-6.3,11.2-7,18
					c-0.6,6.5,2.9,16.9,7.3,21.8c9.4,10.6,22.7,16.4,36.2,10.6c5.8-2.5,12.5-6.3,16.2-11.7c3.3-4.9,9.6-13.5,6.7-19.6
					c0.2,0.4-2.9-4.3-0.2-3.3c2.4,0.9,1.9,4,2.4,6.1c1.7,7,1,15.6-1.6,22.2c-5.2,13.1-14.8,24.5-18.1,38.4
					c-1.7,7.1-0.3,13.9,4.5,19.4c2.1,2.4,4.7,4.4,7.4,6.1c2.6,1.6,7.7,2.5,9.1,5.2c-2.8,0.9-6.9-2.3-9.4-3.5c-4-2-8.1-3.9-11.8-6.3
					c-7.6-5-15.7-8.7-22.7-14.7c-13.5-11.6-26.4-24.4-35.1-40.2c-8.6-15.6-14.9-32.7-16.9-50.5c-1.1-9.5-1.7-18.8,1.1-28.1
					C175.4,133.3,178.1,124.2,181.6,115C178.4,116.7,181.6,115,181.6,115z M265.2,200.8c-4.2,6.8-6.7,12.8-13.2,18
					c-5.8,4.7-13.9,8.5-21.4,9c-16.5,1-29.4-9-37-23.1c-7-13-4.2-33.1,6-43.8c5.3-5.5,11.7-8.5,18.2-12.3c7-4.1,14-8,21.1-12
					c-12.4-9.8-5.4-24.4-0.7-36.3c-8.8,4.3-17.4,6.1-27.2,6.2c-4.6,0-8.7-0.6-13.3-1.2c-0.8-0.1-2.2-0.9-3.6,0
					c-1.9,1.1-2.8,5.3-3.6,7.3c-4.4,10.6-8.8,20.4-10.4,31.9c-1.5,11.1-1.1,23.3,1.4,34.3c4.6,20.6,12.8,41,24.9,58.3
					c11.3,16.1,27.4,30.1,44.2,40.1c-1.5-2.5-3.4-4.7-4.9-7.3c-1.4-2.6-2.3-5.6-5.1-7.1c-1.2-0.6-15.8-6.4-13.2-8.9
					c0.1-0.1,8.1,5.2,9.2,5.7c4.1,1.8,8.1-1.7,8.5-5.8c1.2-10.9-19.6-2.6-22.2-10.6c2.4-0.4,5.3,1.4,7.7,2c2.7,0.7,5.6,1,8.4,0.5
					c3.3-0.6,10.4-3.6,12.3-6.7c4-6.6-3.2-4.3-6.4-3.1c-5.3,2-12.3,4.2-17.9,2.9c0.1-1.3,12.5-3,14.6-3.7c3.8-1.3,8-4,10.8-7
					c4.1-4.5,7.2-8.9,10.3-14.2C264.2,211,267.1,204,265.2,200.8C265.1,201,265.2,200.9,265.2,200.8z M261.7,73.4
					c3.1,2.5-14.4,19.4-16.5,21.7c-2.9,3.1-4.1,9.1-5.6,13c-2,5-2.5,9.3-2.3,14.7c0.2,5.2,2.2,6.3,4.9,10.1c1.8,2.6,11-6.2,12.3-7.5
					c8.8-7.9,16.8-17.2,19.8-29c1.3-5,1.4-10.1,0.8-15.2c-0.4-3.5,0.5-7.9-3.3-8.4c-5.8-0.7-11.5-3.8-16.3-7
					c-2.5-1.7-4.9-3.6-7.1-5.6c-1.5-1.4-2.3-4.6-4-5.4c-2.6-1.3-8.6,4.9-10.5,6.2c-4.9,3.2-10.1,6.1-14.2,10.3
					c-8.2,8.3-16.6,18.2-23,28c12.5,3.9,26.2,1.7,38.2-2.9c5.3-2.1,9.5-3.4,13.7-7.5C253.6,84.3,257.3,78.5,261.7,73.4
					C261.9,73.6,261.2,74,261.7,73.4z M261.4,155.1c-0.1,0.1-4.4-9.8-4.8-11.6c-1.3-5.4-1.2-11.1-0.9-16.6c-3.1,1.3-5.6,4.2-8.6,6
					c-3.4,2-3,5.4-2.4,9c0.4,2.6,1.4,8.7,3.8,10.3C251.6,154.3,257.6,154.3,261.4,155.1C261.5,155,259.6,154.7,261.4,155.1z
					 M279.1,67c-4.3-3.9-11.8-3.7-17-6.2c-5.5-2.7-9.4-8.1-15.5-6.5c1.9,6.6,10,10.5,15.6,13.5c3,1.6,6.6,3.5,10.1,3.5
					C275.1,71.4,277.2,68.7,279.1,67C276.7,64.8,279.1,67,279.1,67z M241.6,136.6c-5.4,1.7-7.2,4.5-6.3,10c1.1,6.5,4.3,5.3,9.8,5.3
					C244,146.8,242.8,141.7,241.6,136.6C241.3,136.7,242.8,141.9,241.6,136.6z M233.3,141.4c-1,0.5-6,2.1-6.1,3.3
					c-0.4,2.7-0.7,5.7,1.5,7.8c1.3,1.3,4.9-0.1,6.4-0.3C234.5,148.6,233.9,145,233.3,141.4C231.4,142.3,233.3,141.4,233.3,141.4z
					 M225.4,145.8c-1.5,0.8-6.1,2.2-6.3,4.4c-0.1,1.1-0.8,4.9,0.7,5.6c1.4,0.7,6.3-1.9,7.7-2.4 M201.1,165.3
					c-3.8,4.2-6.3,6.9-2.8,12.3C201.8,173,202.9,170.7,201.1,165.3C200,166.5,201.1,165.3,201.1,165.3z M216.9,150.9
					c-3.5,2.4-6.3,4.4-3.2,8.9c1.4-1,2.9-1.9,4.3-2.9C217.7,154.9,217.3,152.9,216.9,150.9C216,151.5,216.9,150.9,216.9,150.9z
					 M210.6,155.7c-2.6,1.1-5.2,4.1-3.4,7c1.5,2.4,3.5-0.8,5-2C211.7,159.1,211.2,157.4,210.6,155.7
					C206.5,157.5,210.6,155.7,210.6,155.7z M204.9,160.5c-2.4,3.4-1.9,4.5-1,8.5C207.4,165.5,206.7,164.5,204.9,160.5
					C204.1,161.6,204.9,160.5,204.9,160.5z M195.5,176.5c0.2,3.1-0.5,5.9,0.3,9C197.4,182.4,198.5,179.5,195.5,176.5z"/>
				<path fill="#FFFFFF" d="M261.1,96.4c-0.2-3.7,1.8-7.3,3.4-10.5c1.9-3.6,4.4,4,4,5.7c-0.8,3.4-1.1,7.1-3.3,9.9
					C261.8,105.7,261.5,98.8,261.1,96.4C260.9,93.7,261.5,98.4,261.1,96.4z"/>
				<path fill="#FFFFFF" d="M242.5,71.1c-0.5,3-5,4-7.3,4.9c-0.2,0.1-9.9,4-8.3,1c1.4-2.5,2.7-5.4,5.3-6.9
					C233.8,69.3,243.3,67.7,242.5,71.1C242.3,72.7,242.8,69.9,242.5,71.1z"/>
			</g>
			<g>
				<path fill="#FFFFFF" d="M139.2,220c7.1-4,14.2-8.8,22.8-8.2c6.2,0.4,3.9,2.9,0.8,5.2c-3.3,2.6-4.5,3-4.9,7.2
					c-0.5,5.1-8.1,9.3-4.2,13.4c2.4,2.5-0.1,6.2-1.8,8.2c-2.6,3.1-1.1,7.2-1.6,10.9c-0.5,3.1-1.5,6.4-2.9,9.2
					c-0.9,1.8-5.4,8-7.6,7.6c-1.8-0.4-1-7.7-1.3-9.1c-0.8-3.4-3-7.2-5.8-9.3c-5-3.6-13.8-0.5-18.1,3.1c-3.3,2.8-5.4,6.5-8.4,9.5
					c-3.1,3.2-6.9,4.4-11,5.8c-3.3,1.1-5.6,1.7-8.1,4.2c-2.6,2.5-5.1,5-8.5,6.5c-7.5,3.6-16.4,2-23.9-0.5c-4.8-1.6-16.2-6.4-15.5-13
					c0.5-3.9,4.7-5,5.6-8.3c1-3.6-0.6-8.7-0.9-12.4c-0.7-8.3,1.7-16.7,6.1-23.6c4.4-7,13.4-13.2,13.7-21.7
					c0.3-8.1-0.4-15.9-5.3-22.8c-2.5-3.6-5.3-5.2-9.4-6.6c-1.2-0.4-6.1-3.6-5.4-5.1c3.2,0.5,6.3,2.7,9.3,3.9
					c3.6,1.4,7.5,2.4,10.9,4.2c7.1,3.8,15.5,3.7,23.2,2.6c5.7-0.8,12.5-4.5,17.5-7.5c5.4-3.2,7.6-7.1,11.7-11.3
					c4.9-5.1,6.3-11.2,7-18c0.6-6.5-2.9-16.9-7.3-21.8c-9.4-10.6-22.7-16.4-36.2-10.6c-5.8,2.5-12.5,6.3-16.2,11.7
					c-3.3,4.9-9.6,13.5-6.7,19.6c-0.2-0.4,2.9,4.3,0.2,3.3c-2.4-0.9-1.9-4-2.4-6.1c-1.7-7-1-15.6,1.6-22.2
					c5.2-13.1,14.8-24.5,18.1-38.4c1.7-7.1,0.3-13.9-4.5-19.4c-2.1-2.4-4.7-4.4-7.4-6.1c-2.6-1.6-7.7-2.5-9.1-5.2
					c2.8-0.9,6.9,2.3,9.4,3.5c4,2,8.1,3.9,11.8,6.3c7.6,5,15.7,8.7,22.7,14.7c13.5,11.6,26.4,24.4,35.1,40.2
					c8.6,15.6,14.9,32.7,16.9,50.5c1.1,9.5,1.7,18.8-1.1,28.1C145.4,201.7,142.7,210.8,139.2,220C139.2,220,140.4,216.9,139.2,220z
					 M55.6,134.2c4.2-6.8,6.7-12.8,13.2-18c5.8-4.7,13.9-8.5,21.4-9c16.5-1,29.4,9,37,23.1c7,13,4.2,33.1-6,43.8
					c-5.3,5.5-11.7,8.5-18.2,12.3c-7,4.1-14,8-21.1,12c12.4,9.8,5.4,24.4,0.7,36.3c8.8-4.3,17.4-6.1,27.2-6.2
					c4.6,0,9.1,0.3,13.7,0.9c0.8,0.1,3.2,0.9,3.2,0.9c1.8-1.3,2.7-5.9,3.6-7.9c4.4-10.6,8.8-20.4,10.4-31.9
					c1.5-11.1,1.1-23.3-1.4-34.3c-4.6-20.6-12.8-41-24.9-58.3C103.1,81.9,87,68,70.2,58c1.5,2.5,3.4,4.7,4.9,7.3
					c1.4,2.6,2.3,5.6,5.1,7.1c1.2,0.6,15.8,6.4,13.2,8.9c-0.1,0.1-8.1-5.2-9.2-5.7c-4.1-1.8-8.1,1.7-8.5,5.8
					c-1.2,10.9,19.6,2.6,22.2,10.6c-2.4,0.4-5.3-1.4-7.7-2c-2.7-0.7-5.6-1-8.4-0.5c-3.3,0.6-10.4,3.6-12.3,6.7
					c-4,6.6,3.2,4.3,6.4,3.1c5.3-2,12.3-4.2,17.9-2.9c-0.1,1.3-12.5,3-14.6,3.7c-3.8,1.3-8,4-10.8,7c-4.1,4.5-7.2,8.9-10.3,14.2
					C56.5,124,53.7,131,55.6,134.2C55.7,134,55.5,134.1,55.6,134.2z M59,261.6c-3.1-2.5,14.4-19.4,16.5-21.7c2.9-3.1,4.1-9.1,5.6-13
					c2-5,2.5-9.3,2.3-14.7c-0.2-5.2-2.2-6.3-4.9-10.1c-1.8-2.6-11,6.2-12.3,7.5c-8.8,7.9-16.8,17.2-19.8,29
					c-1.3,5-1.4,10.1-0.8,15.2c0.4,3.5-0.5,7.9,3.3,8.4c5.8,0.7,11.5,3.8,16.3,7c2.5,1.7,4.9,3.6,7.1,5.6c1.5,1.4,2.3,4.6,4,5.4
					c2.6,1.3,8.6-4.9,10.5-6.2c4.9-3.2,10.1-6.1,14.2-10.3c8.2-8.3,16.6-18.2,23-28c-12.5-3.9-26.2-1.7-38.2,2.9
					c-5.3,2.1-9.5,3.4-13.7,7.5C67.2,250.7,63.5,256.5,59,261.6C58.9,261.4,59.6,261,59,261.6z M59.4,179.9
					c0.1-0.1,4.4,9.8,4.8,11.6c1.3,5.4,1.2,11.1,0.9,16.6c3.1-1.3,5.6-4.2,8.6-6c3.4-2,3-5.4,2.4-9c-0.4-2.6-1.4-8.7-3.8-10.3
					C69.2,180.7,63.1,180.7,59.4,179.9C59.2,180,61.2,180.3,59.4,179.9z M41.7,268c4.3,3.9,11.8,3.7,17,6.2
					c5.5,2.7,9.4,8.1,15.5,6.5c-1.9-6.6-10-10.5-15.6-13.5c-3-1.6-6.6-3.5-10.1-3.5C45.7,263.6,43.5,266.3,41.7,268
					C44.1,270.2,41.7,268,41.7,268z M79.2,198.4c5.3-2,7.2-4.5,6.3-10c-1.1-6.5-4.3-5.3-9.8-5.3C76.8,188.2,78,193.3,79.2,198.4
					C79.5,198.3,79.2,198.4,79.2,198.4z M87.5,193.6c1-0.5,6-2.1,6.1-3.3c0.4-2.7,0.7-5.7-1.5-7.8c-1.3-1.3-4.9,0.1-6.4,0.3
					C86.3,186.4,86.9,190,87.5,193.6C89.4,192.7,87.5,193.6,87.5,193.6z M95.4,189.2c1.5-0.8,6.1-2.2,6.3-4.4
					c0.1-1.1,0.8-4.9-0.7-5.6c-1.4-0.7-6.3,1.9-7.7,2.4 M119.6,169.7c3.8-4.2,6.3-6.9,2.8-12.3C118.9,162,117.8,164.3,119.6,169.7
					C120.7,168.5,119.6,169.7,119.6,169.7z M103.8,184.1c3.5-2.4,6.3-4.4,3.2-8.9c-1.4,1-2.9,1.9-4.3,2.9
					C103.1,180.1,103.5,182.1,103.8,184.1C104.8,183.5,103.8,184.1,103.8,184.1z M110.1,179.3c2.6-1.1,5.2-4.1,3.4-7
					c-1.5-2.4-3.5,0.8-5,2C109,175.9,109.6,177.6,110.1,179.3C114.3,177.5,110.1,179.3,110.1,179.3z M115.9,174.5
					c2.4-3.4,1.9-4.5,1-8.5C113.4,169.5,114.1,170.5,115.9,174.5C116.7,173.4,115.9,174.5,115.9,174.5z M125.2,158.5
					c-0.2-3.1,0.5-5.9-0.3-9C123.4,152.6,122.3,155.5,125.2,158.5z"/>
				<path fill="#FFFFFF" d="M59.7,238.6c0.2,3.7-1.8,7.3-3.4,10.5c-1.9,3.6-4.4-4-4-5.7c0.8-3.4,1.1-7.1,3.3-9.9
					C58.9,229.3,59.2,236.2,59.7,238.6C59.9,241.3,59.3,236.6,59.7,238.6z"/>
				<path fill="#FFFFFF" d="M78.3,263.9c0.5-3,5-4,7.3-4.9c0.2-0.1,9.9-4,8.3-1c-1.4,2.5-2.7,5.4-5.3,6.9
					C87,265.7,77.5,267.3,78.3,263.9C78.5,262.3,78,265.1,78.3,263.9z"/>
			</g>
		</g>
		<g>
			<path fill="#FFFFFF" d="M170.5,171.6c-2.1,0.7-4.6-0.1-6.3-1.4c-0.9-0.7-1.7-1.6-2.4-2.5c-0.6-0.9-0.7-2.8-1.6-3.3
				c-1-0.6-1,0.8-1.1,1.3c-0.3,1.2-0.9,2.2-1.7,3.1c-1.9,1.9-4,3.1-6.7,3.3c0.3-0.4,0.8-0.4,1.2-0.7c0.6-0.4,1.2-0.8,1.7-1.3
				c0.9-0.8,1.7-1.8,2.2-2.9c0.5-1.2,0-2.4-1.3-2.6c-0.3,0-3.8-0.4-2.1-1.3c0.9-0.5,2.7,0.5,3.4-0.2c0.8-0.7,0.5-2,0-2.9
				c-0.6-1.1-1.4-2-2.3-2.9c-0.4-0.3-3.2-2-3.1-2.2c2.4,0.3,4.8,1.6,6.7,3.2c0.8,0.7,1.4,1.5,1.9,2.4c0.3,0.5,0.5,2.5,1.2,2.4
				c0.9-0.1,0.6-1.4,0.8-2c0.3-1.1,0.9-2.2,1.6-3.1c1.5-1.7,4.5-3.5,6.8-2.7c-1,0.7-2,0.8-2.9,1.7c-0.9,0.9-1.8,2-2.2,3.2
				c-0.3,0.8-0.4,2.6,0.8,2.7c0.4,0,3-0.2,2.4,1c-0.5,0.8-2.2,0.1-2.9,0.7c-0.9,0.7-0.4,1.8-0.1,2.7c0.5,1.1,1.2,2.2,2.2,2.9
				C167.6,170.9,169.3,170.7,170.5,171.6C170.2,171.6,169.9,171.2,170.5,171.6z"/>
		</g>
	</g>
</g>
</svg>
