<?xml version="1.0" encoding="utf-8"?>
<!-- Generator: Adobe Illustrator 18.1.1, SVG Export Plug-In . SVG Version: 6.00 Build 0)  -->
<svg version="1.1" xmlns="http://www.w3.org/2000/svg" xmlns:xlink="http://www.w3.org/1999/xlink" x="0px" y="0px"
	 viewBox="0 0 320.8 335" enable-background="new 0 0 320.8 335" xml:space="preserve">
<g id="Layer_1">
</g>
<g id="Layer_2">
	<g>
		<path d="M91.8,155.9c-3.2,1.5-6.3,3-9.5,4.4c-0.5,0.2-4.6,0.9-2.8-1.1c4.2-4.7,4.2-12.9,4.8-18.8c-4.9,2.9-9.8,5.3-15,7.5
			c-3.6,1.5-10,5.9-13.8,4.8c2-3,6.2-4.6,8.8-7.2c2.6-2.7,4.7-5.8,6.6-9c3.9-6.5,9.4-15,9.6-22.8c0.3-8.3-1.1-16.3,0.7-24.5
			c1.8-8.1,4.3-15.4,8-22.8c6.7-13.6,19.3-24.1,34.4-27.3c8.4-1.8,17.1,0.7,24.8,3.9c2.7,1.1,7,4.5,10,4c3.5-0.6,6.6-3.1,10.1-4
			c18.2-4.6,32.4,5.4,42,19.9c4.9,7.4,8.6,14.5,9.8,23.5c0.6,4.1-0.2,8-1.2,11.9c-1.1,4.3-3.3,5.5-6.2,8.4
			c-5.4,5.3-5.5,14.4-1.3,20.5c2.7,4,14.5,12.2,12.1,17.7c-3,6.8-12.2,4.7-18.3,7.6c-2.3,1.1,10.5,11,1.1,13.3
			c2.8,4.7,1.9,4.8-1.4,8.5c-3.6,4.2-0.1,7.8-1.3,12.3c-1.1,3.9-4.9,7.7-8.9,7.7c-4.1,0.1-11.2-5.2-14.9-3.5
			c-2.6,1.2-2.3,7.6-1.7,9.9c1.2,4.8,5.8,6.4,10.2,7.2c10.2,1.9,20.7,1.4,30.9,3.4c9.3,1.8,19.5,6.9,26.1,13.7
			c7.9,8.1,9.5,16.3,11.2,27c1.6,9.7,6.2,19.4,13.1,26.4c3.4,3.4,6.6,6.9,10.4,9.9c3.2,2.5,10.7,4.6,12.6,7.9
			c-4.3,2-14.7-5.2-18.4-7.5c-6.3-4-13.3-10.2-21.1-10.6c-5.6-0.3-18,11.4-22.6,5.5c-3-3.8,7.6-11,7.6-15.7
			c0.1-5.5-17.3-1.2-19.8-0.3c-8.3,3.1-14.5,7.6-24,7c-7.5-0.4-16.2-3.7-22.2-8c-5.7-4.1-10.1-9.8-17.6-9.2
			c-7.4,0.6-14.3,3.1-21.8,3.6c-7.8,0.5-15.1-2.7-20.6-8.2c-5.3-5.2-8.4-12.2-12.8-18c-5.3-7-14.5-3-22.3-4.8
			c-7-1.6-15.9-3.6-21.5-8.3c-6.1-5.1-10.5-10.2-14.1-17.3c-3.7-7.2-6.2-16.1-7.4-24.1c-0.7-4.2-1.4-8.4-1.8-12.6
			c-0.3-2.8-1.3-9.3,0.5-11.5c2.5,2.6,2.3,9.3,3,12.8c1.1,5.4,3.2,10.8,5.3,15.9c4.1,10.2,11.7,19.1,22.2,23.1
			c21.6,8.3,48.3-8.8,46.6-32.6c-6.3,2.1-9.6,5.8-13.6,11c-4.6,6-5.3,11-5.9,18.1c-5.8-5.8-11.7-16.1-9.5-24.5
			C83.2,171.2,87.5,163.8,91.8,155.9C88.5,157.4,91.8,155.9,91.8,155.9z M129.3,157.5c-1.2-1.8,6.7-5.1,8.1-5.8
			c3.6-1.8,6.8-4.5,9.6-7.4c5.7-5.9,10.2-12.7,14.7-19.5c4.4-6.6,7.8-13.5,11.2-20.6c1.6-3.4,2.8-6.8,3.5-10.5c0.7-3.9,0-9,1.6-12.6
			c2.1,0.6,1.3,9.3,1.1,11c-0.6,5.7-2.3,10.4-4.7,15.6c-2.4,5.2-4.8,10.5-7.8,15.3c-2.3,3.8-7.8,8.9-8,13.6
			c12.2-4,21.4-15.7,28.2-25.9c3.9-5.9,7-11.9,10.4-18.1c1.7-3.2,2.9-6.6,3.7-10.2c0.7-3.2,1.7-7.5,2.1-10c1.4,3-0.3,7.1-0.9,10.3
			c-0.6,2.8-1.2,3.4,0.5,5.9c1.7,2.6,3.4,5.2,5.1,7.8c0.4-3.2-0.1-6.5-0.4-9.8c-0.1-0.9-3.1-10.5-0.4-7c0.6,0.8,6.2,7.8,6,2.7
			c-0.3-5.8-0.8-11.1-3.6-16.4c-4.4-8.5-12.8-16.7-21.9-19.8c-8-2.7-21.4-1.3-27,5.7c-0.5,0.7-1.4,3-2.4,3.2
			c-0.8,0.1-4.5-3.8-5.3-4.3c-4.1-2.9-8.8-6.1-13.7-7.5c-9.5-2.7-19.3-1.8-28.1,2.6C93.5,54.8,83.8,79.3,85,97.9
			c2.8,0.8,10.7-14.5,13.3-16.6c0.3,1.5-1.9,3.6-2.6,4.7c-1.4,2.2-2.2,4.5-3.2,6.9c-2.2,5.2-4.5,10-5.4,15.6
			c-1,5.7-3.5,12.3-0.7,17.3c2.7,4.7-2.6-0.6-2.8-2.3c0,0-1.1-5.7-1.8-5.9c-2.6,4.3-4.3,9.3-4.6,14.4c-0.3,5.4,6,3.1,9.1,1.4
			c4.1-2.3,7.9-4.8,11.2-8.2c1.8-1.9,3.7-3.8,5.4-5.9c2-2.6,3.3-6.1,5.8-8.2c-0.5,6.1-6.3,13.3-10.5,17.6c-5,5.2-11.7,7.6-12.8,15.2
			c-0.3,1.9-1.2,6.3,0.8,7.6c2.2,1.5,7.2-1.8,9.1-2.9c2.7-1.8,4.7-4.1,6.7-6.6c2-2.6,3.6-6.9,6-8.8c1.6,1.2-3.4,9.2-4.3,10.4
			c-2.7,3.6-5.2,6.7-8.5,9.8c-6,5.6-8.3,18.5-7.6,26.2c0.3,3.1,3.5,8.3,6.8,4.3c2.8-3.4,4.6-6.2,8.9-7.9c4.5-1.8,7.2-0.4,7-5.9
			c-0.2-5.6-0.7-9.5-2.4-14.7c2.8-1.9,6.9,10,7.4,11.5c1.9,6.8,0.9,13.1-0.4,19.8c-0.8,4.4-3.4,13.1-1,17.3c2.3,3.8,14.3-1.8,17-3.4
			c10-6.2,20.9-15.4,26.1-26.1c2.7-5.4,4.9-11,7.4-16.5c0.9-1.9,3.5-5.2,1.5-7.1c-1.8-1.7-2.6-6.6-3.5-8.9
			C151.9,149.8,142.2,155.3,129.3,157.5C129.2,157.4,131.4,157.2,129.3,157.5z M199.9,165.2c0.9-0.1,9.1-0.6,7.7-3.7
			c-0.6-1.4-2.6-1.9-3.8-2.7c-2.3-1.6-2.1-4.3-1.5-6.7c1.1-4.2,5.7-4.1,9.1-4.8c3-0.6,12.7-2.5,7.7-7.5c-6.3-6.4-17-13.1-14.8-23
			c1-4.1,3.3-9.7,2.5-14c-0.8-4.3-2.9-11.1-6.5-13.9c-3,5.4-4.7,11.6-7.5,17.1c-2.8,5.5-8.3,10.3-10.4,16
			c-2.6,7.2-5.6,14.5-5.4,22.3c0.1,3.4,0.8,6.6,1.8,9.8c1.2,3.6,3.8,6.2,5.1,9.6c-6,0-11.7-4.9-15.9-8.8c-1.9,8.5,0.4,16.5,1.5,24.9
			c0.3,2.6-0.3,4.4,2.3,5.5c1.7,0.7,3.5,1.2,5.4,1.6c4.5,1,9,1.9,13.5,2.7c4.3,0.8,5.8,0.6,9-2.5c2.8-2.7-0.2-5-0.1-7.9
			c0.1-3,2.5-6.1,4.8-7.9C208.8,168.1,200.4,167.3,199.9,165.2C200.3,165.2,200.2,166.4,199.9,165.2z M162.4,224.3
			c1.2-1.2-5.4-6.6-6.4-7.7c-3.4-3.3-5-7.1-5.3-11.8c-0.3-4.4,1.8-9.7,3.1-13.9c1.7-5.3,4.5-9.6,7.7-14.1c0.7,4.4-2.9,10-3.5,14.5
			c-0.4,3.2,1.6,12.5,6.6,8.5c3.8-3.1,3.3-13.4,3-17.8c-0.4-5.3-1.5-12.3-3.7-17.2c-12.5,24.2-29.7,45.4-52.5,60.8
			c5,3.5,8.9,7,12.5,12c1.8,2.6,3.4-3.3,3.4-4.4c-0.1-3.4-2-6.4-2-9.7c1.2-0.2,2.3,3.4,2.8,4.2c1.5,2.5,4.1,4.5,6.7,5.9
			c5.6,3,12.3,3.1,18.2,5.7c6.8,2.9,2.6-7.9,1.1-10.4c-3.4-5.6-7.5-9-12.8-12.7c1.5-1.2,8.5,3.2,10,4.1
			C154.9,222.3,158,224.8,162.4,224.3C162.6,224.2,159.6,224.6,162.4,224.3z M178.9,126.3c-5,2.5-9,9.2-13.5,12.8
			c-3.6,2.8,1.7,8.6,4.3,10.4c6.5,4.5,4.4-1.5,4.8-6.3C175,137.3,176.9,131.9,178.9,126.3C178.5,126.5,178.5,127.4,178.9,126.3z
			 M177.2,189.7c-4.9-1.7-8.2-3.7-6.5,3.2c1.3,5.1,2.7,8.4,6.1,12.3C175.9,200.1,175,194.7,177.2,189.7
			C177.2,189.7,177.1,189.9,177.2,189.7z"/>
		<g>
			<path d="M151.8,97.2c-6.3,0.4-11.2-2.8-13.5-8.7c-2.9,1.6-5.6,3.7-9,4.2c1.3-0.9,2.7-1.7,4-2.6c1.1-0.7,2.6-1.3,3.5-2.3
				c0.7-0.8,0.7-1.8,0.6-2.8c-0.2-1.9-0.3-3.8-0.4-5.7c-0.1-3.2-0.2-6.3-0.3-9.5c-0.1-2.6-0.7-5.8-4.2-5.1c-6.3,1.3-6,9.8-6.1,14.7
				c-0.1,3.2-0.3,6.3-0.7,9.5c-0.2,1.7-0.8,3-0.8,0.5c0-1.8-0.1-3.7-0.1-5.5c-0.1-3.2-0.2-6.4-0.5-9.7c-0.2-2.5-0.6-6.8-2.9-8.4
				c-2-1.4-4.5-0.1-6,1.4c-2.2,2.2-2.2,5.3-2.5,8.2c-0.3,3.1-0.5,6.3-0.8,9.4c-0.1,1.6-0.2,3.1-0.3,4.7c-0.9,0-0.5-0.9-0.5-1.7
				c0-1.1,0-2.2,0-3.3c-0.2-3.3-0.4-6.6-0.7-9.9c-0.1-1.5-0.1-3.3-0.6-4.7c-0.5-1.4-1.7-2.4-2.5-3.6c-1.2-1.7-0.4-4,1.8-3.9
				c2.6,0.1,2.9,3.1,3.7,5.1c2.2-2.9,3.9-5.5,7.9-5.8c4.3-0.3,4.4,3.7,4.7,6.9c1.7-2.7,3.2-6,6.7-6.9c3.2-0.8,5.2,0.4,6.2,3.4
				c1.8-1.2,3.4-2.7,5.7-2.4c2,0.2,3.5,1.3,4.3,3.1c2.1,4.6-0.3,9.7-2.7,13.6c-1.3,2.1-2.8,4-4.4,5.9c-0.6,0.7-1.7,1.5-1.5,2.6
				c0.2,1,0.7,2,1.2,2.8C143.6,94.6,147.7,96.8,151.8,97.2C145.3,97.6,151.1,97.2,151.8,97.2z M139.3,84.9c1.1,0.3,2.8-3.4,3.5-4.4
				c1.1-1.6,2.1-3.2,2.6-5.1c0.8-2.6,1.9-8.5-1.9-9.4c-1.2-0.3-2.9,0.4-3.8,1.3c-1,1-0.5,3-0.5,4.3C139.1,76,139.1,80.4,139.3,84.9
				C139.5,84.9,139.3,84.9,139.3,84.9z"/>
		</g>
	</g>
</g>
</svg>
