<?xml version="1.0" encoding="utf-8"?>
<!-- Generator: Adobe Illustrator 18.1.1, SVG Export Plug-In . SVG Version: 6.00 Build 0)  -->
<svg version="1.1" xmlns="http://www.w3.org/2000/svg" xmlns:xlink="http://www.w3.org/1999/xlink" x="0px" y="0px"
	 viewBox="0 0 320.8 335" enable-background="new 0 0 320.8 335" xml:space="preserve">
<g id="Layer_1">
</g>
<g id="Layer_2">
	<g>
		<g>
			<g>
				<path d="M161.9,298.4c5.7-9.9,11.4-18.5,13.5-29.9c0.6-2.9,1.7-13,5.2-5.2c2.3,5.3,2.2,10.9,3,16.3c3.3-5.3,2.9-9.8,4.4-15.5
					c4.4,3,3.9,9.4,10.7,9.7c5.4,0.3,10.5-2.8,12.3-7.8c-6.5,2.2-16,1-19-6.3c-1.2-2.9-1.2-6.1-1.8-9.2c-0.7-3.5-3.6-5.6-4.3-8.8
					c7.5,0.7,7.5,12.9,12,17.4c2.7,2.7,6.2,4.9,10.2,4.6c1.8-0.1,7.4-4.5,7.9-4.2c-1.8,7.5-8.5,17-16.8,17.1
					c-6.6,0-7.7-1.6-12.1,3.8c-1.9,2.4-5.4,8.8-8.8,8.9c0.1-4.1,4-7.2,3.3-11.5c-1.3-7.3-2.9-3.9-5,0.7
					c-4.2,9.3-10.6,17.3-14.7,26.5C161.9,303,161.9,300.7,161.9,298.4C162.7,297.1,161.9,300.7,161.9,298.4z"/>
				<path d="M227.4,190.7c3.9-1.3,6.6-9.6,8.1-12.9c3-6.7,5.6-13.8,6.4-21.1c0.3-2.2-1-14.5,1.1-14.3c4.5,0.4,5.7,12.9,5.5,16.1
					c-0.6,12.6-7.2,23.1-16.5,31.3c-1.9,1.7-5.4,2.3-5.5,5.1c-0.2,2.8,1.4,5.6,3.5,7.3c3.2,2.6,10.9,1.5,14-0.9
					c1.8-1.4,2.5-3.9,5.1-3.6c2.1,0.2,4.1,1,5.7,2.4c3.6,3.2,4,7.8,2.9,12.2c-3.4,13.3-14.5,18.1-27.1,18.6
					c-14.3,0.6-20.8-14.1-17.9-26.2c1.6-6.7,4.7-13.4,7.9-19.5c2.3-4.4,5.7-13,10.3-15.3c0.8,2.7-1.3,7.3-1.9,10.1
					C228.4,183.3,226.9,187.3,227.4,190.7C229.7,189.9,227.3,190.1,227.4,190.7z"/>
				<path d="M222,176.8c1.4,3.6-1.3,6.4-3,9.3c-2.7,4.4-5.4,8.7-7.7,13.3c-1.7,3.3-4.2,6.9-5.1,10.5c-1.1,4.1,1.2,8.7,2.6,12.4
					c2.6,6.9,2.5,16.1-5.4,19.6c-6,2.7-14.1-0.1-16.2-6.5c2.4,0.1,5,2,7.4,1.2c2.8-0.9,4.3-4.7,5.2-7.2c2.6-7.2,0.2-13.7,0.9-21
					c0.6-7,5.2-12,9.6-17C214.5,186.8,217.9,181.5,222,176.8C222.8,178.8,221,177.8,222,176.8z"/>
			</g>
			<g>
				<g>
					<path d="M238.7,137c-1.4-7-6.1-27.6-16.9-25.6c1.5,4.4,5.6,7.1,6.7,11.9c1.1,4.8,1.2,9.7,0.7,14.5
						c-1.1,10.7-5.6,18.5-12.1,26.7c-0.8-0.4,1.7-15.1,1.4-17.4c-0.5-4.1-1.5-12.4-6-14.1c-0.8,3.1,1.4,7.5,0.9,11.1
						c-0.6,4.9-2.3,10-3.5,14.7c-2.3,8.6-8.3,16.3-11.6,24.6c0-2.7-0.8-7.9,1-10.3c2.2-2.9,4.2-6,6.2-8.9c3.6-5.2,3.5-11.5-0.4-16.5
						c-3.5-4.4-3.8-9.8-7.1-14.4c-3.8-5.3-9.6-6.7-15.5-8.6c-0.1-1.7,9.4-3.6,10.9-4c3.7-1,4.8-1.8,6.7-5c0.5-0.9,3.9-2.4,3-3.5
						c-1.3-1.6-6.2,0.1-7.9,0.4c2.7-6.2,5.1-12.3,7.1-18.8c2.5-8.6-4.3,1.5-6.2,3.5c-7.8,8.4-21.7,18.9-33.8,18c0,0,0,0,0,0
						c-12.7,0.4-25.1-9.2-33.8-17.7c-1.5-1.5-9-12.6-6.4-3.8c2,6.6,4.4,12.9,7.3,19.1c-1.4-0.5-6.7-1.9-7.8-0.7
						c-0.9,1,2.8,3.6,3.5,4.9c2.6,4.9,11.9,5.3,16.8,7.2c-0.2,1.4-6.1,2.3-7.4,2.8c-2.8,1.1-5.3,2.9-7.2,5.2
						c-3.9,4.7-4.3,10.6-8.1,15.3c-4.4,5.5-3.4,12.2,0.4,17.8c1.8,2.6,5.5,6.1,6.2,9.2c0.6,2.9,0.3,6.4,0.4,9.3
						c-3.2-8.6-8.6-16.2-11.7-24.8c-1.8-5-2.8-10.1-3.6-15.3c-0.5-3.6,1.6-7.6,0.9-10.9c-4.5,1.3-6.1,11-6.2,14.9
						c-0.2,5.5,1,11.2,2,16.6c-3.4-1.6-6.4-8.2-8.2-11.3c-2.4-4.4-3.7-9.5-4.3-14.5c-0.7-5.3-0.6-11,0.7-16.2
						c1.1-4.4,5.2-7,6.6-11.2c-10.5-1.9-15.4,17.7-16.8,24.6c-2.6,13,3.4,23.9,11.8,33.3c7.6,8.5,21.3,13.8,24.8,25.4
						c0.6,1.9,1.8,12.7,3.8,11.4c2.5-1.7,0.9-13.3,1.1-16.3c2.3,8.1,6.3,15.2,9.6,22.9c3.2,7.4,2.5,15,2.3,22.9
						c-0.4,13.7,10.6,22.2,23,24c0,0,0,0,0,0c0,0,0.1,0,0.1,0c0,0,0.1,0,0.1,0c0,0,0,0,0,0c16-2.8,23.8-13,23-29.1
						c-0.4-9,0.5-14.9,4.6-23c2.9-5.8,5.8-11.4,7.2-17.8c0,2-0.7,17,2.3,16.5c1.2-0.2,2.5-11.5,3.4-13.5
						c4.4-10.2,16.5-14.6,23.6-22.4C234.3,161.4,241.3,149.6,238.7,137z M139.7,120.1c-4-2.9-7.6-5.5-9.9-9.9c-2.4-4.5-4-9.2-5.7-14
						c1-0.3,6.6,6.9,7.6,7.9c3.1,3.1,6.4,6.1,10.2,8.4c2.9,1.8,18.7,7.5,20,3.4c1.3,5,19.2-2.7,22.1-4.8
						c2.1-1.6,15.1-15.2,15.8-14.9c-3.5,10.1-6.7,17.6-15.4,24.2c-5.4,4.1-7.6,2.5-14,2c-2.2-0.2-4.9,0.4-6.9,1.5
						c-1.1,0.6-1.5,1.1-1.7,1.7c-0.3-1-1.1-1.6-3.1-2.4c-2.1-0.9-4.1-0.9-6.4-0.5C146.2,123.7,144.8,123.8,139.7,120.1z
						 M165.5,145.1c0.5,1.4,2.3,2.9,2.3,4.3c-1.9-0.1-3.8-0.3-5.7-0.4c0,0,0,0,0,0c0,0-0.1,0-0.1,0c0,0-0.1,0-0.1,0c0,0,0,0,0,0
						c-2,0.2-4,0.3-6,0.5c2.9-5.3,3.3-7.7,1.4-13.7c-1-3.2-1.7-5.8-5.2-6.9c-1.2-0.4-5.7-1.4-5.8-2.7c6.7-2.9,10.8-2.8,15.6,2.3
						c0,0.1,0,0.1,0,0.2c0,0,0.1-0.1,0.1-0.1c0,0,0.1,0.1,0.1,0.1c0-0.1,0-0.1,0-0.2c2-2.5,3.8-4.6,7.5-4.5c1.5,0.1,8.1,1.2,8.1,2.8
						c-6.6,2.4-9.8,3.7-11.7,10.8C165.3,140.1,164.6,142.7,165.5,145.1z M126.1,171.4c-6.3-7.2-10-17.8-1.7-25.4
						c0,4.5-0.9,9.7,1.9,13.5c3.7,5.1,1.5-4.2,1.8-6.3c1.6-10.3,6.9-15.1,15.5-20.2c-4-3.7-12.6,6-16.7,7c2.2-9,9-13.5,18.3-11.7
						c5,1,0.7,3.6,3.3,6.4c2.7,2.9,6.7-0.3,7.1,4.4c1,11.1-9.7,10.6-17.1,14.4C131.5,157,128.7,164.5,126.1,171.4z M183.3,205.6
						c-3.1,10.6-2.5,20.8-3.6,31.6c-2,0.2-1.2-6.2-3.1-6.3c-0.5,3.4-1.1,6.8-1.6,10.3c-1.5-0.3-4.3-8-5.1-9.5
						c-1.3,0.3-2.2,8.1-2.5,9.6c-1.5-1.9-3.2-7.4-5.3-8.6c0,0,0-0.1,0-0.1c0,0,0,0.1,0,0.1c0,0-0.1-0.1-0.1-0.1c0,0.1,0,0.2,0,0.3
						c-1.8,2.8-3.6,5.7-5.3,8.6c-0.3-1.5-1.2-9.5-2.5-9.8c-0.8,1.5-3.6,9.2-5.1,9.5c-0.2-1.4-0.9-10.2-2-10.3
						c-0.4,1.1-1.6,6.4-2.7,6.2c-0.8-10.3-0.4-20.3-3.2-30.4c-0.8-2.8-9.3-27.4-5.9-27.9c0.9,3.5,0.8,10.4,4.4,12
						c1.9-6.3,0.1-14.1,1.7-20.7c0.5,1.4,2.1,8.7,3.4,8.8c0.5-1.5,2.1-9.2,3.5-9.3c0.9,3.1,1.1,7.2,2.8,9.9c2.5-2.4,3-6.4,4.7-9.3
						c1.2,2.9,2.9,10,6.3,11.3c0,0,0,0.1,0,0.1c0,0,0.1,0,0.1,0c0,0,0,0,0.1,0c0,0,0,0,0-0.1c3.7-0.8,5.1-8.4,6.4-11.4
						c0.4,0.9,4.1,10.3,5,9.1c1.6-2.2,1.5-6.9,2.5-9.5c1.3,0.1,3,7.9,3.4,9.3c1.3-0.1,2.9-7.4,3.3-8.8c2.3,0.4,0.9,18.2,1.8,20.8
						c3.1-2.3,3.4-8.3,4.3-12C191.9,179.4,184.1,203,183.3,205.6z M181.9,152.2c-3.8-1.4-7.4-2.8-11-4.8c-2.3-1.3-4.4-8.7-2.2-10.7
						c1.3-1.2,10-0.6,7.8-5.4c-1.4-3.2,2.4-3.2,5.2-3.5c3.9-0.3,7.6,0.5,10.6,3.2c1.1,1,6.2,7.9,4.3,8.8c-0.6-0.3-0.8-0.5-0.8-0.5
						c-3.8-2.6-11.8-9.3-15.4-6.5c4.5,4,9.9,5.9,13,11.6c1.6,3.1,2.8,6.9,2.9,10.4c0,2.3-1.1,4-0.6,6.3c5.2-3.1,3.9-10.1,3.9-15.2
						c8.6,6.8,4.6,18.7-1.7,25.2C194.7,162.7,191,155.6,181.9,152.2z"/>
					<path d="M195.8,139.4c0.3,0.2,0.5,0.4,0.8,0.5C196.7,139.9,195.8,139.4,195.8,139.4z"/>
					<path d="M126.1,171.4C126.8,169.5,122.5,167.3,126.1,171.4L126.1,171.4z"/>
				</g>
				<path d="M268.6,160.1c-5.2-2.8-7.8-8-5.5-13.6c2.1-5.1,5.3-9.6,9.1-13.5c2.6-2.7,8-5.7,8.9-9.3c-1.8,0.2-2.7,1.3-4.3,2.2
					c-2.4,1.4-5.2,1.5-7.9,1.9c-5,0.7-12.9,1.8-17.2-1.8c-4.2-3.6-0.7-11.8,0.8-15.9c1.1-3.1,2.3-6,4-8.8c1.3-2.1,3.6-4.7,4.1-7.1
					c-3.7,3.1-7,6.7-11.4,8.7c1.1-7.2,6.8-14,9.4-21c1.8-4.7,7.6-15.9,5.3-20.6c-4.6,2.6-7.3,8.3-12.3,10.9
					c-4.6,2.5-9.3,4.4-14.2,6.3c-4,1.5-11.1,4.7-15.2,2c-3.7-2.4-1.4-7.2-1.2-10.7c0.4-6.4,1-12.9-0.6-19.1
					c-0.9-3.4-3.2-11.8-5.4-4.8c-2.8,8.9-9.1,19.8-17.9,24.1c-1.2-2.8-0.4-6.6-0.5-9.6c-0.1-3.7-0.2-7.4-0.7-11
					c-0.3-2.2-4.5-14.4-7.3-13.8c-1.7,9.9-2.3,18.1-7.5,27c-3.9,6.7-10.1,18.2-19.1,17.9c-9.5,0.2-15.7-12.8-19.8-19.9
					c-2.4-4.2-3.7-8.4-5.2-13c-1.3-4.1-0.5-8.4-1.7-12.4c-4,3.8-6.5,10.2-7.3,15.6c-0.9,5.8,1.3,13.9-1,19.1
					c-6.7-3.3-12.6-11.5-15.7-18.1c-2.4-5-3.4-14-6.8-4c-2.9,8.3-1.5,17.3-0.5,25.8c1.1,10.1-7.7,7.8-14.3,5.9
					c-6-1.8-13.4-4.3-18.4-8.1c-3.1-2.4-6.3-4.8-8.7-8c-0.3-0.4-2.5-3.7-2.8-1c-0.4,3.7,2.4,9.2,3.5,12.8c1,3.4,2,6.8,3.5,10
					c2.7,5.8,7.2,11.3,8.2,17.6c-4.6-2-7.8-5.7-11.4-9c-0.3,2.1,2.7,5.7,3.9,7.4c1.7,2.4,2.8,5,3.7,7.8c1.5,4.3,5.6,13.5,0.9,17.2
					c-4.3,3.3-12.1,2.4-17.1,1.9c-2.6-0.3-5.1-0.7-7.5-1.9c-1.7-0.9-2.7-2.3-4.6-2.3c0.2,3,5.5,5.8,7.6,7.9c2.5,2.5,4.8,5.2,6.7,8.3
					c3,4.9,7,11.2,2.7,16.6c-3.6,4.6-12.3,7.5-17.2,3.2c-1.8-1.6,1,6.7,1.1,7c1.3,4.1,2.6,8.2,4.1,12.2c2.8,7.4,9.7,12.5,17.7,12
					c3.4-0.2,6.6-1.6,9.1-4c0.7-0.7,7.5-7.1,6.9-7.8c-1.5-1.9-9.3,0.1-11.8-0.4c-3.1-0.6-6.1-1.9-9.1-2.9
					c-5.7-1.9-12.4-6.7-14.5-12.6c8-0.5,19.5-3.1,21.5-12.6c1-4.8-2.9-8.5-6.2-11.1c-3.6-2.8-6.5-6.4-9.7-9.7
					c10.2,2.7,20.9,2.8,30.7-1.6c-4.7-7.3-6.8-15.9-10.7-23.7c3.2,1.9,14,7.5,17.4,4.5c-0.4,0.4-9.5-9-10.3-10
					c-7.7-9.6-13.7-20.5-16.1-32.7c7.8,6.1,15.8,12.3,25.2,16c4.9,1.9,10.1,3.1,15.3,4.3c1.4,0.3,9,3.1,9.8,2.4
					c-5.4-12.4-5.7-26.1-5.5-39.4c2.4,3.2,3.8,7.3,6.1,10.6c2.6,3.6,5.2,7.2,8,10.7c2.4,3.1,13.2,17.1,17.9,14.8
					c-7.2-11.4-8.2-28.6-6.4-41.8c3.7,9.1,6.8,18.3,12.2,26.5c4.3,6.5,8.4,14.9,17.4,14.7c2.2,0.1,5-1.4,6.3-2.3
					c3.9-2.6,6.5-7.2,8.8-11.2c5.3-9,9.4-17.8,13-27.5c1.5,7.6,0.6,16.8-0.4,24.4c-0.5,3.9-1.4,7.7-2.6,11.4c-0.5,1.4-3.7,5.3-3,6.3
					c7.4-3.1,13.5-10.1,18.3-16.5c5-6.7,9.7-12.7,13.2-20.3c0.3,13.5-0.1,27.2-5.6,39.8c8.7-3.2,18.1-3.9,26.6-7.7
					c8.8-4,16.4-9.3,23.8-15.5c0,8.2-5.2,17.5-9.8,24c-2.6,3.7-5.2,7.4-8.1,10.9c-2.4,3-6.2,4.7-8.4,7.8c5.2,1.9,12.9-1.9,17.4-4.4
					c-3.9,7.7-5.9,16.3-10.7,23.5c9.8,4.3,20.5,4.3,30.7,1.6c-3.8,3.2-6.8,7.2-10.6,10.4c-3.1,2.6-6.2,6.2-5.3,10.5
					c1.9,9.5,13.6,11.8,21.5,12.5c-2.9,5.9-8.5,10.5-14.7,12.5c-3.7,1.2-7,2.9-10.9,3.2c-3.2,0.3-6.9-1-9.9,0.1
					c5.5,9.6,17.3,15.8,27.2,8.6c3.9-2.8,5.9-7,7.5-11.4c1.7-4.9,5.2-11.5,5.1-16.7C277.5,160.9,273.5,162.7,268.6,160.1z"/>
				<path d="M162.1,305.3c-1.9-2.7-2.3-6.3-4.4-9.2c-3.3-4.6-6.5-9.2-9-14.3c-0.6-1.3-3.7-9.9-5.1-7.9c-4,5.9,2.1,10.1,1.9,15.7
					c-3.7-0.8-7-6.7-9.3-9.5c-0.9-1.1-1.9-3.4-3.3-3.9c-2.2-0.8-6,0.8-8.5,0.6c-9.1-1-13.7-9.6-16.6-17.4c3.1,1.6,5.1,4.9,9,4.7
					c3.5-0.2,7.6-2.7,9.8-5.4c3.7-4.5,4.4-16.2,11.4-16.8c-0.5,2.7-3.1,4.6-4,7.4c-1.1,3.6-0.7,7.5-2.3,11c-1.5,3.3-3.4,5.7-8.6,6.5
					c-2.8,0.4-10.5-0.6-10.5-0.6c3.2,4.4,7.1,8.4,13.1,7.7c6.9-0.9,5.7-7.3,10.3-9.6c0.7,2.4,0.1,4.8,0.7,7.3
					c0.7,2.9,2.1,5.6,3.4,8.3c0.1,0,1.8-12.2,2.4-13.8c0.8-2.1,1.5-4.5,3.7-5.6c1.4-0.7,2.1,6.6,2.3,7.4c1.6,7,3.3,12.8,7,19
					c1.7,2.9,3.5,5.8,5.2,8.8C162.5,298.7,162.1,301.7,162.1,305.3C161.8,304.9,162.1,303,162.1,305.3z"/>
				<path d="M96.8,190.6c-0.3-3.9-1.1-7.5-2-11.3c-0.7-2.8-2.4-6.6-1.9-9.4c3.9,2.2,7.2,9.4,9.3,13.2c3.1,5.6,5.9,11.8,7.9,18
					c3.8,11.6,1.7,23.3-10.2,28.6c-10.9,4.9-24-1.7-30.5-10.3C66,215,64,207.6,67,202.6c2.5-4.2,7.7-6.9,11.2-2.9
					c2.8,3.2,8,4.3,12.1,3.7c5-0.8,10.4-8.4,4.7-11.4c-10.5-5.6-18.3-19.5-19.6-31c-0.7-6.2,1.2-11.3,3.5-17c0.7-1.7,3.6-2.5,3.4,0
					c-0.3,3.6-0.8,7.1-0.6,10.8c0.5,6.9,2.6,13.1,5.2,19.5C88.1,176.6,93.5,191.6,96.8,190.6C96.7,189.2,96.6,190.6,96.8,190.6z"/>
				<path d="M102.2,177c4.4,4.8,8,10.3,12.5,15.2c4.7,5,8.6,10.8,8.7,17.9c0.1,6.9-1.5,12.9,1,19.6c1.1,2.9,2.4,6.3,5.9,7
					c2.4,0.5,4.2-1,6.5-1.3c-2.3,6.6-11.5,9.8-17.4,5.7c-8.3-5.8-5.6-14.5-3-22.5c2.8-8.5-0.6-14.2-4.8-21.8
					C110.3,194.3,98.7,178.8,102.2,177C102.9,177.8,102,177.1,102.2,177z"/>
			</g>
		</g>
		<g>
			<path d="M178.6,212c-0.6,4.9-4.5,15.3-11.3,12c-7.5-3.6-1.7-13.5,0.2-18.6c2-5.3,3.6-13.5-4.1-14.5c-3.6-0.5-5.9,1.7-7.6,4.6
				c-0.8,1.3-1.7,2.9-1.6,4.5c0.1,1.9,1.6,2.9,2.3,4.4c2.9,5.8-4,11-9.2,7.9c-2.3-1.4-3.1-4.5-2-6.9c1.4-3,4.1-2.7,6.5-4.1
				c1.6-0.9,0.4-4.3,0.6-5.8c0.5-3.1,2.7-5.6,5.5-6.9c5.6-2.8,14.1-0.7,15.1,6.3c0.9,6.8-4.8,12.7-5.9,19.1
				c-0.5,3.1,2.4,5.7,5.5,4.8C175.6,217.9,177.4,214.5,178.6,212C178.2,215.4,178.2,212.9,178.6,212z M148.1,207.8
				c0,4.1,6,5.2,6,0.5C154.1,203.7,148,202.8,148.1,207.8z"/>
		</g>
	</g>
</g>
</svg>
