<?xml version="1.0" encoding="utf-8"?>
<!-- Generator: Adobe Illustrator 18.1.1, SVG Export Plug-In . SVG Version: 6.00 Build 0)  -->
<svg version="1.1" xmlns="http://www.w3.org/2000/svg" xmlns:xlink="http://www.w3.org/1999/xlink" x="0px" y="0px"
	 viewBox="0 0 320.8 335" enable-background="new 0 0 320.8 335" xml:space="preserve">
<g id="Layer_1">
</g>
<g id="Layer_2">
	<g>
		<g>
			<g>
				<path d="M156.4,49.3c14.4,0.9,28.7,1.1,42.3,6.5c13.4,5.2,25.7,11.4,37.6,19.4c11.3,7.6,22.7,16.3,31,27.3
					c7.9,10.5,6.8,26.5-2.3,36.2c-3.4-6.9-8.8-12.4-14.7-17.3c0,7.2-1.7,15.1-0.9,22.2c0.8,7.3,6.3,12,11.1,16.9
					c4.1,4.2,10.2,11.1,2.2,15.3c-3,1.6-6.9,1.2-10.2,1.4c-3.4,0.2-4.7,0.8-7.5,2.9c2.2,2.6,5.2,4.6,7.1,7.3c2.9,4-3.5,6.5-0.9,9.9
					c4.2,5.4-6,8.8-6.1,13.8c-0.1,6.1,3.6,13.6-4.1,16.8c-3.8,1.6-7.7-0.2-11.4-1.2c-4.7-1.2-9.5-2.3-14.2-3.3
					c2.9,4.9,5.9,9.8,8.8,14.7c-2,1.3-9.6-7.6-11-9.3c-7.1-8-12.5-17.2-18.5-26.1c-5.2,7-3.9,19.4-2.3,27.4
					c1.8,9.3,5.6,19,11.4,26.5c4.6,5.9,14.9,12.8,22.7,9.1c3.9-1.8,6.3-5.9,8-9.7c0.9-2.1,1.4-9.5,3.4-10c0.5,9.5,1.3,18.4-4.9,26.5
					c-6.3,8.1-16.3,12.4-26.4,13.1c-9.7,0.7-19.8-1-27.5-7.3c-7.4-6.1-13.2-14.4-16.7-23.2c-8.3-20.7-6.6-44.8-6.6-66.6
					c0-24.1,0-47.9,0-71.9c12.5-0.3,20.7-9.1,20-20.3c-0.7-10.3-14.6-20.2-19.4-19.6C156.4,67.6,156.4,58.4,156.4,49.3
					C163.5,49.7,156.4,58.4,156.4,49.3z M229.3,176.6c-0.2,2.4-13.7-2.7-15.3-3.4c-0.8-0.4-4.9-3-5.7-1.3c-1.4,3-0.6,8.5-0.8,11.7
					c-0.5,10.8-1,29.7,9.5,36.1c5,3.1,10.6,5,16.4,5.8c5.1,0.7,12.8-1,11-8.2c-0.7-2.7-2.4-4.5-1.7-7.4c0.8-3.4,3.6-4.5,5.5-7.1
					c5-6.8-4.4-3.9-6.1-7.8c2.6-0.6,8-1.5,8.2-5.1c0.2-4-6-4.8-7-8.6c-2.8-10.2,13.8-6,18.5-8.1c8.2-3.6-9.6-17.1-11.9-19.9
					c-7.1-8.5-0.2-17.6-0.8-27.2c-0.2-3.3-1.3-6.5-3.4-9.2c-1.2-1.6-2.7-3-4.3-4.2c-2.2-1.7-3.9,1.6-5.7,3.3
					c-3.6,3.6-6.8,7.5-10.6,10.9c-3.5,3.1-7.6,5.5-11.1,8.6c-6.4,5.8-5.9,15.5-2.8,22.9C214.8,167,221.6,171.9,229.3,176.6
					C229.3,176.7,226.7,175,229.3,176.6z M261.1,122.5c6.7,2.9,2.9-14.6,1.9-17c-5.9-13.9-21.1-25.8-36.6-25.5
					c-8,0.2-16.2,4.1-23.6,6.8c-3.3,1.2-20.4,5.9-20.2,9.8c0.2,3.1,2.1,6.5,2.8,9.6c1.1,4.6,1.5,9.4,1.2,14.1
					c-0.6,8.7-4.1,16.4-7.3,24.3c12.5-3.6,20.4-11.4,27.2-22.2c3.9-6.1,6.4-12.4,8.7-19.3c1-3.1,2.1-6.3,3.1-9.4
					c0.4-1.1,0.5-2.3,1.8-1.9c-0.4,2-0.8,3.9-1.3,5.9c-1.5,7-3.5,14.1-4,21.3c-0.5,7.6,8.8,2.7,11.9,0.7c5.7-3.6,10.1-9.1,13.8-14.6
					c0.7-1.1,3.2-6,4.7-4.7c-0.3,3.9-2.7,7.3-4.4,10.7"/>
			</g>
			<g>
				<path d="M156.3,76.7c-4.4-0.3-16.4,7.7-19.3,17.8c0,0-1,2.9-0.3,7.9c0.4,2.9,2,5.5,4,7.6c3.9,4.2,8.4,6.2,15.6,6.6
					c0,24.1,0,48.1,0,72.2c0,21.8,2.2,45.7-6.1,66.4c-3.4,8.4-8.7,16.2-15.5,22.2c-8,7.1-18.4,9-28.8,8.3c-9.6-0.7-19-4.5-25.4-11.9
					c-7.1-8.2-6.5-17.6-5.9-27.7c2.1,0.4,2.1,6.5,2.8,8.4c1.4,3.9,3.7,8.2,7.3,10.5c7.3,4.8,18-1.5,23-7.2
					c6.1-7.1,10.1-16.8,12.1-25.9c1.9-8.4,3.6-21.8-1.9-29.2c-5.6,8.4-10.8,17.1-17.3,24.8c-3.5,4.1-7.3,7.8-11.6,11
					c-1.1-0.7,7.1-13.2,8.3-15.1c-4.1,0.8-8.2,1.8-12.3,2.8c-3.7,0.9-8.2,3.1-12.1,2.1c-8.2-2-6.1-9.8-5.5-15.9
					c0.6-6.2-8.7-7.9-6.6-14c0.4-1.3,1.8-2.2,1.2-3.6c-0.9-2.1-2.9-3.2-2.3-5.8c0.8-3.3,5.7-6.3,7.9-8.9c-2.8-2-4-2.7-7.5-2.9
					c-3.3-0.2-7.2,0.2-10.2-1.4c-8-4.2-1.9-11.1,2.2-15.3c4.8-4.9,10.3-9.6,11.1-16.9c0.8-7.1-0.9-15-0.9-22.2
					c-5.9,4.9-11.2,10.4-14.7,17.3c-8.4-8.8-10.4-24.5-3.4-34.6C52.1,92.9,63.5,84,74.7,76.4c12-8.2,24.2-14.3,37.5-19.9
					c14.2-5.9,29-6.2,44.1-7.2C156.3,58.4,156.3,67.6,156.3,76.7C155.9,75.8,156.3,67.6,156.3,76.7z M91.2,171.7
					c5.9-5,10.7-11.4,12.1-19.1c1.7-9.1-1.2-14.9-8.4-20.2c-7.8-5.7-13.8-12.6-20.7-19.3c-5.4-5.3-10.8,11.9-10.4,16
					c0.9,9.4,5.7,17.6-2,25.4c-2.4,2.5-20.1,16.8-9.6,19c4.8,1,19.9-1.8,17.3,7.7c-1,3.7-5.7,4-6.8,7.3c-1.6,4.4,5.2,5.9,8,6.5
					c-1.6,3.7-9.9,0.8-6.8,6.7c2.6,5.1,9,7.2,5.1,14.1c-2.6,4.6,1.8,10.5,6.8,10.1c6.4-0.5,12.8-2.2,18.5-5.3
					c11.2-6.3,11.6-23.4,11.1-34.9c-0.1-2.5,0.9-15.7-3-14.1c-6.2,2.6-12,5.3-18.8,5.3C83.4,175.9,90.1,172.7,91.2,171.7z
					 M67.5,100.4c1.4-1.2,8.8,10.4,10.3,12c4.2,4.7,9.1,8.5,15.1,10.5c6.6,2.2,5-5.9,4.3-9.6c-1.2-6.5-2.7-12.9-4.1-19.4
					c-1.1-5.2,1.6,0.5,2,1.8c1,3.1,2.1,6.3,3.1,9.4c2,6.2,4.5,11.9,8.1,17.4c6.9,10.8,14.7,18.6,27.2,22.2
					c-3.2-7.9-6.7-15.7-7.3-24.3c-0.3-4.7,0.1-9.5,1.2-14.1c0.6-2.6,3.7-8,2.7-10.6c-0.9-2.3-6.8-3.5-8.8-4.4
					c-4.4-1.8-8.8-3.5-13.2-5.1c-8.7-3.2-17.8-7.4-27.3-5.6c-15.1,2.8-30.5,16-32.9,31.6c-0.4,2.7-0.7,7.2,0.8,9.7
					c1.7,2.8,8.3-1.6,10.2-2.5c4.2-1.9,7.9-4.2,11.6-7.1c2.4-1.8,0.9-2.4-0.4-4.8C68.8,105.3,67.7,103,67.5,100.4
					C67.7,100.3,67.8,104.2,67.5,100.4z"/>
			</g>
		</g>
		<g>
			<path d="M145.6,110c0,0,0-0.1,0-0.1C145.6,109.9,145.6,110,145.6,110z"/>
			<path d="M145.6,109.9C145.6,109.9,145.7,109.9,145.6,109.9C145.7,109.9,145.6,109.9,145.6,109.9z"/>
			<path d="M145.6,110.1C145.6,110.1,145.6,110.1,145.6,110.1C145.6,110.1,145.6,110.1,145.6,110.1z"/>
			<path d="M145.6,110.2C145.6,110.2,145.6,110.2,145.6,110.2C145.6,110.2,145.6,110.2,145.6,110.2z"/>
			<path d="M145.6,110.2C145.6,110.2,145.6,110.2,145.6,110.2C145.6,110.2,145.6,110.2,145.6,110.2z"/>
			<path d="M145.6,110.2C145.6,110.2,145.6,110.1,145.6,110.2C145.6,110.1,145.6,110.1,145.6,110.2z"/>
			<path d="M145.7,109.9C145.7,109.9,145.7,109.9,145.7,109.9C145.7,109.9,145.7,109.9,145.7,109.9z"/>
			<path d="M145.6,110.2C145.6,110.2,145.6,110.2,145.6,110.2C145.6,110.2,145.6,110.2,145.6,110.2z"/>
			<path d="M145.7,109.6C145.7,109.6,145.7,109.6,145.7,109.6L145.7,109.6z"/>
			<path d="M145.7,109.8C145.7,109.8,145.7,109.8,145.7,109.8C145.7,109.8,145.7,109.8,145.7,109.8z"/>
			<path d="M145.7,109.6C145.7,109.6,145.7,109.6,145.7,109.6C145.7,109.6,145.7,109.6,145.7,109.6z"/>
			<path d="M160,99.7c0.1-2.4,0.2-4.9,1.8-6.7c1.8-2.1,4-3.5,5.7-5.7c-3,2.9-6.8,4.6-11.1,4.5c-4.1,0-8-2-11.2-4.4
				c0.7,1.1,2.9,2.7,2.9,2.7c0.9,0.7,1.6,1.3,2.5,2c2.1,1.8,2.1,4,2.2,6.5c0,2.6-0.3,4.6-2.6,6.2c-1.8,1.3-4.2,3.1-4.6,5.5
				c3.1-2.8,7-5,11.3-4.8c4.2,0.1,8,2.2,11.1,4.8C165.6,103.3,159.7,106.6,160,99.7z M156.4,103c-1.2,0-2.2-2.1-2.2-4.6
				c0-2.5,1-4.6,2.2-4.6s2.2,2.1,2.2,4.6C158.6,100.9,157.6,103,156.4,103z"/>
			<path d="M145.7,109.8C145.7,109.8,145.7,109.8,145.7,109.8C145.7,109.8,145.7,109.8,145.7,109.8z"/>
			<path d="M145.7,109.7C145.7,109.6,145.7,109.6,145.7,109.7C145.7,109.6,145.7,109.6,145.7,109.7z"/>
			<path d="M145.7,109.8c0,0,0-0.1,0-0.1C145.7,109.7,145.7,109.7,145.7,109.8z"/>
		</g>
	</g>
</g>
</svg>
