<?xml version="1.0" encoding="utf-8"?>
<!-- Generator: Adobe Illustrator 18.1.1, SVG Export Plug-In . SVG Version: 6.00 Build 0)  -->
<svg version="1.1" xmlns="http://www.w3.org/2000/svg" xmlns:xlink="http://www.w3.org/1999/xlink" x="0px" y="0px"
	 viewBox="0 0 320.8 335" enable-background="new 0 0 320.8 335" xml:space="preserve">
<g id="Layer_1">
</g>
<g id="Layer_2">
	<g>
		<g>
			<g>
				<g>
					<path d="M268,95.9c-0.2,0.2-0.4,1.9-0.5,3.6C267.8,98.3,267.9,97.1,268,95.9z"/>
					<g>
						<path d="M287.3,168.9c-0.3-4.6-3.4-8.7-5.6-12.7c-2.6-4.6-5.1-9.2-7.8-13.7c-2.6-4.4-5-8.9-7.4-13.5c-1.6-3-8-11.5-5.6-14
							c6.1-6.3,9.9-15.9,9.9-24.7c-5.3,4.1-10.5,16.7-18.5,13.6c-2.4-0.9-3.4,1.2-5.3,1.9c-1.4,0.5-3.3-0.5-4.6-1
							c-3.5-1.5-6.2-4.2-8.8-7c-5.4-5.8-12.4-11.1-20.9-8.9c-7.9,2.1-10.9,10.8-18.4,13.4c-6.5,2.3-16.5-1.4-18.4-8.6
							c-2.6-9.8,3.4-12.5,9.9-18.3c14.1-12.4-3-33.5-19.3-32.5c0,0-0.1,0-0.1,0c-2.9-0.1-10.1,2-11.7,2.7c-3.5,1.6-7,4.6-9.1,7.8
							c-4.3,6.7-7.1,14.4,1.4,22.3c6.3,5.9,12.5,8.5,9.9,18.3c-1.9,7.1-11.9,10.9-18.4,8.6c-7.9-2.8-11-12.4-19.9-13.7
							c-8.9-1.4-15,4.7-20.6,10.6c-3.1,3.3-6.5,5.6-10.9,6.8c-3.2,0.8-4.2-4.1-8-1.2c-4.1,3.1-14.3-12.4-17-14.5
							c0,9.8,4.5,18.9,11.1,26c-5,9.4-10,18.9-15.3,28.1c-4.1,7.1-12.8,17.5-12.2,26c0.6,9,10.7,12,18.4,14.3
							c10.3,3.1,22.2,4.9,32.8,2.1c8.1-2.1,20.8-4.5,26.3-11.6c5.3-6.8-5.7-18.1-8.9-23.7c-5.4-9.3-11.7-18.1-17.5-27.1
							c7.5-2.4,14.9-7.4,22.7-8.5c8-1.1,15.6-0.1,23.1,2.8c6.2,2.4,9.5,7.9,9.9,14.4c0.5,8.7-7,11.8-11.6,17.3
							c9.7,3.6,12.2,13.5,13.1,23.3c1,10.4,1.4,20.9,1.3,31.4c-0.1,5.4-0.2,10.7-0.2,16.1c-0.1,5,0.5,10.4-2.6,14.7
							c-2.3,3.2-6.3,5.1-10.1,3.2c-4.9-2.5-3.9-6.7-4.8-11.2c-8.2,4.9-0.3,19.5,5.4,22.8c2.8,1.6,0.6,2.5-0.5,5
							c-0.7,1.6-1.1,3.4-1.1,5.2c-0.1,4,1.1,8.3,3.6,11.5c2.8,3.6,6.8,6.7,2.2,10.8c-3.6,3.2-9.1,5.1-13.6,6.4
							c-5.4,1.6-11,1.7-16.5,2.3c-4.2,0.5-10.7,0.7-14.3,3l127.3-0.7c-4.1-2.6-11.4-2.4-16.1-2.9c-5.6-0.6-11-0.9-16.4-2.8
							c-4.2-1.4-10-3.4-12.7-7.2c-2.9-4.1,2.5-7.4,4.5-10.6c2.1-3.5,3.1-7.9,2.5-11.9c-0.3-2.4-1.4-4.1-2.5-6.2
							c-1.2-2.2,0.9-2,2.6-3.2c5.1-3.6,11.2-17.4,3.8-21.8c-1.1,4.9-0.2,10.2-6.5,11.8c-4.2,1.1-7.7-2.1-9.5-5.5
							c-2.3-4.6-1.5-10.4-1.6-15.4c-0.1-5.3-0.2-10.6-0.2-16c-0.1-10.5,0.2-21.1,1.5-31.5c1.1-9.1,3.9-17.6,12.8-20.9
							c-2.5-3-6-4.7-8.4-8c-2.4-3.3-3.6-6.9-3.1-11c0.8-5.9,4.2-10.6,9.8-12.8c7.8-3,16.7-4.4,25-2.4c7.1,1.7,13.7,5.8,20.7,8.1
							c-6.2,9.7-12.8,19.1-18.6,29c-3.5,6-13.9,16.4-6.6,23.1c6.7,6.2,18.6,9.1,27.3,10.8c10,2,21,0.3,30.7-2.6
							C276.9,182.2,288,178.9,287.3,168.9z M88.2,120.6c-12.7-0.5-22.5-11.9-23.3-24.4c4.9,4.2,8,8.1,14,10.9
							c5.7,2.6,9.7,7.4,12,13.4 M120.5,168.4c-2.8,0.5-5.7,1.1-8.5,1.5c-6.2,0.9-12.6,1.1-18.9,1.2c-10.7,0.2-21.3,0.4-32-0.1
							c-4.3-0.2-8.4-1.7-12.4-3.3c0.3-3.6,30.8-3,34.4-3.1c11.4-0.1,22.5-0.1,33.9,1.5C117.9,166.4,121.1,166.5,120.5,168.4z
							 M102.1,137.3c5.5,9.1,12.1,17.9,16.8,27.4c-23.2-2.1-46.6-2.1-69.8,0.4c6-8.3,10-18,15.2-26.8c2.8-4.7,5.4-9.4,8-14.2
							c2.4-4.5,2.9-5.8,7.8-3.9c4.2,1.6,8.8,2.5,12.9,4.3C96.9,126,100,133.9,102.1,137.3z M122,113c-4.9-0.2-8.8-0.4-13.5,1.5
							c-3.8,1.6-7.5,3.6-11.3,5.2c-4.3,1.8-4.8-1.8-6.9-5.2c-2.8-4.5-3.2-4.6,1.6-7c4.1-2.1,8.1-2.2,12.6-2.1
							c9.2,0.3,17.7,3.5,26.3,6.6c1.5,0.5,2.9,1.4,4.3,2.1C134.8,114.7,123.4,113.1,122,113z M172.2,274.7c-1.5,3.1-3.5,5.5-5.6,8.2
							c0,0,0,0.1,0,0.1c-0.5-0.5-1.1-1-1.4-1.4c-2.2-2.6-3.8-5.3-5.2-8.5c-3-6.8-4-13.8-2-21c2-7.2,5.4-13.8,7.3-21.2
							c0.7-3,1.1-6.1,1.2-9.2c0.4,3.8,0.9,7.6,1.9,11.2c1.9,7.2,5.6,13.8,7.2,21.1C177.1,261.2,175.3,268.3,172.2,274.7z M172,141
							c-1,3.5-1.7,7-2.6,10.4c-0.8,2.9-2.4,6.8-2.9,7.9c-2.7-6.5-4.1-13.4-6.1-20.1c-3.9-12.5-11.7-24.9-5-37.6
							c3.1-5.9,9-9.7,4.3-16.8c-3.8-5.7-10.4-8.4-13-15.1c-2.3-5.9-1-13.1,3-18c4.3-5.3,11-6.6,16.7-7.1c3.7-0.3,7.7,0.8,8.9,1.3
							c3.1,1.4,6,2.9,8.1,5.5c4,4.9,5.3,12.1,3,18c-2.6,6.8-9.2,9.5-13,15.1c-4.7,7.1,1.1,10.9,4.3,16.8
							C184.7,114.7,175.7,127.9,172,141z M254,106.8c6-2.8,9.1-6.7,14-10.9l-0.8,3.9c-2.4,11.9-12.5,21.6-25.3,20.4
							C244.3,114.3,248.3,109.5,254,106.8z M235.9,119.4c-3.9-1.6-7.5-3.6-11.3-5.2c-5.4-2.2-10.3-1.6-16-1.5
							c-1.3,0-10.3,1.8-10.6,1c0.2-0.1,0.4-0.2,0.5-0.2c7.9-3.8,16.6-7,25.3-8.1c4-0.5,25-1,20.3,6.7
							C241.8,115.9,240.6,121.4,235.9,119.4z M230.9,137c2.1-3.4,5.2-11.3,9-12.9c4.2-1.7,8.7-2.6,12.9-4.3c4.9-1.9,5.4-0.6,7.8,3.9
							c2.6,4.8,5.2,9.5,8,14.2c5.2,8.8,9.2,18.5,15.2,26.8c-23.2-2.5-46.6-2.4-69.8-0.4C218.8,154.9,225.4,146.1,230.9,137z
							 M282.8,168c-11.8,4.1-24.1,3.1-36.4,2.9c-6.9-0.1-13.8-0.2-20.7-0.8c-3-0.3-5.9-0.7-8.9-1.3c-1.3-0.2-5.9,0-3.8-2.1
							c2.7-2.6,13.5-2.1,17.3-2.5c5.7-0.6,11.6,0,17.3,0.1c3.9,0,36.4-0.7,36.8,3.1C282.3,168.2,282.3,168.2,282.8,168z"/>
					</g>
					<path d="M198.4,113.6c-0.2,0.1-0.3,0.1-0.5,0.2C197.9,113.9,198.9,113.3,198.4,113.6z"/>
					<path d="M282.8,168c0.5-0.2,1-0.3,1.5-0.5C284.3,167.4,283.3,167.8,282.8,168z"/>
					<path d="M283.8,164.7C283.4,164.1,260.6,162.3,283.8,164.7L283.8,164.7z"/>
					<path d="M88.2,120.6c0.9,0,1.9,0,2.8-0.1C91,120.4,89.6,120.5,88.2,120.6z"/>
					<path d="M118.9,164.7C118.3,163.5,95.5,162.6,118.9,164.7L118.9,164.7z"/>
				</g>
			</g>
		</g>
		<g>
			<g>
				<path d="M170.9,68c2.4-1.9,3.9-3.7,3.5-6.9c-0.4-3.4-3.9-6.1-7.8-6c-3.3,0-6.3,1.4-7.6,4.7c-0.5,1.4-0.7,3-0.1,4.3
					c1.4,3,3.2,3.9,3.2,3.9h-4h-4.7c1.2-0.9,3.8-0.9,5.3-1.1c-0.5-1.3,0,0,0,0c-1.4-3.7-3.4-6.4-0.6-11.1c1.8-2.9,5.3-4.3,8.5-4.2
					c4,0.1,6.3,1.3,8.3,4c2.8,3.6,1.3,7.4-0.3,11.1c0.5,0,4.6,0.9,4.5,1.3"/>
			</g>
			<rect x="153.5" y="69.8" width="25.9" height="1.3"/>
		</g>
	</g>
</g>
</svg>
