<?xml version="1.0" encoding="utf-8"?>
<!-- Generator: Adobe Illustrator 18.1.1, SVG Export Plug-In . SVG Version: 6.00 Build 0)  -->
<svg version="1.1" xmlns="http://www.w3.org/2000/svg" xmlns:xlink="http://www.w3.org/1999/xlink" x="0px" y="0px"
	 viewBox="0 0 320.8 335" enable-background="new 0 0 320.8 335" xml:space="preserve">
<g id="Layer_1">
</g>
<g id="Layer_2">
	<g>
		<g>
			<g>
				<path d="M161.6,284.4c3.1-0.1,9.6,1.2,11.4-2.2c2.1-4.2,4.8-8,6.7-12.3c3.2-7.2,10.8-16.3,10.4-24.4c-0.2-3.8-1.4-7.5,1.4-10.4
					c3.2-3.3,6.4-6.7,10.1-9.4c3.2-2.4,4.7-9.9,6.4-13.5c1.9-3.9,3.9-10.9,7.5-13.6c0.1,3.9-3.7,8.4-5,12.1
					c-1.6,4.6-2.3,8.6-3.2,13.3c-0.5,2.9-7.5,6.8-9.7,8.6c-3.5,2.9-6,7.1-4.3,11.8c0.6,1.7,2.5,4,2.5,5.8c0,1-3.3,3.3-4.1,4.2
					c-3.4,3.9-5.5,8.7-8.1,13.1c-2.7,4.6-5.8,9.1-8.6,13.7c-0.8,1.2-2.2,4.9-3.9,5c-3.1,0.1-6.3,0.3-9.4,0.3
					C161.6,285.7,161.6,285.1,161.6,284.4C164.4,284.3,161.6,285.1,161.6,284.4z"/>
			</g>
			<g>
				<g>
					<path d="M192.5,140.8C192.4,140.9,193,141.1,192.5,140.8L192.5,140.8z"/>
					<path d="M238.5,120.5C238,120.6,239.5,120.1,238.5,120.5L238.5,120.5z"/>
					<path d="M275.4,88.2C275.4,88.2,272.3,86.9,275.4,88.2L275.4,88.2z"/>
					<path d="M309.1,75.9c-5.7-8.7-15-12.8-25.3-12c-9.4,0.8-20,3.9-25.7,12c-2.9,4.1-1.9,7.4-7.4,7.2c-4.5-0.1-9.2,0.4-13.7,0.8
						c-10.4,1-18.9,6.1-26.4,13.1c-3.5,3.2-6.2,7.4-7.7,12c-1.2,4-0.7,8.8-4.8,10.8c-8.7,4.4-16.5,11.2-22.6,18.8
						c-3.2,4-5.3,8.7-7.5,13.2c-2,4.1-1.8,6.5-6.5,4.9c0,0,0,0,0,0c0,0,0,0,0,0c0,0,0,0,0,0c-5.2,1.8-5.2-2.3-7.3-6.7
						c-2.2-4.5-4.4-9.2-7.9-12.9c-6.8-7.3-13.9-13.6-22.9-18.1c-2.7-1.3-2.8-9.2-3.9-11.8c-1.9-4.5-4.7-8.2-8.3-11.5
						c-7.2-6.4-15.3-11-25.1-11.9c-5.2-0.5-10.7-1.3-15.9-0.7c-2.9,0.3-4.6-6.8-6.3-8.7c-6.6-7.5-16.8-10.4-26.6-10.8
						c-10.1-0.3-19.2,4.7-24.2,13.5c-2.3,4.1-2.2,8.7-0.6,13.2c1.2,3.4,3.3,6.6,5.4,9.7c0.2-1.4-1.8-6.6-2.4-9.2
						c-0.9-3.5-0.9-7.1,0.9-10.3c3.1-5.5,8.7-7.8,14.7-6.3c5.5,1.3,11.9,2.9,11.2,10c-0.7,6.5-6.7,10.8-10.2,15.8
						c-3.7,5.2,0.2,13.4,4.7,16.7c5.1,3.8,12.5,3.4,17.9,0.6c5.7-3,10.5-7.6,13.4-13.4c1-2.1,1.3-7.9,2.8-9.2
						c1.7-1.4,6.2,0.4,7.9,1.1c6.3,2.5,12.9,6.6,14.4,13.6c0.3,1.7,0.4,3.4,0.2,5.1c-1.6,0.1-3.1,0.2-4.7,0.2
						c-3.5,0-6.9,0.3-10.4,0.9c-11.1,1.9-29.7,11.1-28.6,25c1,12.6,18.5,19.9,29.2,19.4c13.6-0.6,27.6-4.8,35.8-16.4
						c4.2,8.6,8.3,17.3,10.8,26.6c-3.6,0-7.1,0.6-10.7,0.4c-4.7-0.2-4.7-0.6-4.4,4c-7.7-3.2-14.8-4.2-22.5-0.2
						c-3.5,1.8-6.3,5-10,6.3c-2.5,0.9-5.5,0.2-7.7,1.2c6.3,4,15.2,11.3,22.9,11.8c7.6,0.5,11.4-6.7,18.2-8c9.4-1.8,15.1,5,20,11.7
						c2.4,3.4,3.8,7.5,6.3,10.7c2.5,3.3,3.9,2.7,8,2.7c4.2,0,9.4,1.7,10.8-3c0.8-2.6,2.6-11,4.8-11.5c0.2,0,0,0,0,0s0.9-0.2,1.7,1.1
						c2.2,3.5,2.9,8.2,4.2,12.1c0.7,2.4,8.3,1.2,10.2,1.2c4.7,0,6.3,0.3,8.9-4c2.2-3.7,4-7.5,6.6-11.1c4.5-6.2,10.3-11.5,18.7-10
						c6.5,1.2,12.2,10.4,19.6,7.7c7.8-2.9,14.6-7.1,21.5-11.5c-2.7-1.2-6.1-0.3-9.1-1.8c-3.1-1.6-5.5-4.1-8.6-5.7
						c-7.7-4-14.9-3-22.5,0.2c0.4-4.7,0.4-4.2-4.4-4c-3.6,0.1-7.1-0.4-10.7-0.4c2.5-9.3,6.5-18,10.8-26.6
						c8.3,11.7,23.8,16.9,37.7,16.4c6.3-0.3,13.1-2.5,18.3-6.2c4.1-3,10-9.3,8.9-14.9c-2.6-14.1-17.4-22-30.6-23.7
						c-3.8-0.5-7.6-0.5-11.4-0.7c-2.9-0.2-1.6-4.5-0.9-6.8c2-6.2,8.2-9.8,14-12.1c1.4-0.5,8.1-3.1,8.3-0.2c0.3,3.5,1.4,6.7,3.2,9.7
						c3.1,5.5,8.3,10.2,14.2,12.6c5.7,2.3,13,2,17.6-2.4c4.8-4.6,6.3-11.8,2.2-17.3c-3.5-4.8-9.5-9.1-9.1-15.7
						c0.4-6.5,7.4-8,12.8-8.8c6.1-0.9,11.7,2.5,13.9,8.2c1.3,3.5,0.7,7.1-0.3,10.5c-0.7,2.1-2.4,5.3-1.9,7.5c2.8-2.2,5-8,6.1-11.3
						C312.8,84.4,311.6,79.7,309.1,75.9z M37.9,74.3c-2.2-0.1-3.9-2.2-4.5-4.1c-0.3-1,0.4-3.2-0.6-3.7c-2,2.7-3.3,4.7-6.6,5.8
						c-2.9,1-5.6,2.6-8.2,4.2c-1.3-2,8.6-8.7,10.2-9.5c4.7-2.5,9.7-1.5,14.5,0c4.8,1.6,9.3,3.8,12.5,7.8c2.2,2.7,5.5,7.9,1.1,9.8
						c-2.8,1.2-5.7,2.4-8.5,3.6c-0.5-3.4-1.4-6.7-0.7-10.2c0.3-1.3,3.7-5.7,3.6-6.2c-0.3-1.1-5.4,1.8-6.2,2
						C42.3,74.3,40.1,74.3,37.9,74.3z M69.8,134.6c0.7-2.7,3.9-4.2,6.4-4.7c4.1-0.8,3.7-2,5.2-5.9c0.6-1.6,1.9-2.7,3.3-3.5
						c-0.1,1-1.8,8.1-0.8,8.5c3,1.1,7,1,10.2,1.5c4.5,0.7-5.7,9.4-8.3,9.6C82,140.4,68,141,69.8,134.6z M105.7,143.1
						c-4.5,7-9.6,12.2-18.6,10.6c-4.2-0.7-7.9-2.2-11.1-5.1c-1.2-1.1-7-6.7-2.3-7.1c3.6-0.3,8.5,0.5,10.9,3.3c1.7,2,3.1,5.3,5.9,5.5
						c-0.3-2.5-3.3-4.5-2.1-7.4c1.5-3.7,6.7-5.8,8.7-9.4c1.6-2.9,2.9,0.1,4.1-2.8c1.1-2.7,2.4-5.5,4.8-7.4c-0.8,2.6-1.5,5.3-2.3,7.9
						c-0.8,2.9-0.1,2.1,2,3.6C109.5,137.4,108.1,139.5,105.7,143.1z M101.9,115.1c-3.8-0.2-4.3-2.5-5.1-6.2
						c-1.1-5.5,10.3-3.7,12.5-5.9c-2.6-0.9-6.6-0.2-9.5-0.6c-3.8-0.5-7.1-1.7-10.5-3.3c-6.6-3.1-6.3-6.8-6.4-13.4
						c-1.7,1.2-2.6,2.9-4.1,4.4c-2.2,2.1-5.2,2.8-8.1,3.4c-4.6,1-6.5-4.1-6.7-7.5c-4.7,3.3-4.9,9.4-9.1,12.9
						c-2.1,1.7-5.2,3.1-7.6,1.2c-1-0.8-2.1-4.9-2.6-4.9c-0.8,3.1-0.4,6.6,0.8,9.6c0.9,2.1,2.8,2.3,3,4.9c0.1,1.4,0.2,2.8,0.2,4.2
						c5.3-4.1,11.4-10.2,13.8-16.6c1.4-3.8,4.3,1,3.8,3.3c-0.7,3.3-2.5,6.8-4.7,9.3c-3,3.4-6.5,5.8-11.2,6c-2.7,0.1-7.7-0.4-9.5-2.9
						c-4.2-6.1-1.1-14.7,4-19.3c10.4-9.3,29.6-11.4,42.7-7.7c14.7,4.1,25.9,14.8,25.9,30.5C109.5,115.7,105.8,115.3,101.9,115.1z
						 M48.4,109.8C48.4,110.1,48.4,110,48.4,109.8L48.4,109.8z M129.2,141.9c0.5-0.4,1-0.8,1.6-1.2c0.7,0.8-3.8,7.4-4.4,8.5
						C124.4,145.2,125.9,144.9,129.2,141.9z M152.4,208.3c-2.5,1.3-8.5,2.6-10.3-0.3c-1.6-2.6-0.1-6.7-0.9-9.6
						c-0.9-3.1-3.1-5.4-5.8-7c-16.2-9-34.9-12-52.9-8.4c-0.4-1.5,8.3-5.6,9.7-6.4c3.5-1.8,7.6-2.9,11.5-2.2c1.7,0.3,9.3,3.6,9.5,1.8
						c0.5-3.7,0.7-3.7,3.9-3.9c3.5-0.3,8.8-2.3,10.2,1.8c1.2,3.8,2.7,7.8,5.8,10.5c6.5,5.7,12.9,10.1,21.5,12.2c-0.1,0-0.1,0-0.2,0
						c0.1,0,0.1,0,0.2,0c1.2,0.3,2.3,0.6,3.5,0.9C156.7,201.3,156,206.3,152.4,208.3z M161.4,195.5L161.4,195.5
						c-1.1,0-5.4-1.2-7.2-2.3c-3-1.7-6-3.9-8.8-6.4c-4.7-4.3-9.6-11-4.6-17.3c4.5-5.7,14.5-7.8,20.9-10.5c0,0,0,0,0,0
						c1.1,0.6,3.1,1.4,4.9,2.2c1.7,0.7,3.5,1.4,5.2,2.1c3.7,1.5,8.2,3.1,10.8,6.3c5,6.3-0.2,13-4.9,17.3c-2.9,2.7-6,5.6-9.7,7.2
						C165.9,194.8,161.4,195.7,161.4,195.5z M206.2,172.3c0.8,0.1,2.4-0.6,2.9,0.2c0.8,1.1,0.1,4,1.4,4.7c0.8,0.5,4.8-1.7,5.8-2
						c1.6-0.4,3.3-0.9,5-0.9c4.1-0.2,7.9,1.3,11.4,3.3c1.3,0.7,8.5,4.1,8.1,5.5c-9.6-1.9-18.8-3-28.4-0.3
						c-8.3,2.4-18.4,4.5-25.7,9.4c-2.6,1.8-4.4,4.4-4.9,7.5c-0.4,2.7,1.1,7.3-1.5,9.2c-2.5,1.8-8.3,0.5-10.5-1.4
						c-2.4-2-3.3-5.9-4.2-8.9c0.1,0.3,0.1,0.2-0.3-0.9c9.3-2.4,16-5.8,23.3-11.8c4-3.2,5.9-7.1,7.5-11.9
						C197.4,170,202.7,172,206.2,172.3z M196.9,149.3c-0.7-1.2-5.1-7.7-4.4-8.5C196.3,143.6,199.1,144.7,196.9,149.3z M245.9,149.7
						c-3.5,2.7-7.3,3.6-11.5,4.3c-8.6,1.5-13.9-6-17.8-12.3c-2.7-4.3-1.5-5.3,2.3-7.8c2.1-1.4,0.9-2.4,0.2-4.8
						c-0.6-2-1.1-3.9-1.7-5.9c2.8,2.3,4,5.8,5.4,9.1c3.6-1.1,7.2,5.8,9.9,8.2c4.4,4,0.7,5.5,0.1,9.9c3.1-0.3,4.5-4.5,6.8-6.5
						c2.2-2,8.2-3.4,11-2.1C253.7,143.2,247,148.9,245.9,149.7z M239.3,128.9c1-0.4-0.6-7.4-0.8-8.5c0-0.2,3.1,2.8,3.9,5.1
						c0.3,1,0.6,3.7,1.9,4c3.1,0.9,5.5,0.7,8.2,3.1c7,6.3-10.3,7.8-13.2,7.6c-4.1-0.3-6.1-2-9-4.7c-1-0.9-4-4.6-1.1-5.1
						C232.3,129.9,236.3,130,239.3,128.9z M280.9,114.2c-7.7,3.3-15.1,1-20-5.6c-1.9-2.5-5.1-7.8-3.9-11c1.5-4.2,3.8-0.6,4.6,1.1
						c2.6,5.6,8.3,11.3,13.2,15c0.1-1.8,0-3.8,0.4-5.5c0.3-1.5,1.6-1.5,2.4-2.6c1.7-2.5,2-7.7,1.3-10.6c-0.1,0-2.4,5-3.9,5.7
						c-1.9,0.9-4.9-0.9-6.3-2c-4.2-3.5-4.4-9.6-9.1-12.9c-0.3,4.9-3.1,8.4-8.5,7.2c-5.1-1.2-6.6-4.6-10.5-7.4
						c-0.1,2.6,0.6,6.9-0.7,9.2c-1.3,2.3-5.1,3.9-7.4,5c-3.5,1.6-7.1,2.4-10.9,2.8c-2.3,0.3-5.5-0.3-7.6,0.4
						c3.2,3.2,14.6-0.2,12,7.8c-1.4,4.4-2.1,4.2-6.6,4.5c-3.2,0.2-6.2,0.6-9.4,1.2c0-16.2,12.3-27.6,27.7-31
						c13-2.9,32.7-1.1,42.2,9.4C283.4,98.9,288.2,111,280.9,114.2z M305.2,76.5c-2.6-1.7-5.3-3.3-8.2-4.2c-3.3-1.1-4.5-3.1-6.6-5.8
						c-0.9,0.4-0.5,3.8-1.2,4.9c-0.8,1.4-2.2,2.8-3.9,2.9c-2.7,0.1-5.6,0-8.2-1c-0.5-0.2-4.3-2.9-4.6-1.5c-0.2,0.7,2.1,2.6,2.5,3.2
						c0.8,1.4,1.2,3.1,1.3,4.7c0.2,2.9-0.5,5.7-0.9,8.5c0,0,0,0,0,0c-4.4-1.8-13-3-9.9-9.4c2.4-4.9,6.5-8.4,11.4-10.5
						C282.6,66,289.3,64,295,67C296.6,67.8,306.5,74.5,305.2,76.5z"/>
					<path d="M153.3,196.5C152.9,196.5,153,196.5,153.3,196.5L153.3,196.5z"/>
					<path d="M154.3,196.8c-0.1,0-0.1,0-0.2,0C154.2,196.8,154.3,196.8,154.3,196.8z"/>
					<path d="M154.1,196.8c-0.3-0.1-0.7-0.2-0.9-0.2C153.4,196.6,153.7,196.6,154.1,196.8z"/>
				</g>
				<path d="M196.8,193.4c-3.6,1.2-5.9,11.8-7.6,15c-3.5,6.7-7.6,6.5-14.8,6.7c-3.6,0.1-5.6-0.8-4.7,3.3c0.7,3.4,1.4,6.7,2.1,10.1
					c-3.4,0.7-10.7,0.8-10.7,0.8c0,0,0,0,0,0c-3.4,0.2-6.7-0.1-10-0.8c0.7-3.4,1.4-6.7,2.1-10.1c0.9-4.1-1.1-3.1-4.7-3.3
					c-7.2-0.3-11.3-0.1-14.8-6.7c-1.7-3.2-3.9-13.8-7.6-15c-5-1.7-11.4-5.9-16.9-5.3c1.6,2.6,4.8,4.5,6.8,6.9c2.6,3,5.3,6.4,7.3,9.8
					c1.9,3.2,2.9,6.7,3.7,10.4c1.1,5.4,1.7,7.2,5.6,11c2.7,2.6,5.6,5.1,8.3,7.6c3.3,3.1,3.7,7.2,5.7,11.2c0.9,1.9,3.8,9,6.1,9.4
					c1.4,0.2,2.8-0.3,4.1,0.5c1.9,1.1,2,2.7,4.6,2.8c0,0,0,0,0,0c0,0,0,0,0,0c2.7-0.1,2.7-1.6,4.6-2.8c1.3-0.8,2.7-0.3,4.1-0.5
					c2.3-0.4,5.1-7.5,6.1-9.4c1.9-3.9,2.4-8.1,5.7-11.2c2.7-2.6,5.6-5,8.3-7.6c4-3.8,4.5-5.6,5.6-11c0.7-3.6,1.8-7.1,3.7-10.4
					c2-3.5,4.7-6.8,7.3-9.8c2-2.4,5.2-4.2,6.8-6.9C208.3,187.5,201.9,191.6,196.8,193.4z M161.6,229.5c0-0.1,0-0.2,0-0.2
					C161.6,229.4,161.6,229.4,161.6,229.5C161.6,229.5,161.6,229.5,161.6,229.5z"/>
				<g>
					<path d="M161.6,261.9C161.6,261.9,161.6,261.9,161.6,261.9C161.9,261.7,162.4,261.2,161.6,261.9z"/>
					<g>
						<path d="M161.6,262C161.6,261.9,161.6,261.9,161.6,262c-3.2-2.9-5.4-4.7-9.5-6.1c-3.2-1.1-4.6-5.3-6.2-8
							c-3.5-6.1-6.1-17.4-14.5-18.5c1.3,2.5,3.3,4.5,4.9,6.8c2,2.7,2.3,5.8,2.9,9c1.3,6.7,2.4,13.7,5.3,20c1.4,3,3.3,5.6,5.1,8.3
							c2.4,3.5,2.9,4.1,7.1,4.4c3.7,0.2,3.1-1.3,3.9-4.6C161.6,269.4,161.6,265.9,161.6,262C161.6,262,161.6,262,161.6,262
							C161.6,261.9,161.6,261.9,161.6,262C161.6,261.9,161.6,261.9,161.6,262z"/>
						<path d="M177.3,247.8c-1.5,2.7-2.9,6.9-6.2,8c-4,1.4-6.5,3.3-9.5,6.1c0,4,0,7.5,0.9,11.2c0.8,3.3,0.2,4.8,3.9,4.6
							c4.2-0.2,4.8-0.9,7.1-4.4c1.8-2.7,3.7-5.3,5.1-8.3c2.9-6.2,4.1-13.3,5.3-20c0.6-3.2,0.9-6.3,2.9-9c1.6-2.2,3.6-4.3,4.9-6.8
							C183.5,230.4,180.8,241.7,177.3,247.8z"/>
					</g>
				</g>
				<path d="M161.6,284.4c-3.1-0.1-9.6,1.2-11.4-2.2c-2.1-4.2-4.8-8-6.7-12.3c-3.2-7.2-10.8-16.3-10.4-24.4
					c0.2-3.8,1.4-7.5-1.4-10.4c-3.2-3.3-6.4-6.7-10.1-9.4c-3.2-2.4-4.7-9.9-6.4-13.5c-1.9-3.9-3.9-10.9-7.5-13.6
					c-0.1,3.9,3.7,8.4,5,12.1c1.6,4.6,2.3,8.6,3.2,13.3c0.5,2.9,7.5,6.8,9.7,8.6c3.5,2.9,6,7.1,4.3,11.8c-0.6,1.7-2.5,4-2.5,5.8
					c0,1,3.3,3.3,4.1,4.2c3.4,3.9,5.5,8.7,8.1,13.1c2.7,4.6,5.8,9.1,8.6,13.7c0.8,1.2,2.2,4.9,3.9,5c3.1,0.1,6.3,0.3,9.4,0.3
					C161.6,285.7,161.6,285.1,161.6,284.4C158.9,284.3,161.6,285.1,161.6,284.4z"/>
			</g>
		</g>
		<g>
			<path d="M165.2,181c1.9-1.8,3.7-3.3,6.4-3.2c2.4,0.1,4.4,1,4.8,3.4c0.5,2.3-0.8,4.4-3,5.3c-2.6,1.1-5.5-0.5-8-1.3
				c-0.4,1.9-0.6,4-1.2,5.9c-0.2-3,0-6.1-0.4-9.1c-0.4-3.1-0.3-6.3-0.9-9.4c-0.4-2.2-1.6-5-4.3-3.6c-2.2,1.1-3.5,4.7-4.1,7
				c-0.3,1.2-0.6,2.4-0.7,3.7c-0.1,0.6-0.1,1.3-0.5,1.3c0-0.8,0-1.7,0-2.5c0-1.6-0.1-3.2-0.2-4.8c-0.1-1.2,0-2.6-0.5-3.7
				c-0.4-1-1.2-0.7-1.9-1.2c-0.8-0.6-0.2-2,0.6-2.4c3.1-1.7,2.9,4.1,3,5.6c1.1-2.1,2.1-4.8,3.8-6.4c1.5-1.3,4.1-1.6,5.6-0.2
				c1.8,1.6,1.4,4.7,1.3,6.9C164.9,175.1,165,178,165.2,181C165.8,180.4,165.2,181,165.2,181z M174.3,183c-0.2-1.5-1.7-2.7-3.6-2.7
				c-1.6,0-3.5,1-3.9,2.7c-0.4,1.5,2.9,2.9,4.1,3.1C172.8,186.4,174.2,184.8,174.3,183L174.3,183z"/>
		</g>
	</g>
</g>
</svg>
