<?xml version="1.0" encoding="utf-8"?>
<!-- Generator: Adobe Illustrator 18.1.1, SVG Export Plug-In . SVG Version: 6.00 Build 0)  -->
<svg version="1.1" xmlns="http://www.w3.org/2000/svg" xmlns:xlink="http://www.w3.org/1999/xlink" x="0px" y="0px"
	 viewBox="0 0 320.8 335" enable-background="new 0 0 320.8 335" xml:space="preserve">
<g id="Layer_1">
</g>
<g id="Layer_2">
	<g>
		<g>
			<path d="M201.5,158.1c0.7,4.2,2.6,9.8,0.6,13.8c-2-1.1-2.9-4-5-4.7c0.9,5.9,1.9,11.9,1.7,17.9c-0.3,8.1-4.2-3-6.7-3.9
				c0,9.9,0,18.9-4.8,27.9c-0.6,1.1-5.3,9.3-6.5,7.4c-1.8-2.8-2.1-9.8-5.4-11.2c0.5,5.3-0.5,8.2-2.7,13.1c5.3,0.5,9.3,1,14.3-1.2
				c5.6-2.4,11.2-4.9,16.8-7.3c6-2.6,12.1-5.2,18.1-7.8c4.7-2,9.8-3.5,13.2-7.7c3.3-4.2,6.4-2,8.3,2.5c1.7,4.1-1,10.8-2.2,14.8
				c-1.7,6-3.8,11.9-5.4,17.9c-1.6,5.9-2.1,11.9-4.6,17.5c-8.5,19.1-23.1,36.7-42.9,44.4c-9.8,3.8-19,6.5-29.2,8.8
				c-6,1.3-11.9,1.9-18,2.1c-3.9,0.1-10.9,0.9-14.7-0.8c1.5-1,3.2-0.8,4.9-1.5c2.7-1,5.3-2.4,7.9-3.7c4.5-2.2,9-4.5,13.3-7.1
				c8.2-4.9,20.2-11.3,25.6-20.2c-6.4,1.3-12.9,2.6-19,4.8c-3.3,1.2-6.8,2.5-9.8,4.4c-2.7,1.7-4.5,4.7-7.3,6.1
				c-0.4-4.8,2.6-10.9,4.4-15.4c2.1-5.2,5.6-10,9.1-14.2c7.6-9.2,21.7-12.6,33-13c10.6-0.4,24.3,3.7,32.4-5.1
				c3.7-3.9,6.7-8.9,8.7-13.9c1.7-4.2,5.2-12.2,4.2-16.6c-10.9,7.5-24.6,12.1-37.1,16.1c-7.5,2.4-15.6,5.3-23.5,5.6
				c-3,0.1-6.3-1.3-9.2-0.4c-3.1,1-4.9,5.8-7.1,8c-5,5-12.6,8.3-18.9,3.7c-3.9-2.9,5.8-14.1,8.1-15.9c6.6-5.3,11.9-9.3,16.7-16.5
				c2.8-4.1,7-13.1,3.4-17.8c-1.5-2-5-1.6-5.9-4.1c-0.9-2.8,0.5-6.4,1.5-9c1.3-3.6,0.8-4.4-2.9-5.4c-3-0.8-7.4-2.9-8.9,1.2
				c-0.8,2.2-1.6,6-3.7,7.3c-2.5,1.5-5.4-0.1-8.1,1c-6.8,2.9-6.4,12-7.5,18.2c-0.6,3.5-1.9,4.7-4,7.4c-2.1,2.7,1.4,7.2,2.2,9.5
				c2.1,5.7,5.1,14,0.3,19.2c-3.8,4.1-11.3,1.1-11.8-4.2c-0.5-5.5,5.5-14.1,2.2-18.6c-1.4,3.9-1.8,18.5-9.2,14.8
				c-7.1-3.6-4-18.6-4.5-25c-0.8-9.5-2.5-19.5-5.4-28.6c-1.3-4.2-2.9-8.2-3.9-12.4c-1.4-5.6-4.6-2.5-6.3,1.4
				c-3.6,8.1-4.6,15.7-3.9,24.5c0.7,8.2,9.2,13.8,12.6,20.9c3.8,7.7,7.3,16.2,7.8,24.8c0.3,6.9-1.7,22.9-8.6,26.5
				c-1.3-2.9-1.2-22.9-4.8-22.7c-4.3,13.1-5.1,27.1-3.2,40.8c0.2,1.1,2.9,13,0.5,10.9c-5.2-4.5-9.6-8.6-13.5-14.2
				c-8.2-11.6-15.6-24.7-18.7-38.5c-3-13.6-2.3-28,1.4-41.3c3.3-11.9,9.1-23,16.6-32.8c3.9-5,7.5-10.6,11.8-15.2
				c3.3-3.5,11.7-2.8,13,2.4c0.6,2.5,0.1,5,0.4,7.5c0.5,3.9,1.8,6.8,3.4,10.3c3,6.6,4.7,13.8,7.7,20.4c0.9,2.1,1.3,3.1,3.2,1.3
				c2.5-2.3,1.7-4.7,1.8-7.7c0-6.7-6.1-4.6-9.6-8.1c5.5-5.5,13.7-8.3,19.8-13.3c4.6-3.8-15.1-8-16.1-8.7c2.6-3.5,8.5-4.8,12.3-6.4
				c2.3-1,4.7-1.9,7-2.9c1.7-0.7,6.4-1.2,7.4-2.7c-3.1-0.5-7.1-0.3-9.8-1.8c4-4.6,11.9-6.7,17.4-8.8c-5.6-2.4-3.6-3,1.5-4.5
				c5.2-1.5,10.5-3,15.7-4.5c10.1-2.9,20.7-6.6,28.8-13.4c14.7-12.3,22.6-36,16.4-54.4c-2.7-8-12-14.3-20.5-12.5
				c-12.1,2.6-5.8,15.2-8.2,23.3c-2.6,8.8-10.8,15.6-18.5,20.2c-4,2.3-8.3,4.8-12.7,5.9c-2.9,0.7-10.5,3.4-15.9,2.3
				c14.9-7.2,25.9-19.5,29.5-35.8c-4.4,2.9-8.9,5.6-13.2,8.7c-4.4,3.2-6.5,8.2-10.5,11.5c-3.2,2.6-2.4-9.1-2.4-10.5
				c0-6.6,1.8-14.2,5.1-19.9c10.6-18.1,42.7-28.2,60.6-15.6c9.5,6.7,13.6,17.1,15.7,28c2.4,12.8-1.2,24.3-6.2,36
				c-4.8,11.3-14.8,22.1-11.8,35.3c1.3,5.9,3.5,11.5,5,17.4c1,4,2.7,14.6-0.1,18C203.7,161.5,201.8,158,201.5,158.1
				C201.9,160.7,201.6,158.1,201.5,158.1z M139,159.3c5.3,0.7,10.5,1.4,15.7,2.6c4.6,1,10,1.6,14.1,3.9c1.9,1,11.5,6.2,13.3,5.2
				c3.2-1.8,3.2-8.5,1-10.5c-7.1-6.6-17-12.1-26.7-13.3c-4-0.5-8.7-0.8-12.7,0.1C136.6,149.1,138,153.4,139,159.3
				C142.2,159.8,139,159.3,139,159.3z M163.7,27.6c4.4,1.2,9.5,1.8,12,6.4c2.4,4.6-3.1,8-6.2,9.9c-9.8,6-19.3,9.8-25.7,19.9
				c0.7,0.6,18.2-12.5,20.4-13.1c0.7,6.5-3.9,14.4-7.6,19.4c-4.1,5.5-7.8,9.8-13.2,14.1c1.5,2.4,12.3-7.4,13.7-9.1
				c4.1-5.3,6.1-12,8.6-18.1c1.2-2.9,2.3-6,4.9-8c2.5-1.9,5.7-3.7,7-6.8c1.2-3,1.4-6.4,2.5-9.5c1.1-3.1,2.8-6.1,4.2-9
				C177.2,23.5,170.2,25,163.7,27.6C164.3,27.7,170.4,25,163.7,27.6z M98,246.7c2.2-0.1,0.1-15.1-0.7-17.5
				c-2.3-7.5-5.2-12.8-9.7-19.1c-4.8-6.8-7.6-10.8-4.9-19.2c2.2-6.9-6.5-6.5-11.2-6c5.8,6.3,6.9,14.2,11.5,21.1
				c3.9,5.9,10.3,12.2,8.3,20c-2,8-5.3,16.3-6.4,24.5c-1.1,8.2,1.2,16.7,3.6,24.4c-0.5-7.1-0.6-14.2-0.2-21.4
				c0.4-7.3,3.9-14.2,3.9-21.4C96.3,232.7,97.3,243,98,246.7C98.1,246.7,97.6,244.7,98,246.7z M188,135c0.8-6.1,1.7-12.3,4.9-17.6
				c-5.8-2.7-10.4-1.4-15.6,1.9c-4.6,2.8-10.1,3.8-14.6,6.6c0.6,2.1,11,3.5,13.1,4.1C180.1,131,184,133.1,188,135
				C188.8,128.7,188,135,188,135z M191.4,243.5c-0.2-1.1-3.2-0.1-4,0c-3.4,0.5-2.7,0.8-3,4c-0.3,4-4.1,6.4-7.2,8.3
				c-9.5,6-17.8,10.6-25.2,19.1c2.2,1.1,11.9-4,14.5-4.7c3.5-0.9,12.3-4.4,15.6-2.2C182.1,257.4,182.3,250,191.4,243.5
				C191.4,243.3,190.6,244,191.4,243.5z M227.6,230.4c-3.6,4.7-7.1,9.8-12.7,12.2c5.9,5.3,7.3,12.3,6,20
				C224.3,257.5,240.8,233.1,227.6,230.4C227.6,230.4,229.5,230.8,227.6,230.4z M100,240.3c1.5,0.1,1.3-11.1,1.2-12.7
				c-0.5-4.9-2.4-9-3.9-13.5c-1.4-4.3-1.5-7.9-4.3-11.6c-3.2-4.3-6.1-9.1-8.6-13.8c-4.1,9.3,0.3,14.8,5.5,22.5
				C96.4,220.7,99,228.9,100,240.3C100.1,240.3,99.9,238.4,100,240.3z M63.1,187.6c7.2-4.2,12.2-6.3,20.3-2.4
				c-1.3-7.9-4.8-14.9-6.4-22.9c-1.9-0.3-6.6,9.4-7.6,11.1C67,178.1,64.8,182.8,63.1,187.6C65.8,186.1,63.1,187.6,63.1,187.6z
				 M146.2,162.9c-2-0.4-4-0.7-6-1.1c-3.3-0.6-4.1,1.2-6.8,3.1c-2.5,1.7-10.6,5-8.9,9c1.9,4.6,9.8,1.2,12.6-0.5
				C141.6,170.6,143.9,167.3,146.2,162.9C143.6,162.4,146.5,162.9,146.2,162.9z M176,193c3-2.6,3.8-9,4.6-12.7
				c1.1-5.5,1.7-8.2-4.4-9c-2.7-0.3-4.1-1.1-4.6,1.9c-0.4,2.3-1.7,4.7-1.7,7.1C170,184.6,174,189.4,176,193
				C177.2,192,176,193,176,193z M181.5,268.6c-6.5,5.3-12,11.2-19,15.9c-7.1,4.8-14.8,8.6-22.1,13.2c8.4-1.6,17.3-5.6,24.7-9.7
				C172,284,181.1,277.3,181.5,268.6C181.1,269,181.3,271.8,181.5,268.6z M98.4,160.2c2.1,0-0.3-3.3-0.2-4.6c0-2.8,1.2-5.5-0.5-8.1
				c-3.2-4.9-8.4-0.8-10.4,2.8c-1.1,2-1.7,4.2-1.9,6.4c-0.3,3.8,4.1,1.1,5-0.3C94.5,149.5,96.8,155.5,98.4,160.2
				C99.4,160.1,98.4,160.2,98.4,160.2z M196.3,220.7c2.7,0,6.3-2.4,8.9-3.2c3.5-1.1,5.1-3.5,2.6-6.8c-1.3-1.8-7.7,2.4-9.5,3.1
				C194.6,215.3,195.8,217.1,196.3,220.7C196.3,220.7,196.1,218.9,196.3,220.7z M193.2,35.5c1.8,0.6,5,2.6,6.9,1.4
				c1.6-1,6.9-3.6,3.8-5.6c-1-0.7-5.6-5.4-6.9-4.1C194.7,29.5,192.7,32,193.2,35.5C194.7,36,193.2,35.5,193.2,35.5z M231.1,223.4
				c1.5,0.5,3.7,1.9,4.5-0.3c0.9-2.3,3.8-7.3,3.3-9.7c-0.5-2.4-4.4-0.6-5.2,0.4C232,216.1,231.1,223.4,231.1,223.4
				C232,223.7,231.1,223.4,231.1,223.4z M222.8,210.1c2.3,0.2,8.4-2.9,8.7-5.5c0.9-7.1-6.5-2-9.8-0.6
				C222.9,205.8,223.9,207.9,222.8,210.1C223.1,210.1,222.8,210.1,222.8,210.1z M216.3,59.4c0.7-1.8-1.1-12.5-3.9-11.7
				c-3.7,1-0.4,8.9,0,12.2C213.7,59.7,215,59.6,216.3,59.4C216.3,59.5,215,59.6,216.3,59.4z M105.6,187c0.5-1.2,3.9-13.9-0.1-13.2
				C101.4,174.6,104.5,185,105.6,187C105.6,187,104.1,184.3,105.6,187z M210.4,77c-0.5,2.2-1.1,4.4-1.6,6.6c2.5,0.2,3.4,1.2,4.3-1.4
				c0.7-1.9,1.4-3.9,2.1-5.8C213.3,76.2,212.2,76.5,210.4,77C209.9,79,211.6,76.7,210.4,77z"/>
		</g>
		<g>
			<path d="M156.4,202.7c1.7,0.8,3.4,1.6,5.1,2.3c-1.6,1.1-3.1,2.2-4.7,3.3c-0.4-0.8,1.2-1.5,0-2.4c-1.3-1-2.4-1.5-2.7-3.3
				c-0.3-2-0.2-4-0.3-5.9c-0.1-1.8-0.1-4.4-1-6c-0.8-1.3-2.4-0.7-3.3,0.1c-1.3,1.2-1.8,2.9-2,4.6c-0.2,1.9,0,3.8,0,5.7
				c0,0.4,0.1,2.9-0.5,1.6c-0.4-1-0.3-2.4-0.4-3.4c-0.2-2-0.3-4-0.5-6c-0.2-1.4-0.7-2.7-2.4-2.4c-1.5,0.3-2.4,1.9-2.8,3.3
				c-0.6,1.8-0.5,3.6-0.6,5.4c0,1-0.1,1.9-0.1,2.9c-0.1,1-0.6,1.7-0.8,0.4c-0.3-2,0-4-0.4-5.9c-0.3-1.6-1.1-2.6-2.3-3.8
				c-0.5-0.5-0.3-1.1,0.1-1.6c0.5-0.7,1.5-0.2,2,0.1c0.8,0.5,0.8,1.4,1,2.3c1-1.8,2.1-4.9,4.5-5c2.4-0.1,2.7,1.7,2.8,3.6
				c1.2-1.9,2.4-4,4.9-4.1c3-0.1,2.9,3.3,2.8,5.3c-0.1,2.9-0.1,5.8,0.2,8.6c0.1,0.8,0.5,2.4,1.6,2.3c0.4-0.1,0.5-0.4,0.5-0.8
				C156.9,203.3,156.1,203.1,156.4,202.7C158,203.4,156.3,202.8,156.4,202.7z"/>
		</g>
	</g>
</g>
</svg>
