<?xml version="1.0" encoding="utf-8"?>
<!-- Generator: Adobe Illustrator 18.1.1, SVG Export Plug-In . SVG Version: 6.00 Build 0)  -->
<svg version="1.1" id="Layer_1" xmlns="http://www.w3.org/2000/svg" xmlns:xlink="http://www.w3.org/1999/xlink" x="0px" y="0px"
	 viewBox="0 0 1200 800" enable-background="new 0 0 1200 800" xml:space="preserve">
<g id="Layer_1_1_">
</g>
<g id="Layer_2">
	<g>
		<g>
			<path fill="#FFFFFF" d="M305.7,405.1c0.7-23.3,20.8-32,38.2-42c-14.2-9-45.8-15.3-60.8-4.5c13.5-2.4,41.7,3.5,26.7,22.6
				c-15.6,20.1-36.8,30.6-61.1,36.5c-21.2,5.2-47.6,5.6-57.7,28.8c-10.1,22.6-4.9,39.2,14.2,53.8c-7.3,9-28.8-0.3-36.5-4.5
				c-12.5-6.9-21.5-18.8-25-32.6c-7.3-29.2,5.9-58.3,30.2-75c27.4-18.8,59-18.4,90.3-24.3c7.3-1.4,11.5-29.2,13.2-35.1
				c5.2-18.1,15.6-20.8,31.3-26.4c30.6-10.8,12.2-59.7,11.8-83c-0.3-38.9,11.5-72.9,29.5-106.6c16.7-31.3,39.2-50.4,71.9-63.9
				c13.2-5.6,31.3-7.6,43.1-16c12.2-8.7,10.8-25.7,26.4-32c22.6-9.4,69.1,16.3,88.2,28.1c20.1,12.5,65.3,39.2,63.9,67.4
				c-0.3,7.3-6.3,11.5-9,17.7c-2.8,6.6-0.3,14.9,1.4,21.5c4.5,17.4,5.6,32,5.2,49.7c-1,34.4-10.4,74.3-33.7,100.7
				c-17.7,20.1-38.9,39.9-59.7,56.3c-10.8,8.3-21.9,17.7-30.9,27.8c-12.2,13.5-12.5,29.9-20.5,45.1c-5.9,11.5-16,29.5-26.7,36.5
				c-6.3,4.2-14.2,5.2-21.2,6.6c-4.5,1-16-1.7-19.4,1c-6.9,5.6-4.2,28.5-2.8,35.8c3.5,18.4,22.6,32,35.4,43.8
				c19.4,17.4,46.5,24,67.7,39.2c24.3,17.7,31.6,43.4,44.5,68.8c12.8,25,45.8,31.6,72.2,34c9.4,0.7,71.9-13.9,71.9-13.5
				c-38.2,22.9-78.1,43.4-124.3,36.1c-48.3-8-84-27.4-110.1-69.1c-11.8-18.8-17-33-37.2-43.4c-22.2-11.8-43.4-25.4-65.6-37.2
				c-21.9-11.5-39.9-30.2-55.9-49c-14.2-16.3-18.1-44.8-22.6-65.3c-1,24.7,5.9,44.8,11.8,68.4c6.9,27.8-2.4,42-16.7,64.6
				c-24,37.9,21.5,91.3,60.4,61.1c5.6-4.5,12.8-13.2,6.3-20.1c-8-8.3-14.2,10.8-20.8,10.4c-6.6-0.3,3.1-45.5,30.6-25
				c17,12.8,12.8,42.4,1,57c18.8,18.8,36.5,40.3,56.6,57.3c37.9,32,100.7,35.8,147.9,33.7c25.4-1,46.5-11.8,70.8-16.7
				c25-5.2,50-2.1,74,5.2c22.9,7.3,43.1,21.9,64.9,30.9c26.4,10.8,60.1,12.2,88.2,13.9c27.1,1.7,54.2,0,80.9-0.3
				c8.7-0.3,69.1-11.1,66.7-21.5c-23.3,2.1-175,15.6-162.9-35.8c2.8-11.8,21.9-16,31.3-20.5c14.2-6.9,29.2-13.5,43.1-21.2
				c6.9-3.8,20.8-10.4,20.5-20.1c-0.3-9.7-23.6-13.9-30.6-16.3c-30.2-9.7-61.8-5.9-92.4-13.2c-19.4-4.5-66-19.1-61.1-47.2
				c5.9-33.3-43.8-33.3-63.2-33.7c-34-0.7-60.1,3.1-92,12.8c-27.8,8.7-62.9,4.2-91.3,0.7c-24.7-3.1-56.3-16.7-73.3-35.4
				c-13.9-15.3-43.8-51.1-10.8-64.6c29.9-12.2,34,24.3,49.3,38.5c36.1,34,114.6,24.7,154.9,4.5c27.8-13.9,52.8-36.5,75-58
				c10.4-10.4,18.1-19.4,24.7-31.3c5.9-10.1,18.1-26.4,19.8-33.3c1,12.2-3.8,21.5-8.3,35.8c-5.9,18.8-15.3,36.5-24,54.5
				c-15.6,31.6-35.4,49.3-64.2,68.8c29.2,0.7,60.1-1.4,88.6,4.9c10.1,2.1,24.7,3.5,27.8,15.6c2.8,10.8-8,19.4-4.5,30.2
				c6.3,19.1,56.3,21.9,72.9,26.7c27.4,8.3,57.3,8.7,84,18.8c27.8,10.4,41.7,21.5,20.5,47.6c-12.8,16-49.3,22.9-55.9,41.7
				c-17,48.6,137.5,18.4,154.5,17c5.2,17-121.2,53.5-138.6,54.2c-49.7,1.7-101.8-10.4-145.9-33c-22.6-11.5-44.5-27.1-70.2-29.5
				c-30.6-2.8-48.6,11.1-75.7,20.5c-54.9,19.1-107.7,20.5-159.8-7.3c-21.9-11.5-41.3-27.4-59.4-44.5c-6.9-6.6-29.5-51.1-41.7-43.4
				c-46.2,28.1-108.4,19.8-146.6-17c-38.5-37.2-30.2-96.5-13.2-142.4c9.7-26,25-44.1,43.1-64.6C268.2,419.7,278.6,405.1,305.7,405.1
				C305.7,405.1,303.9,405.1,305.7,405.1z M538,164.1c-9.7,4.2-19.1,9.7-28.5,14.6c-10.4,5.6-8.3-13.5-9-19.1
				c-1.7-15.3-0.7-20.8-17-16.3c-11.1,3.1-25.4,3.1-35.4,9.4c-16.3,9.7-35.4,28.1-42,46.2c-6.6,17-26,64.2-11.1,80.6
				c5.6,6.3,21.2,7.6,28.8,10.4c12.8,4.9,25.4,11.5,37.2,19.1c3.8,2.4,20.1,18.8,24.7,15.3c11.1-8,24-15.3,32.3-26.7
				c13.2-18.4,24-43.1,28.1-65.3c1.7-9.7,4.9-24-5.2-30.6C533.8,197.1,538,170.3,538,164.1C535.2,165.1,538,175.5,538,164.1z
				 M435.6,54.7c-31.6,13.2-47.6,64.9-60.1,93.8c-16,37.2-27.8,74.3-36.5,113.9c1,0.3,33.7-68.1,38.9-76.4
				c14.2-22.2,47.2-48.6,74.7-50.4C447,108.5,441.1,81.8,435.6,54.7C433.8,55.4,441.5,82.1,435.6,54.7z M580.4,137.3
				c12.5-7.3,25.4-13.5,38.5-19.1c11.1-4.9-15.6-28.8-20.8-32c-14.6-8-25.4-21.2-40.3-28.8c-18.1-9.4-38.9-14.9-58.3-19.4
				c-14.6-3.5-19.1,0.3-16,15.3c1.4,6.6,6.3,47.6,15.6,39.6c10.4-9,18.8-19.4,33-21.2c5.9-0.7,3.1,37.9,4.9,42.4
				c7.3-4.9,28.5-24.7,37.5-19.4C585.6,100.9,576.6,126.9,580.4,137.3C584.2,135.3,579.7,135.3,580.4,137.3z M632.1,162
				c-16.7,5.9-33,16-48.6,24c-6.9,3.5-13.9,6.9-20.8,10.4c-6.9,3.5,3.8,11.8,5.6,16.3c17,39.6,2.4,82-23.6,113.2
				c12.8-5.2,21.5-21.5,29.9-32c10.1-12.5,19.8-25.4,28.1-39.2C619.3,225.9,630.7,195.3,632.1,162C630,162.7,631.1,184.6,632.1,162z
				 M360.2,359.9c0,0,25.4,16.7,31.3,14.2c5.2-2.1,15.3-24.3,13.5-29.5c-2.4-7.6-25.7-16.3-33-16.7
				C365.8,327.3,360.2,359.9,360.2,359.9L360.2,359.9z M350.8,356.5c4.5-10.4,9.4-20.8,13.9-31.3c-14.2-4.9-34.4-12.2-41.7,4.9
				C314,352.3,333.8,351.3,350.8,356.5C355.3,346.4,350.8,356.5,350.8,356.5z M399.8,380.1c4.5,2.8,17.7,13.2,22.9,11.1
				c4.9-2.1,15.3-18.4,15.3-24c0-5.9-12.8-12.8-17.7-14.9C408.8,348.1,404.3,370.7,399.8,380.1C406.7,383.9,399.8,380.1,399.8,380.1
				z M428.3,397.5c0,0,13.5,14.9,20.5,22.2c4.2-5.9,16-16.7,14.9-24.3c-1-8.3-14.2-17-19.8-22.6
				C438.7,380.8,433.5,389.1,428.3,397.5C434.9,404.4,428.3,397.5,428.3,397.5z M322.7,318.6c-5.9-0.3-20.8-4.2-25.7,1
				c-3.5,3.8-18.1,22.6-12.8,28.5c2.4,2.8,24,1.7,26-1.7C315.7,338.4,316.8,327.3,322.7,318.6C315.1,318.3,322.7,318.6,322.7,318.6z
				 M457.8,447.5c17.4-8.3,30.6-29.9,11.1-44.1C454.7,422.1,450.5,425.2,457.8,447.5C457.8,447.5,455.7,440.5,457.8,447.5z"/>
		</g>
		<g>
			<g>
				<path fill="#FFFFFF" d="M471.7,203c-5.2,8.7-10.1,17.4-15.3,26.4c-2.8-4.2-9-20.8-15.6-19.1c-3.8,1-7.6,6.6-10.4,9.7
					c-2.1,2.4-4.9,8.3-8,9c0.3-2.4,2.8-5.6,4.2-7.6c2.1-3.5,4.2-6.6,6.3-10.1c1.7-2.8,3.1-5.6,4.9-8c2.1-3.5,3.1-2.8,5.2,0.3
					c3.1,4.2,8.7,10.1,13.9,9.7c3.1-0.3,5.2-2.4,7.6-4.5c1-1,5.9-7.3,7.3-7.3c1.7,0,4.5,4.9,5.9,6.3c2.1,2.4,4.9,4.5,8,5.2
					c6.6,1.4,10.8-4.9,13.5-9.7c1-1.7,2.4-4.2,3.8-1.4c2.1,3.5,4.2,6.6,6.3,10.1c2.1,3.1,4.2,6.6,6.3,9.7c1.7,2.4,4.2,4.9,4.5,7.6
					c-2.8-1-4.9-4.2-6.9-6.6c-2.8-2.8-5.6-5.9-8-9c-5.9-6.6-9-0.7-12.5,4.9c-1.7,3.1-4.9,7.6-6.6,10.8
					C486.3,228.7,475.2,210.3,471.7,203C466.8,211.7,471.7,203,471.7,203z"/>
			</g>
			<g>
				<path fill="#FFFFFF" d="M472,234.6c-5.2,8.7-10.1,17.4-15.3,26.4c-2.8-4.2-9-20.8-15.6-19.1c-3.8,1-7.6,6.6-10.4,9.7
					c-2.1,2.4-4.9,8.3-8,9c0.3-2.4,2.8-5.6,4.2-7.6c2.1-3.5,4.2-6.6,6.3-10.1c1.7-2.8,3.1-5.6,4.9-8c2.1-3.5,3.1-2.8,5.2,0.3
					c3.1,4.2,8.7,10.1,13.9,9.7c3.1-0.3,5.2-2.4,7.6-4.5c1-1,5.9-7.3,7.3-7.3c1.7,0,4.5,4.9,5.9,6.3c2.1,2.4,4.9,4.5,8,5.2
					c6.6,1.4,10.8-4.9,13.5-9.7c1-1.7,2.4-4.2,3.8-1.4c2.1,3.5,4.2,6.6,6.3,10.1c2.1,3.1,4.2,6.6,6.3,9.7c1.7,2.4,4.2,4.9,4.5,7.6
					c-2.8-1-4.9-4.2-6.9-6.6c-2.8-2.8-5.6-5.9-8-9c-5.9-6.6-9-0.7-12.5,4.9c-1.7,3.1-4.9,7.6-6.6,10.8
					C486.6,260.6,475.5,242.2,472,234.6C466.8,243.6,472,234.6,472,234.6z"/>
			</g>
		</g>
	</g>
</g>
</svg>
