<?xml version="1.0" encoding="utf-8"?>
<!-- Generator: Adobe Illustrator 18.1.1, SVG Export Plug-In . SVG Version: 6.00 Build 0)  -->
<svg version="1.1" xmlns="http://www.w3.org/2000/svg" xmlns:xlink="http://www.w3.org/1999/xlink" x="0px" y="0px"
	 viewBox="0 0 320.8 335" enable-background="new 0 0 320.8 335" xml:space="preserve">
<g id="Layer_1">
</g>
<g id="Layer_2">
	<g>
		<g>
			<path fill="#FFFFFF" d="M295.6,123.5c-2.9-21.4-11.9-40.7-30.1-53.2c-17.4-11.9-44.9-13.3-64.3-5.5c-9.7,3.9-18,9.4-25.8,16.5
				c-6,5.4-15.7,15.9-11.1,24.5c3.4,6.4,13.5,16,21.3,11.1c1.8-1.1,11.9-7.8,10.3-9.7c-3.2-3.9-5.2-9-8-13.2c1-0.8,7.8,5.4,8.6,6.7
				c2.6,3.9,1.7,5.8,5.9,2.4c1.8-1.4,8.2-4.3,8.8-6.4c0.7-2.1-4.8-8.9-6.1-11c3.5,2.2,6.1,5.4,8,9c1,2,9.1-2.4,10.9-3
				c3.2-1.2,6.2-0.8,4.8-5.2c-1.1-3.3-0.1-8-0.1-11.5c2.5,2.8,3.1,6.7,3.7,10.2c0.9,4.9-0.7,4.3,4.2,3.4c1.2-0.2,8.9-0.4,9.4-1
				c2-2.8,1.7-9.3,2.2-12.7c2.8,1.7-1.3,10.8,1.4,12.4c4.5,2.6,8.9,4,13,7.4c8.9,7.5,13.4,19.4,13.7,31c0.2,11.7-4.2,20.1-13.5,27.4
				c-9.5,7.5-21,11.8-32.6,14.8c-0.8-5.1,0.5-9.4,3.9-13.4c1.8-2.1,3.9-4.1,6.2-5.6c2.4-1.5,5.3-1.8,7.5-3.4
				c-4.8-2.7-16.2,1.5-21.1,3.2c-7.8,2.7-16.6,5.5-21.7,12.4c-4.6,6.1-5.7,14.8-2.3,21.7c3.6,7.3,12.4,10.9,19.9,12.3
				c-2,3-8.8,5-11.9,7.1c-4.5,3-9.7,5.7-13.8,9.4c-4,3.6-5.8,10-8,14.8c-2.4,5.3-4.6,10.8-7.4,16c-2.3-0.8,3.5-17.3,4-19.5
				c1-3.9,2.1-7.7,3.3-11.5c0.7-2.2,3-6.2,2-8.3c-2.3,1.3-3.3,6.5-4.2,9c-1.4,3.6-3,7.1-4.6,10.6c-2.7,6-6.3,15.2-12.9,18
				c-2.3,1-6,5.3-6.1,8c-0.1,1.8,1.4,3.2,1.2,5.2c-0.1,1.5-1,2.9-0.8,4.4c0.4,2.6,4.1,4.2,3.4,7.1c-0.8,3.4-4,4.6-6.9,5.9
				c-2.5-1.1-5-2-6.4-4.6c-1.6-3.1,1.3-4.7,2.5-7.2c1.6-3-1.3-6,0.4-9.3c1.6-3-3.1-8.4-5.7-9.5c-5.8-2.5-9.8-10.8-12.1-16.2
				c-1.5-3.6-3.3-7-4.7-10.6c-1.1-2.8-2.3-9.2-4.9-10.7c-0.8,1.9,0.9,4.7,1.5,6.6c1.2,3.7,2.3,7.4,3.3,11.1
				c0.6,2.3,6.9,20.8,4.6,21.6c-2.4-4.6-4.4-9.4-6.6-14.2c-2.2-4.9-4.1-11.4-7.7-15.4c-3.5-4-8.9-6.5-13.3-9.4
				c-2.2-1.4-4.3-3.1-6.6-4.2c-2-1-5.7-2.1-6.9-4c7.1-1.4,15-4.5,19.1-10.9c4.5-6.9,3.3-16.7-1.5-23.1c-4.8-6.4-12.6-9.2-19.9-11.8
				c-4.3-1.5-8.6-2.5-13-3.4c-2.9-0.6-7.2-2-10-0.4c2.2,1.6,5.2,1.9,7.5,3.4c2.3,1.5,4.4,3.5,6.2,5.6c3.5,3.9,4.8,8.3,3.9,13.4
				c-11-2.9-22-6.9-31.2-13.7c-4.4-3.3-8.8-7.5-11.6-12.2c-3.1-5.2-3.4-10.3-3.2-16.2c0.2-10.7,4.2-22.6,12.3-29.8
				c4.2-3.7,8.5-5.6,13.3-8c2.2-1.1,1.5-2.1,1.6-4.3c0.1-1.6-0.6-7.8,0.8-8.7c0.6,3.9,1.2,7.7,1.9,11.6c0.4,2.1,6.1,1.4,8,1.8
				c3.7,0.7,5.4,2.9,5.6-1.3c0.2-3.9,1.3-9,3.9-12c0,3.5,1,8.2-0.1,11.5c-1.5,4.4,1.6,4,4.8,5.2c1.8,0.7,9.9,5,10.9,3
				c1.9-3.6,4.5-6.9,8-9c-2.1,3.4-4.2,6.9-6.1,10.4c-0.6,1.1,6.6,5.1,7.5,5.8c1.3,1,2.5,2.2,3.8,3.2c1.4,1.1,2.4-2.6,2.8-3.3
				c0.8-1.6,8.1-9,9.3-7.9c-1.9,3-4.4,6.2-5.7,9.5c-1.3,3.3-4.1,4.2-0.6,6.9c2.8,2.2,5.6,4.7,8.6,6.6c3.7,2.3,6.9,1,10.5-0.6
				c5.2-2.3,10.5-7.7,11.9-13.3c1.5-5.9-4.8-15.2-9.1-19c-5.9-5.2-11.7-9.9-18.2-14.4c-6.1-4.1-14.1-6.4-21.2-8
				c-15.3-3.5-35-1.7-48.9,5.8c-13.6,7.3-24.4,19.8-29.5,34.3c-2.4,6.9-5.3,14.4-5.3,21.7c-0.1,7.9,0.9,16.3,2.4,23.9
				c3.1,15.4,15.2,26,27.4,34.6c6.1,4.3,12.4,6.9,19,10.1c3.3,1.6,7.4,2.4,11,3.2c4,0.9,8.4,0,12.2,1.4c5.8,2,11.2,6.6,16.1,10.1
				c5.7,4,11,7.2,13.8,14c2.8,7,5.6,14,8.3,21.1c2.7,7,5.8,13,9.2,19.6c2,3.9,5,10.5,9.4,12.3c4.3,1.8,12.1,2.2,15.4-1.7
				c8.9-10.6,13.5-23.1,18.7-35.9c2.4-6,4.3-13,7.6-18.6c3.6-6,9.7-8.9,15.1-12.8c5.4-4,11.3-8.5,18.2-8.7
				c7.5-0.2,14.5-2.5,21.4-5.3c12.7-5.1,25.5-13.8,33.9-24.7c4.9-6.4,7.9-12.4,9.4-20.4C294.6,138.7,296.6,130.6,295.6,123.5z
				 M34.3,139.8c0.7-2.9,2.1-5.6,3.6-8.3c0.7,1.6,1.3,3.2,2,4.8C37.3,136.2,36.3,138.8,34.3,139.8C35.1,136.7,34.3,139.8,34.3,139.8
				z M43.5,108.5c-2.8,4.5-3.8,9.9-3.8,15.1c0,2,2.8,14.6,2.6,14.8c-5.7-11-6.3-20.7-1.7-32.3c2-5.1,4.9-8.4,9.3-11.6
				c1.4-1,3.6-2,4.2-3.9c0.8-2.7-0.5-5.8,0.3-8.7c0.5,1.3,1.8,7.2,3.2,7.7c1.5,0.5,6.5-2.1,8.5-2.1c-1,1.2-4,1.6-5.4,2.5
				c-2.5,1.6-4.9,3.2-7,5.3C49.6,99.3,46.4,103.7,43.5,108.5C41.5,111.6,44.2,107.3,43.5,108.5z M48.6,147.3
				c2.3,2.1-0.1,4.6-1.2,7.2c-0.1,0,0.9-1.9,0,0 M69.7,161.4c1,0.5,2,1,3.1,1.5c2.5,1.3,0.8,2.3-0.2,4.4c-1.3,3-2.7,5.9-4,8.9
				c-0.1,0,1.9-4.1,0,0 M91.5,180.7c-0.2-1.2-3.4-12.3-0.5-10.3C93.1,171.8,92.6,178.8,91.5,180.7C91.3,179.2,91.5,180.7,91.5,180.7
				z M93,168.4c0-3.9,2.2-7.4,0.9-11.4c-1.2-3.8-6.3-6.5-9.4-8.4c4.3-2,12.7,6.2,14.6,9.4c1.7,2.7,3.2,5.2,1.5,8.3
				C99,169.2,95.8,168.4,93,168.4C93,167.8,93,168.4,93,168.4z M227.5,168.4c0,0-5.2,0.7-6.9-1.1c-2.3-2.6-1.4-5.3,0.1-8
				c1.6-2.9,3.5-5,6.2-6.9c1.8-1.3,6.8-4.9,9.2-3.8c-3.4,2.1-6.4,4.2-8.9,7.4C224.4,159.4,227.5,164.8,227.5,168.4
				C225.8,168.4,227.5,168.4,227.5,168.4z M231.1,171.4c-0.8,3.1-1.5,6.1-2.1,9.2c-1.2-2.2-0.4-4.9-0.5-7.3
				C228.4,170.8,231.7,169,231.1,171.4C230.6,173.1,231.2,170.8,231.1,171.4z M252.3,176.2c-0.7,0.2-3.1-6.1-3.5-7
				c-0.8-1.8-1.7-3.7-2.5-5.5c1.5-0.8,3-1.5,4.6-2.3C251.4,166.1,252.8,171.5,252.3,176.2C252.2,176.2,252.3,176,252.3,176.2z
				 M273.2,154.6c-1.2-2.6-3.6-5.1-1.2-7.2C272.1,148.3,273.8,154.4,273.2,154.6C273.2,154.6,273.3,154.5,273.2,154.6z M278.3,138.3
				c-0.2-0.2,2.6-12.8,2.6-14.8c0.1-5.2-1-10.6-3.8-15.1c-2.7-4.3-5.5-8.1-9-11.9c-2-2.2-4.3-3.9-6.8-5.6c-1.7-1.2-5.6-2.1-6.9-3.5
				c2.5,0,5.4,0.6,7.6,1.8c1.8,1,3.6-6.1,4.1-7.5c0.7,2.4,0.7,5,0.3,7.5c-0.4,2.5,2.6,3.9,4.2,5c4.4,3.2,7.3,6.5,9.3,11.6
				C284.6,117.7,283.9,127.4,278.3,138.3C278.2,138.3,279.3,136.4,278.3,138.3z M280.7,136.3c0.7-1.6,1.3-3.2,2-4.8
				c1.5,2.6,2.8,5.3,3.6,8.3C284.3,138.8,283.2,136.2,280.7,136.3C281.4,134.7,283.3,136.2,280.7,136.3z"/>
			<path fill="#FFFFFF" d="M160.3,110.3c-6.1,2.6-10,10.2-16.5,11.7c-6.4,1.5-15.4-3.7-19.7-8.1c-1.5-1.5-3.7-6.2-5.8-5.4
				c-2.9,1.1-2.1,8.1-5.1,8.4c-4.6,0.5-9.5-0.7-14.1-0.5c-2,0.1-3.9,0.4-5.9,0.6c-1.2,0.1-1.2,1.4,0.1,1.4c3.1,0,7.4,2.7,10.1,4.1
				c4.3,2.2,8.4,4.8,12.3,7.6c7,5,12.6,11.3,15.9,19.3c3.4,8.1,5,17.8,9.7,25.2c3.9,6.2,12.1,9.4,19,9.7h0
				c6.8-0.3,13.5-3.3,18.1-8.5c2.5-2.9,3.9-7.3,4.8-10.9c1.2-4.7,3.2-9.2,5-13.7c3.3-8.1,8.1-14.6,15-20c3.8-3,8-5.6,12.3-7.9
				c3.1-1.7,8.3-5.1,11.9-5.1c0.7,0,1.6-0.5,0.7-1.2c-1-0.8-3.3-0.6-4.5-0.7c-4.9-0.5-9.8,0.1-14.7,0.3c-3.8,0.2-4-5.1-5.6-7.7
				c-1.9-3.1-4.6,2.5-5.7,3.6c-4.4,4.7-12.6,10.1-19.3,9.5C171,121.6,166.7,113.1,160.3,110.3L160.3,110.3L160.3,110.3z
				 M169.2,139.5c1.9,5.2,1.2,12.6-4.8,14.9c-5,1.9-10.9,0.4-13.3-5c-2.1-4.8-0.5-13.3,5-15.1C161.1,132.8,167.3,134.3,169.2,139.5
				C169.7,140.7,168,136.2,169.2,139.5z"/>
			<path fill="#FFFFFF" d="M197.9,164.9c1.9-3.7,5.6-8,6.6-11.8c-3.6,0.2-7.7,5-11,6.7c-2.2,1.1-4.5,1.7-6.8,2.5
				c-0.6,3.2-1.7,5.9-2.9,9c-2,4.8-3.8,8.8-8.3,11.7c-4.9,3.1-9.8,3.3-15.2,4.7c-4.9-1.3-9.4-1.4-13.9-3.9c-5.3-3-7.3-7.1-9.6-12.5
				c-1-2.3-2.2-4.6-2.6-7.1c-0.5-3-3-2.5-5.6-3.6c-3.9-1.7-8.5-7.2-12.5-7.4c1,3.8,4.7,8.1,6.6,11.8c2.2,4.2,3.2,8,2.4,12.8
				c-1.6,9,2.7,16,7.6,23c2.6,3.6,5.6,7.1,7.6,11.2c1.9,4.1,1.6,8.6,2.6,13c2,8.9,8.9,12.5,17.5,13.9h0c6.7-0.6,14.2-4.2,16.6-10.8
				c2.7-7.5,1.5-14.5,6.6-21.2c4.2-5.6,9.4-11.6,11.6-18.3c1-3.2,1.1-7.6,0.6-10.8C194.6,172.9,195.7,169.1,197.9,164.9
				C199.2,162.4,197.1,166.4,197.9,164.9z"/>
		</g>
		<g>
			<path fill="#FFFFFF" d="M152.1,143.5c-0.1-2.1,1.1-3.7,3.2-4c1-0.1,2,0,2.9,0.5c0.5,0.2,0.9,0.6,1.2,1c0.5,0.5,0.8,1.3,0.8,1.3
				c1-1.7,2.6-2.8,4.7-2.7c1.9,0.1,3.9,1.8,3.6,3.9c-0.2-1.3-1.4-2.6-2.7-2.7c-1.5-0.1-2.8,0.8-3.7,2c-0.8,1.2-1.1,2.6-1.2,4.1
				c-0.1,0.9-0.1,1.7-0.1,2.6c0,1,0.1,1.9-0.5,2.7c-0.4-0.7-0.4-1.4-0.4-2.2c-0.1-1-0.1-2-0.2-2.9c-0.1-1.6-0.3-3.3-1.4-4.6
				c-0.9-1-2.3-1.6-3.6-1.4C153.2,141.1,152.5,142.2,152.1,143.5L152.1,143.5z"/>
		</g>
	</g>
</g>
</svg>
