<?xml version="1.0" encoding="utf-8"?>
<!-- Generator: Adobe Illustrator 18.1.1, SVG Export Plug-In . SVG Version: 6.00 Build 0)  -->
<svg version="1.1" xmlns="http://www.w3.org/2000/svg" xmlns:xlink="http://www.w3.org/1999/xlink" x="0px" y="0px"
	 viewBox="0 0 320.8 335" enable-background="new 0 0 320.8 335" xml:space="preserve">
<g id="Layer_1">
</g>
<g id="Layer_2">
	<g>
		<g>
			<g>
				<path fill="#FFFFFF" d="M160.3,276.8c3.1-0.1,9.6,1.2,11.4-2.2c2.1-4.2,4.8-8,6.7-12.3c3.2-7.2,10.8-16.3,10.4-24.4
					c-0.2-3.8-1.4-7.5,1.4-10.4c3.2-3.3,6.4-6.7,10.1-9.4c3.2-2.4,4.7-9.9,6.4-13.5c1.9-3.9,3.9-10.9,7.5-13.6
					c0.1,3.9-3.7,8.4-5,12.1c-1.6,4.6-2.3,8.6-3.2,13.3c-0.5,2.9-7.5,6.8-9.7,8.6c-3.5,2.9-6,7.1-4.3,11.8c0.6,1.7,2.5,4,2.5,5.8
					c0,1-3.3,3.3-4.1,4.2c-3.4,3.9-5.5,8.7-8.1,13.1c-2.7,4.6-5.8,9.1-8.6,13.7c-0.8,1.2-2.2,4.9-3.9,5c-3.1,0.1-6.3,0.3-9.4,0.3
					C160.3,278.1,160.3,277.5,160.3,276.8C163,276.8,160.3,277.5,160.3,276.8z"/>
			</g>
			<g>
				<g>
					<path fill="#FFFFFF" d="M191.1,133.2C191,133.3,191.6,133.6,191.1,133.2L191.1,133.2z"/>
					<path fill="#FFFFFF" d="M237.2,112.9C236.6,113.1,238.2,112.6,237.2,112.9L237.2,112.9z"/>
					<path fill="#FFFFFF" d="M274.1,80.7C274.1,80.7,271,79.4,274.1,80.7L274.1,80.7z"/>
					<path fill="#FFFFFF" d="M307.7,68.3c-5.7-8.7-15-12.8-25.3-12c-9.4,0.8-20,3.9-25.7,12c-2.9,4.1-1.9,7.4-7.4,7.2
						c-4.5-0.1-9.2,0.4-13.7,0.8c-10.4,1-18.9,6.1-26.4,13.1c-3.5,3.2-6.2,7.4-7.7,12c-1.2,4-0.7,8.8-4.8,10.8
						c-8.7,4.4-16.5,11.2-22.6,18.8c-3.2,4-5.3,8.7-7.5,13.2c-2,4.1-1.8,6.5-6.5,4.9c0,0,0,0,0,0c0,0,0,0,0,0c0,0,0,0,0,0
						c-5.2,1.8-5.2-2.3-7.3-6.7c-2.2-4.5-4.4-9.2-7.9-12.9c-6.8-7.3-13.9-13.6-22.9-18.1c-2.7-1.3-2.8-9.2-3.9-11.8
						c-1.9-4.5-4.7-8.2-8.3-11.5c-7.2-6.4-15.3-11-25.1-11.9c-5.2-0.5-10.7-1.3-15.9-0.7c-2.9,0.3-4.6-6.8-6.3-8.7
						c-6.6-7.5-16.8-10.4-26.6-10.8C26,55.9,16.9,60.9,12,69.8c-2.3,4.1-2.2,8.7-0.6,13.2c1.2,3.4,3.3,6.6,5.4,9.7
						c0.2-1.4-1.8-6.6-2.4-9.2c-0.9-3.5-0.9-7.1,0.9-10.3c3.1-5.5,8.7-7.8,14.7-6.3c5.5,1.3,11.9,2.9,11.2,10
						c-0.7,6.5-6.7,10.8-10.2,15.8c-3.7,5.2,0.2,13.4,4.7,16.7c5.1,3.8,12.5,3.4,17.9,0.6c5.7-3,10.5-7.6,13.4-13.4
						c1-2.1,1.3-7.9,2.8-9.2c1.7-1.4,6.2,0.4,7.9,1.1c6.3,2.5,12.9,6.6,14.4,13.6c0.3,1.7,0.4,3.4,0.2,5.1c-1.6,0.1-3.1,0.2-4.7,0.2
						c-3.5,0-6.9,0.3-10.4,0.9c-11.1,1.9-29.7,11.1-28.6,25c1,12.6,18.5,19.9,29.2,19.4c13.6-0.6,27.6-4.8,35.8-16.4
						c4.2,8.6,8.3,17.3,10.8,26.6c-3.6,0-7.1,0.6-10.7,0.4c-4.7-0.2-4.7-0.6-4.4,4c-7.7-3.2-14.8-4.2-22.5-0.2
						c-3.5,1.8-6.3,5-10,6.3c-2.5,0.9-5.5,0.2-7.7,1.2c6.3,4,15.2,11.3,22.9,11.8c7.6,0.5,11.4-6.7,18.2-8c9.4-1.8,15.1,5,20,11.7
						c2.4,3.4,3.8,7.5,6.3,10.7c2.5,3.3,3.9,2.7,8,2.7c4.2,0,9.4,1.7,10.8-3c0.8-2.6,2.6-11,4.8-11.5c0.2,0,0,0,0,0s0.9-0.2,1.7,1.1
						c2.2,3.5,2.9,8.2,4.2,12.1c0.7,2.4,8.3,1.2,10.2,1.2c4.7,0,6.3,0.3,8.9-4c2.2-3.7,4-7.5,6.6-11.1c4.5-6.2,10.3-11.5,18.7-10
						c6.5,1.2,12.2,10.4,19.6,7.7c7.8-2.9,14.6-7.1,21.5-11.5c-2.7-1.2-6.1-0.3-9.1-1.8c-3.1-1.6-5.5-4.1-8.6-5.7
						c-7.7-4-14.9-3-22.5,0.2c0.4-4.7,0.4-4.2-4.4-4c-3.6,0.1-7.1-0.4-10.7-0.4c2.5-9.3,6.5-18,10.8-26.6
						c8.3,11.7,23.8,16.9,37.7,16.4c6.3-0.3,13.1-2.5,18.3-6.2c4.1-3,10-9.3,8.9-14.9c-2.6-14.1-17.4-22-30.6-23.7
						c-3.8-0.5-7.6-0.5-11.4-0.7c-2.9-0.2-1.6-4.5-0.9-6.8c2-6.2,8.2-9.8,14-12.1c1.4-0.5,8.1-3.1,8.3-0.2c0.3,3.5,1.4,6.7,3.2,9.7
						c3.1,5.5,8.3,10.2,14.2,12.6c5.7,2.3,13,2,17.6-2.4c4.8-4.6,6.3-11.8,2.2-17.3c-3.5-4.8-9.5-9.1-9.1-15.7
						c0.4-6.5,7.4-8,12.8-8.8c6.1-0.9,11.7,2.5,13.9,8.2c1.3,3.5,0.7,7.1-0.3,10.5c-0.7,2.1-2.4,5.3-1.9,7.5c2.8-2.2,5-8,6.1-11.3
						C311.5,76.9,310.2,72.2,307.7,68.3z M36.5,66.7c-2.2-0.1-3.9-2.2-4.5-4.1c-0.3-1,0.4-3.2-0.6-3.7c-2,2.7-3.3,4.7-6.6,5.8
						c-2.9,1-5.6,2.6-8.2,4.2c-1.3-2,8.6-8.7,10.2-9.5c4.7-2.5,9.7-1.5,14.5,0c4.8,1.6,9.3,3.8,12.5,7.8c2.2,2.7,5.5,7.9,1.1,9.8
						c-2.8,1.2-5.7,2.4-8.5,3.6c-0.5-3.4-1.4-6.7-0.7-10.2c0.3-1.3,3.7-5.7,3.6-6.2c-0.3-1.1-5.4,1.8-6.2,2
						C41,66.7,38.7,66.8,36.5,66.7z M68.4,127c0.7-2.7,3.9-4.2,6.4-4.7c4.1-0.8,3.7-2,5.2-5.9c0.6-1.6,1.9-2.7,3.3-3.5
						c-0.1,1-1.8,8.1-0.8,8.5c3,1.1,7,1,10.2,1.5c4.5,0.7-5.7,9.4-8.3,9.6C80.7,132.8,66.7,133.4,68.4,127z M104.3,135.5
						c-4.5,7-9.6,12.2-18.6,10.6c-4.2-0.7-7.9-2.2-11.1-5.1c-1.2-1.1-7-6.7-2.3-7.1c3.6-0.3,8.5,0.5,10.9,3.3c1.7,2,3.1,5.3,5.9,5.5
						c-0.3-2.5-3.3-4.5-2.1-7.4c1.5-3.7,6.7-5.8,8.7-9.4c1.6-2.9,2.9,0.1,4.1-2.8c1.1-2.7,2.4-5.5,4.8-7.4c-0.8,2.6-1.5,5.3-2.3,7.9
						c-0.8,2.9-0.1,2.1,2,3.6C108.1,129.8,106.7,131.9,104.3,135.5z M100.6,107.5c-3.8-0.2-4.3-2.5-5.1-6.2
						c-1.1-5.5,10.3-3.7,12.5-5.9c-2.6-0.9-6.6-0.2-9.5-0.6c-3.8-0.5-7.1-1.7-10.5-3.3c-6.6-3.1-6.3-6.8-6.4-13.4
						c-1.7,1.2-2.6,2.9-4.1,4.4c-2.2,2.1-5.2,2.8-8.1,3.4c-4.6,1-6.5-4.1-6.7-7.5c-4.7,3.3-4.9,9.4-9.1,12.9
						c-2.1,1.7-5.2,3.1-7.6,1.2c-1-0.8-2.1-4.9-2.6-4.9c-0.8,3.1-0.4,6.6,0.8,9.6c0.9,2.1,2.8,2.3,3,4.9c0.1,1.4,0.2,2.8,0.2,4.2
						C52.5,102.1,58.6,96,61,89.6c1.4-3.8,4.3,1,3.8,3.3c-0.7,3.3-2.5,6.8-4.7,9.3c-3,3.4-6.5,5.8-11.2,6c-2.7,0.1-7.7-0.4-9.5-2.9
						c-4.2-6.1-1.1-14.7,4-19.3c10.4-9.3,29.6-11.4,42.7-7.7c14.7,4.1,25.9,14.8,25.9,30.5C108.1,108.1,104.5,107.7,100.6,107.5z
						 M47,102.2C47,102.5,47,102.4,47,102.2L47,102.2z M127.9,134.4c0.5-0.4,1-0.8,1.6-1.2c0.7,0.8-3.8,7.4-4.4,8.5
						C123,137.6,124.5,137.3,127.9,134.4z M151,200.7c-2.5,1.3-8.5,2.6-10.3-0.3c-1.6-2.6-0.1-6.7-0.9-9.6c-0.9-3.1-3.1-5.4-5.8-7
						c-16.2-9-34.9-12-52.9-8.4c-0.4-1.5,8.3-5.6,9.7-6.4c3.5-1.8,7.6-2.9,11.5-2.2c1.7,0.3,9.3,3.6,9.5,1.8
						c0.5-3.7,0.7-3.7,3.9-3.9c3.5-0.3,8.8-2.3,10.2,1.8c1.2,3.8,2.7,7.8,5.8,10.5c6.5,5.7,12.9,10.1,21.5,12.2c-0.1,0-0.1,0-0.2,0
						c0.1,0,0.1,0,0.2,0c1.2,0.3,2.3,0.6,3.5,0.9C155.4,193.7,154.6,198.7,151,200.7z M160,187.9L160,187.9c-1.1,0-5.4-1.2-7.2-2.3
						c-3-1.7-6-3.9-8.8-6.4c-4.7-4.3-9.6-11-4.6-17.3c4.5-5.7,14.5-7.8,20.9-10.5c0,0,0,0,0,0c1.1,0.6,3.1,1.4,4.9,2.2
						c1.7,0.7,3.5,1.4,5.2,2.1c3.7,1.5,8.2,3.1,10.8,6.3c5,6.3-0.2,13-4.9,17.3c-2.9,2.7-6,5.6-9.7,7.2
						C164.6,187.3,160.1,188.1,160,187.9z M204.9,164.7c0.8,0.1,2.4-0.6,2.9,0.2c0.8,1.1,0.1,4,1.4,4.7c0.8,0.5,4.8-1.7,5.8-2
						c1.6-0.4,3.3-0.9,5-0.9c4.1-0.2,7.9,1.3,11.4,3.3c1.3,0.7,8.5,4.1,8.1,5.5c-9.6-1.9-18.8-3-28.4-0.3
						c-8.3,2.4-18.4,4.5-25.7,9.4c-2.6,1.8-4.4,4.4-4.9,7.5c-0.4,2.7,1.1,7.3-1.5,9.2c-2.5,1.8-8.3,0.5-10.5-1.4
						c-2.4-2-3.3-5.9-4.2-8.9c0.1,0.3,0.1,0.2-0.3-0.9c9.3-2.4,16-5.8,23.3-11.8c4-3.2,5.9-7.1,7.5-11.9
						C196,162.4,201.3,164.5,204.9,164.7z M195.5,141.7c-0.7-1.2-5.1-7.7-4.4-8.5C194.9,136,197.7,137.2,195.5,141.7z M244.6,142.2
						c-3.5,2.7-7.3,3.6-11.5,4.3c-8.6,1.5-13.9-6-17.8-12.3c-2.7-4.3-1.5-5.3,2.3-7.8c2.1-1.4,0.9-2.4,0.2-4.8
						c-0.6-2-1.1-3.9-1.7-5.9c2.8,2.3,4,5.8,5.4,9.1c3.6-1.1,7.2,5.8,9.9,8.2c4.4,4,0.7,5.5,0.1,9.9c3.1-0.3,4.5-4.5,6.8-6.5
						c2.2-2,8.2-3.4,11-2.1C252.4,135.6,245.7,141.3,244.6,142.2z M237.9,121.4c1-0.4-0.6-7.4-0.8-8.5c0-0.2,3.1,2.8,3.9,5.1
						c0.3,1,0.6,3.7,1.9,4c3.1,0.9,5.5,0.7,8.2,3.1c7,6.3-10.3,7.8-13.2,7.6c-4.1-0.3-6.1-2-9-4.7c-1-0.9-4-4.6-1.1-5.1
						C230.9,122.3,234.9,122.5,237.9,121.4z M279.5,106.6c-7.7,3.3-15.1,1-20-5.6c-1.9-2.5-5.1-7.8-3.9-11c1.5-4.2,3.8-0.6,4.6,1.1
						c2.6,5.6,8.3,11.3,13.2,15c0.1-1.8,0-3.8,0.4-5.5c0.3-1.5,1.6-1.5,2.4-2.6c1.7-2.5,2-7.7,1.3-10.6c-0.1,0-2.4,5-3.9,5.7
						c-1.9,0.9-4.9-0.9-6.3-2c-4.2-3.5-4.4-9.6-9.1-12.9c-0.3,4.9-3.1,8.4-8.5,7.2c-5.1-1.2-6.6-4.6-10.5-7.4
						c-0.1,2.6,0.6,6.9-0.7,9.2c-1.3,2.3-5.1,3.9-7.4,5c-3.5,1.6-7.1,2.4-10.9,2.8c-2.3,0.3-5.5-0.3-7.6,0.4
						c3.2,3.2,14.6-0.2,12,7.8c-1.4,4.4-2.1,4.2-6.6,4.5c-3.2,0.2-6.2,0.6-9.4,1.2c0-16.2,12.3-27.6,27.7-31
						c13-2.9,32.7-1.1,42.2,9.4C282.1,91.3,286.9,103.4,279.5,106.6z M303.9,68.9c-2.6-1.7-5.3-3.3-8.2-4.2
						c-3.3-1.1-4.5-3.1-6.6-5.8c-0.9,0.4-0.5,3.8-1.2,4.9c-0.8,1.4-2.2,2.8-3.9,2.9c-2.7,0.1-5.6,0-8.2-1c-0.5-0.2-4.3-2.9-4.6-1.5
						c-0.2,0.7,2.1,2.6,2.5,3.2c0.8,1.4,1.2,3.1,1.3,4.7c0.2,2.9-0.5,5.7-0.9,8.5c0,0,0,0,0,0c-4.4-1.8-13-3-9.9-9.4
						c2.4-4.9,6.5-8.4,11.4-10.5c5.6-2.4,12.3-4.4,18.1-1.4C295.3,60.3,305.2,66.9,303.9,68.9z"/>
					<path fill="#FFFFFF" d="M151.9,189C151.6,188.9,151.7,188.9,151.9,189L151.9,189z"/>
					<path fill="#FFFFFF" d="M152.9,189.2c-0.1,0-0.1,0-0.2,0C152.8,189.2,152.9,189.2,152.9,189.2z"/>
					<path fill="#FFFFFF" d="M152.8,189.2c-0.3-0.1-0.7-0.2-0.9-0.2C152.1,189,152.4,189.1,152.8,189.2z"/>
				</g>
				<path fill="#FFFFFF" d="M195.5,185.8c-3.6,1.2-5.9,11.8-7.6,15c-3.5,6.7-7.6,6.5-14.8,6.7c-3.6,0.1-5.6-0.8-4.7,3.3
					c0.7,3.4,1.4,6.7,2.1,10.1c-3.4,0.7-10.7,0.8-10.7,0.8c0,0,0,0,0,0c-3.4,0.2-6.7-0.1-10-0.8c0.7-3.4,1.4-6.7,2.1-10.1
					c0.9-4.1-1.1-3.1-4.7-3.3c-7.2-0.3-11.3-0.1-14.8-6.7c-1.7-3.2-3.9-13.8-7.6-15c-5-1.7-11.4-5.9-16.9-5.3
					c1.6,2.6,4.8,4.5,6.8,6.9c2.6,3,5.3,6.4,7.3,9.8c1.9,3.2,2.9,6.7,3.7,10.4c1.1,5.4,1.7,7.2,5.6,11c2.7,2.6,5.6,5.1,8.3,7.6
					c3.3,3.1,3.7,7.2,5.7,11.2c0.9,1.9,3.8,9,6.1,9.4c1.4,0.2,2.8-0.3,4.1,0.5c1.9,1.1,2,2.7,4.6,2.8c0,0,0,0,0,0c0,0,0,0,0,0
					c2.7-0.1,2.7-1.6,4.6-2.8c1.3-0.8,2.7-0.3,4.1-0.5c2.3-0.4,5.1-7.5,6.1-9.4c1.9-3.9,2.4-8.1,5.7-11.2c2.7-2.6,5.6-5,8.3-7.6
					c4-3.8,4.5-5.6,5.6-11c0.7-3.6,1.8-7.1,3.7-10.4c2-3.5,4.7-6.8,7.3-9.8c2-2.4,5.2-4.2,6.8-6.9
					C206.9,179.9,200.5,184.1,195.5,185.8z M160.3,221.9c0-0.1,0-0.2,0-0.2C160.3,221.8,160.3,221.9,160.3,221.9
					C160.3,221.9,160.3,221.9,160.3,221.9z"/>
				<g>
					<path fill="#FFFFFF" d="M160.3,254.4C160.3,254.4,160.3,254.4,160.3,254.4C160.6,254.1,161.1,253.6,160.3,254.4z"/>
					<g>
						<path fill="#FFFFFF" d="M160.3,254.4C160.3,254.4,160.3,254.4,160.3,254.4c-3.2-2.9-5.4-4.7-9.5-6.1c-3.2-1.1-4.6-5.3-6.2-8
							c-3.5-6.1-6.1-17.4-14.5-18.5c1.3,2.5,3.3,4.5,4.9,6.8c2,2.7,2.3,5.8,2.9,9c1.3,6.7,2.4,13.7,5.3,20c1.4,3,3.3,5.6,5.1,8.3
							c2.4,3.5,2.9,4.1,7.1,4.4c3.7,0.2,3.1-1.3,3.9-4.6C160.3,261.8,160.3,258.4,160.3,254.4C160.3,254.4,160.3,254.4,160.3,254.4
							C160.3,254.4,160.3,254.4,160.3,254.4C160.3,254.4,160.3,254.4,160.3,254.4z"/>
						<path fill="#FFFFFF" d="M176,240.2c-1.5,2.7-2.9,6.9-6.2,8c-4,1.4-6.5,3.3-9.5,6.1c0,4,0,7.5,0.9,11.2
							c0.8,3.3,0.2,4.8,3.9,4.6c4.2-0.2,4.8-0.9,7.1-4.4c1.8-2.7,3.7-5.3,5.1-8.3c2.9-6.2,4.1-13.3,5.3-20c0.6-3.2,0.9-6.3,2.9-9
							c1.6-2.2,3.6-4.3,4.9-6.8C182.1,222.8,179.4,234.2,176,240.2z"/>
					</g>
				</g>
				<path fill="#FFFFFF" d="M160.3,276.8c-3.1-0.1-9.6,1.2-11.4-2.2c-2.1-4.2-4.8-8-6.7-12.3c-3.2-7.2-10.8-16.3-10.4-24.4
					c0.2-3.8,1.4-7.5-1.4-10.4c-3.2-3.3-6.4-6.7-10.1-9.4c-3.2-2.4-4.7-9.9-6.4-13.5c-1.9-3.9-3.9-10.9-7.5-13.6
					c-0.1,3.9,3.7,8.4,5,12.1c1.6,4.6,2.3,8.6,3.2,13.3c0.5,2.9,7.5,6.8,9.7,8.6c3.5,2.9,6,7.1,4.3,11.8c-0.6,1.7-2.5,4-2.5,5.8
					c0,1,3.3,3.3,4.1,4.2c3.4,3.9,5.5,8.7,8.1,13.1c2.7,4.6,5.8,9.1,8.6,13.7c0.8,1.2,2.2,4.9,3.9,5c3.1,0.1,6.3,0.3,9.4,0.3
					C160.3,278.1,160.3,277.5,160.3,276.8C157.5,276.8,160.3,277.5,160.3,276.8z"/>
			</g>
		</g>
		<g>
			<path fill="#FFFFFF" d="M163.8,173.4c1.9-1.8,3.7-3.3,6.4-3.2c2.4,0.1,4.4,1,4.8,3.4c0.5,2.3-0.8,4.4-3,5.3
				c-2.6,1.1-5.5-0.5-8-1.3c-0.4,1.9-0.6,4-1.2,5.9c-0.2-3,0-6.1-0.4-9.1c-0.4-3.1-0.3-6.3-0.9-9.4c-0.4-2.2-1.6-5-4.3-3.6
				c-2.2,1.1-3.5,4.7-4.1,7c-0.3,1.2-0.6,2.4-0.7,3.7c-0.1,0.6-0.1,1.3-0.5,1.3c0-0.8,0-1.7,0-2.5c0-1.6-0.1-3.2-0.2-4.8
				c-0.1-1.2,0-2.6-0.5-3.7c-0.4-1-1.2-0.7-1.9-1.2c-0.8-0.6-0.2-2,0.6-2.4c3.1-1.7,2.9,4.1,3,5.6c1.1-2.1,2.1-4.8,3.8-6.4
				c1.5-1.3,4.1-1.6,5.6-0.2c1.8,1.6,1.4,4.7,1.3,6.9C163.5,167.5,163.7,170.5,163.8,173.4C164.4,172.8,163.8,173.4,163.8,173.4z
				 M172.9,175.4c-0.2-1.5-1.7-2.7-3.6-2.7c-1.6,0-3.5,1-3.9,2.7c-0.4,1.5,2.9,2.9,4.1,3.1C171.5,178.8,172.8,177.2,172.9,175.4
				L172.9,175.4z"/>
		</g>
	</g>
</g>
</svg>
