<?xml version="1.0" encoding="utf-8"?>
<!-- Generator: Adobe Illustrator 18.1.1, SVG Export Plug-In . SVG Version: 6.00 Build 0)  -->
<svg version="1.1" xmlns="http://www.w3.org/2000/svg" xmlns:xlink="http://www.w3.org/1999/xlink" x="0px" y="0px"
	 viewBox="0 0 320.8 335" enable-background="new 0 0 320.8 335" xml:space="preserve">
<g id="Layer_1">
</g>
<g id="Layer_2">
	<g>
		<g>
			<path fill="#FFFFFF" d="M32.6,124.1c-2.3,4.2,9.7,7.1,12.5,7.5c6.7,0.9,13.2-0.8,19.5-3.2c11.1-4.2,19.7-13.1,25.7-23.1
				c2.8-4.7,5.3-10.7,9.8-14c5-3.6,11.3-5.9,17.4-6.6c12.5-1.5,24.8,0.1,37.1,2.5c0.2-3.3,1.1-9.8-1.1-12.5c-2.3-3-8.1-0.5-10.4,1
				c0.3-0.2-4.4,3.1-3.2,0.5c0.8-1.7,3.5-2.5,4.8-3.6c3.4-2.8,6.6-6.8,8.6-10.6c2.4-4.5,2.8-9.3,3.7-14.2c0.3-1.6,1.7-1.3,1.8,0.2
				c0.2,2.3,0.4,4.8,0.9,7.1c1.1,4.7,5.3,9,8.2,12.7c2.7,3.3,7.1,5,9.4,8.2c-1.4,1.9-8.7-4.3-12.6-2.3c-2.5,1.3-1.3,10-1.2,12.7
				c9.3-3.7,20.2-6.3,30.2-5.8c12.2,0.7,23.2,6.7,31.9,14.8c7.6,7.1,14.4,15.3,24.1,19.4c9.3,4,23.8,4.3,32.2-2.2
				c-8.6-1.3,0-13.6,7.1-12c3.7,0.8,7.5,2.4,9.5,5.7c2.9,4.7,0.5,4.4-2.8,7.1c-14.4,12-28.4,24.4-43,36.3
				c-29,23.6-57.6,48.5-84.3,74.6c13.5,6.4,23.7,20.9,14.2,35.2c-2,3.1-5.2,5.5-6.8,8.8c-1.7,3.6-1.3,7.1-1.2,10.9
				c0.4,9-10.3,9.9-17,8.5c-14.9-3-29-12.5-29.6-28.7c-0.7-18,11.1-29.4,25.7-37.8c-15.6-11-31.1-22-47-32.7
				c-15.1-10.1-28.6-22.6-44.2-31.9C48.1,148,33.8,138,22.2,125.8c-5-5.3,6.7-12.3,11.1-11.5C40.7,115.7,40.4,125,32.6,124.1
				C32.3,124.5,36.5,124.5,32.6,124.1z M163.1,186c15.4-10,30.1-20.8,45.7-30.5c15-9.3,30.4-17.8,45-27.6c-0.5-1.1-9.3-1.8-10.9-2.2
				c-3.2-0.8-6.7-2-9.7-3.6c-7-3.8-13.3-8.5-20.1-12.6c-11.8-7.1-27.3-11.3-40.4-4.9c-3.3,1.6-6.2,3.9-8.9,6.3
				c-2.3,2.1,3.1,6.8,4.4,8.4c4.7,6.3,5.3,14.1,3.8,21.5c-0.8,3.7-2.1,7-4,10.4c-2.1,3.8-5.2,6.9-5.2,11.4
				C162.8,170.4,163.5,178.2,163.1,186C164.8,184.9,163.1,186,163.1,186z M141.7,183.5c1.5-2.4,2.7-5,4.1-7.5c0,0-0.7-8.1-1.1-11.3
				c-1.1-8.5-0.4-17,0.8-25.4c1.2-8.3,4.9-15.9,9.1-23.1c1.6-2.7,4.6-4.7,0.4-6.1c-3.8-1.3-7.9-2-11.9-2.7
				c-15.3-2.6-31.2,1-41.9,12.5c-11,11.8-24.4,15.8-39.7,19.3c1.7,2.1,6.3,3.3,8.6,4.7c3.6,2.2,7.2,4.5,11,6.4
				c7.3,3.7,14.2,8.1,21.4,12C115.7,169.2,128.9,176.1,141.7,183.5C141.9,183.1,141.7,183.5,141.7,183.5z M37.2,131.6
				c6.9,7.7,20.4,5.3,28.5,1.9c10.6-4.4,18.4-13.4,26.5-21.1c8.3-7.8,19.8-10.8,31-11.2c6.2-0.2,12.1-0.1,18.2,1.4
				c2.9,0.7,5.8,1.4,8.7,2.4c2.8,1,7.1,3.2,7.1,3.2c-1.3-6.1-0.7-12.7-2.2-18.7c-0.5-2-12.8-3.5-15-3.6
				c-13.2-0.4-28.1,2.4-39.1,10.1c-5.9,4.1-7.7,9.3-11.7,14.9c-4.2,5.9-9.5,8.9-14.8,13.5c-4.7,4-10.4,6.2-16.4,7.3
				c-2.9,0.6-5.4,1.9-8.4,1.9C45.4,133.6,41.2,132.3,37.2,131.6C37.3,131.7,40.7,132.2,37.2,131.6z M163,105.2
				c10.3-6,19.9-8.9,31.9-7.4c11.9,1.5,23.9,4.8,34.4,10.5c14.4,7.8,46.9,26.5,57.5,3.5c-5.8,2.4-10.2,6.1-16.7,6.6
				c-5.5,0.4-11.5,1.2-16.8-0.8c-5.9-2.3-11.1-4.5-15.9-8.8c-4.8-4.2-9.6-9.2-14.9-12.7c-10-6.7-25.6-13.4-37.8-12.6
				c-7,0.5-13.3,2.2-20.1,4.1C161.1,88.6,163,102.2,163,105.2C163,105.2,162.9,105.4,163,105.2z M139.5,250.9
				c-1.9,13.2,14,20.2,22.4,17.2c4.4-1.6-2.4-10.7,3.7-11.5c5.7-0.8,10.4-4.2,12-9.8c2.8-10.1-7.1-20.4-17.2-19.5
				C147.5,228.5,140.4,238.5,139.5,250.9C139.1,253.6,140,244.6,139.5,250.9z M173,204.4c7.3-5.4,12.7-13.3,20-18.8
				c8.2-6.2,15.7-13.3,23.1-20.4c7.1-6.9,14.8-13.4,22.6-19.5c7.8-6.1,17.9-11,24.6-18.3c-10.1,4.6-19.5,11.7-29,17.5
				c-4.6,2.8-8.8,6.2-13.5,8.8c-4.6,2.4-9.7,5.3-13.8,8.4c-8.7,6.6-18.2,12.3-27.1,18.7c-5.2,3.7-10.2,7.7-15.3,11.6
				C161.4,194.5,171.3,202.5,173,204.4C173.1,204.4,173,204.4,173,204.4z M138.2,197.8c0.1-1.9,2.6-9.6,1.7-10.8
				c-1.8-2.5-7.4-4.1-10.1-5.6c-7.7-4.4-15.6-8.7-23.1-13.5c-14-8.8-28.8-17.4-44.1-23.7c11.9,10.3,25.3,18.8,38,28
				C112.9,181.1,125.6,189.2,138.2,197.8C138.2,197.8,136.7,196.8,138.2,197.8z M157.6,117.1c-6.2,8.3-9.6,15.5-10.9,25.9
				c-1.3,10.4-1,19.9,0.6,30.2c0,0-0.4-2.7,0,0c0,0,5.7-7.7,8.9-11.3c3.2-3.6,2.2-8.7,2.2-13 M158.9,211.8c0,0,1.2-13.4-0.8-14.6
				c-5-2.9-9.8-6.1-15.1-8.4c-1.3,4.7-3.9,9.4,0.6,12.5C148.7,204.9,153.8,208.4,158.9,211.8C159,211.4,158.9,211.8,158.9,211.8z
				 M162.9,152.9c7.6-11.4,8.8-24.9,0.2-36.1c-0.8,1.4-0.2,13.6-0.2,15.7C162.9,139.3,162.9,146.1,162.9,152.9
				C163.4,152.2,162.9,152.9,162.9,152.9z M158.1,165.5c-1.6,1.9-10.5,10.6-9.7,12.6c1,2.6,7,13.6,10.3,12.7
				C158.5,182.4,158.3,173.9,158.1,165.5C157.1,166.7,158.1,165.5,158.1,165.5z M164.8,211.5c0.9-0.8,5.7-4.3,5.2-5.5
				c-1.1-2.9-3.8-4.5-6-6.4C163.3,203.6,164.1,207.6,164.8,211.5C166.7,209.8,164.8,211.5,164.8,211.5z M157.8,193
				c-0.6,0.7-9.7-12.2-10.5-14c-0.5,1.1-0.9,2.1-1.4,3.2c-1.1,2.5-2.2,2.7,0.5,4.2C150.2,188.6,154,190.8,157.8,193
				C157.9,192.9,153.4,190.5,157.8,193z"/>
		</g>
		<g>
			<path fill="#FFFFFF" d="M164.8,252.4c-0.5-2.9-0.6-7.3-3.4-9.2c-1.2-0.8-2.8,2.1-3.3,2.9c-1.1,1.6-2.5,3.5-1.5,5.4
				c0.7,1.4,2.3,2.3,3.5,3.2c-0.3,0.8-3.2-0.9-4-1.1c-1.6-0.4-2.9,0-3.9,1.3c-0.5,0.6-0.9,1.3-1.3,2c-0.4,0.5-1.6,1.1-1.3-0.2
				c0.3-1.4,1.5-2.5,1.9-3.9c0.4-1.6-0.8-3.1-2-3.9c-0.6-0.4-1.1-0.9-1.7-1.4c-0.6-0.6,0.3-0.7,0.7-0.5c1.5,0.9,2.8,1.9,4.6,1.8
				c1.6-0.1,2.3-1.4,3.1-2.7c0.7-1.2,2.2-3.1,1.9-4.6c-0.5-2.9-9.4,1.4-9.6,0.5c2.9-1.6,6-2.8,8.9-4.3c0.8-0.4,8-5,8.3-4.7
				c0.5,0.6-0.2,3.6-0.2,4.3c-0.1,1.9-0.2,3.8-0.3,5.6c-0.1,1.7-0.1,3.4-0.1,5.1C165.1,248.6,165.4,252.5,164.8,252.4
				C164.7,251.5,164.9,252.4,164.8,252.4z"/>
		</g>
	</g>
</g>
</svg>
