<svg id="Layer_1" xmlns="http://www.w3.org/2000/svg" viewBox="0 0 256.5 276"><path id="scorpio.svg" fill="#FFF" fill-opacity=".5" d="M218.3 98.9c1.4 0 2.9.6 4.6 1.9l27.1 20.9-17.1-25.2c1 .2 2 .2 3.1.2 2.4 0 4.8-.5 7-1.4l6.3-2.5 7.2 2.9-2.5-4.8.4-.2-.7-.3-4.1-7.8c-19.2-37-42.9-61.6-70.8-73.4l-4-5.1 2.1 4.3c-6-2.4-12.2-4.2-18.6-5.5l-1.1-.2-.1-.7-.1.6L143.2 0l9.9 11.8 1.5 1.8-3.2 15.4c-1.6 7.6-2.6 14.6-3 21.2-2.5-8.5-5.6-15.4-9.4-20.9l-8.8-12.8 1.3-7.9-3.3 4.9-3.1-4.5 1.2 7.3-8.8 13c-3.7 5.4-6.8 12.4-9.3 20.8-.4-6.6-1.4-13.6-3-21.2L102 13.6l1.5-1.8L113.3 0 99.7 2.6l-.1-.6-.1.7-1.2.2c-6.3 1.2-12.4 3-18.4 5.4L82 4l-4 5C50 20.8 26.2 45.4 6.8 82.5l-4.1 7.9-.4.2.3.1-2.6 5 7.4-2.9 6.3 1.9c2.2.9 4.6.7 7 .7 1 0 2.1.6 3.1.4L6.6 121.3l27.1-20.7c1.6-1.3 3.2-1.8 4.6-1.8 3.7 0 8.2 4.4 12.9 12.3-3.6-1.9-7.2-2.8-10.8-2.8h-.6l-4.6.1-.7 4.6c-2 13.5.8 24.3 8.1 32.1-.7-.1-1.4-.1-2.1-.1-2.9 0-5.6.5-8 1.6l-4.3 1.8 1.1 4.5c3.3 13.7 10.2 20.7 17.7 24.1-2.9.9-5.4 2.2-7.4 4.1l-3.4 3.1 2.5 3.9c6.4 10 14.5 15.2 24 15.5-.7.9-1.4 2-1.9 3.1l-1.8 3.9 3.4 2.7c5.4 4.2 10.8 6.4 16.1 6.4 5.3 0 10.2-2.1 14.6-6.3l4.5 2.2 2.4-4.8c1.5-2.9 2.7-5.6 3.6-8.2l4.5-4.6c.3 3.8 1.4 7.1 3.2 10-.4 2-.3 4.2.9 6.6-1.3 1.9-2.1 4-2.6 5.3l-.6 1.4c-1.4 1.2-2.6 2.7-3.7 4.2l-1 1.4c-16.3-9.8-33.7-8.2-50.4 4.7l-.1.1c-4-1.6-8.7-3.6-14.2-6.2l-15.4-7.2 8.2 14.8c2 3.6 4.2 6.9 6.6 9.9l-6 4.6 8.2-2.1c3.5 4 7.4 7.4 11.7 10.2l-.6.2 1.2.2c9.4 6 20.5 9 33.3 9 4.8 0 9.8-.4 15.1-1.3.1.1.2.2.2.3l10.5 11.9-.7-13.7 13.9-2.2-14.9-4.4c-.4-1.3-1-2.5-1.8-3.8 5.1 0 12.1-.7 15.1-5.7l.1-.1.8-.4c5.9-3 12-6.8 12.2-12.6v-.2l.6-.6c.7-.7 1.8-1.8 2.8-3.1l.5.9 1.2-3.1c1.3-1.9 2.3-4.1 2.5-6.3l.7-1.7c1.2-3.1 1.5-6.2.9-9l.2-.5c1.4-4.3 2.1-7.8 2.1-10.9l4 4.1c1 2.6 2.2 5.4 3.7 8.2l2.5 4.7 4.4-2.2c4.4 4.1 9.3 6.2 14.6 6.2 5.2 0 10.7-2.1 16.1-6.4l3.5-2.7-1.9-4c-.5-1.1-1.1-2.1-1.9-3 9.4-.3 17.5-5.5 24-15.5l2.5-3.9-3.4-3.1c-2-1.8-4.5-3.2-7.4-4.1 7.5-3.4 14.4-10.4 17.7-24.1l1.1-4.5-4.3-1.8c-2.4-1-5.1-1.6-8-1.6-.7 0-1.4 0-2.2.1 8.8-9.4 9.6-21.9 8.1-32.1l-.6-4.6-4.6-.1h-.6c-3.6 0-7.3.9-10.9 2.9 4.8-7.9 9.4-12.2 13.1-12.2zm-61.5-68.7c6.3 33.7 14.3 46.1 23.9 37 9.5-9 1.8-28.7-23.3-58.8 35.2 6.8 64.4 32.3 87.4 76.8-11.9-4.7-26-17.2-42.3-37.5 10.4 21 23.2 35.2 38.4 42.7-7.9 3.2-16.8-1.4-26.9-13.8-10-12.4-21.4-3.6-33.9 26.3-23.7-9.8-31.5-34-23.3-72.7zm3.9-8.9c22.7 29.6 19 39 16.1 41.8-1.2 1.1-1.9 1.4-2.1 1.4-.1 0-6.3-1.6-12.6-35.4l-1.4-7.8zm27 84.6l2.7-3c-2.7 5.2-6.4 9.7-11.3 13.5-.2.2-.4.3-.6.5l9.2-11zm-12 .9l-6.4 15.8s-.1 0-.1.1c-.5-1.8-1.2-3.4-2.2-5l5.1-12.7 3.6 1.8zm-23.3-24.3c3.6 9.1 9.6 16.3 17.8 21.3l-6.7 9.4c-.9-.9-1.9-1.8-3.1-2.7l-1.3-1c-1.6-9.7-4.6-19.3-8.8-28.9l2.1 1.9zm-17.9-50c5.8 8.4 9.9 20.9 12.7 37.6-4.3-4-7.2-4.4-9-1-3.5 6.4-6 4.9-7.8-4.5 5.5-5 6.8-15.7 4.1-32.1zm-7 .9l.8-4.9.8 4.9c1.4 8.3 1.5 14.2 1 18.4l-2-7.6-1.7 7c-.4-4.2-.2-9.9 1.1-17.8zm-5.5-.9c-2.7 16.4-1.3 27.1 4.1 32.2-1.7 9.4-4.3 10.9-7.8 4.5-1.7-3.3-4.7-3-9 1 2.8-16.8 7-29.4 12.7-37.7zm-5.5 39.4c1.7 3.5 3.3 5.5 4.8 5.9 1.9 12.3.1 22.8-5.3 31.6-1.8-6.3-1.8-12.5 0-18.9-7.2 9.5-9.9 19.8-7.9 30.9 2.4-.9 4.7-3.6 6.8-7.8-.3 8.6 2.1 15.7 7.4 21.3 2.3-19.1 2.7-38.3.8-57.4 1.9-1.2 3.5-4.8 5-10.9 1.6 6 3.2 9.7 5 10.9-1.9 19.1-1.5 38.3.9 57.4 5.2-5.6 7.7-12.7 7.3-21.3 2.1 4.2 4.4 6.9 6.9 7.8 2-11.1-.7-21.4-7.9-30.9 1.7 6.3 1.7 12.5 0 18.9-5.5-8.8-7.2-19.3-5.4-31.6 1.6-.4 3.2-2.3 4.8-5.9 9 16.3 13.9 32.4 15.1 48.5.9 14.7-7.9 24-26.8 27.7-18.8-3.7-27.7-13-26.7-27.7 1.3-16.1 6.3-32.3 15.2-48.5zm-10.4 8.7c-4.3 9.7-7.2 19.4-8.8 29l-1.2.9c-1.1.8-2 1.7-2.9 2.6l-6.6-9.4c8.1-5.1 13.9-12.1 17.5-21.2l2-1.9zm-16.4 36.8c-1.1 1.7-1.9 3.4-2.4 5.3-.1 0-.2-.1-.3-.2l-6.2-15.7c1.4-.6 2.7-1.3 4-2.1l4.9 12.7zm-74-27.2c15.1-7.4 27.9-21.7 38.4-42.7-16.4 20.4-30.5 32.8-42.4 37.6 23.1-44.4 52.2-70 87.5-76.8-25.1 30.1-32.9 49.8-23.3 58.8 9.6 9.1 17.5-3.3 23.9-37 8.1 38.8.3 62.9-23.2 72.5C64 72.7 52.7 64 42.6 76.3c-10.1 12.5-19.1 17-26.9 13.9zm80.2-68.9l-1.5 7.8c-6.5 34.1-12.6 35.4-12.6 35.4s-.7-.1-2.1-1.4c-2.9-2.7-6.5-12.1 16.2-41.8zm-18.4 95.2l-.1-.1c-4.8-3.8-8.5-8.3-11.2-13.5.9 1 1.8 1.9 2.6 2.9l8.7 10.7zM30.4 96.4c8.1-11.9 15.1-19.1 21.2-21.6 5.9-2.4 13.2 6.7 21.5 27.5-4.7-5.8-10.5-10.8-17.2-15.1 1.8 14.1 7.8 25.2 18.1 33.5 7.6 5.9 13.7 8.8 18.1 8.6-.4-5.6 2-10.3 7.3-14.4-2.1 7.6-1.2 14.6 2.6 20.6-3.9 3.7-9 5.9-15.5 6.7-2.4-9.1-5.1-10.4-7.9-3.9-5.4-2.7-12.5-12.1-21.6-28.1-8.9-16-17.8-20.6-26.6-13.8zm9.6 17.4c9.4-.3 19.7 8.5 30.9 26.5-5.9 6-3.4 8.5 7.5 7 11.1-1.4 19-4.4 23.8-8.7 1.1 4.5 1.8 8.2 1.9 11.1 0 3-.4 5.9-1.3 8.7-4.5-13.5-8.9-15.6-13.4-6.3-7.3 3-16.3 4.4-26.6 4.2-.4-13.6-5.2-23-14.6-28.1-1 8.5 2.5 15.5 10.5 21.1-15-6.1-21.4-17.8-18.7-35.5zm35 47.8s0 .1 0 0zm-40.3-10c7.6-3.3 18.9.6 33.7 11.5-2.9 7-.5 8.5 7.2 4.5 7.6-3.9 12.5-7.9 14.4-11.9 2-4 3.9-5.8 5.5-5.5 1.5.4 3.1 2.3 4.6 5.9 1.4 3.6 2.6 8.7 3.5 15.2-10.2-12.2-15.6-13.8-16.3-4.7-4.9 4.8-11.7 8.8-20.3 12.1-4.6-11-11.6-17-21-18.1 2 7.2 7.1 11.8 15.4 13.8-14.1.1-23-7.6-26.7-22.8zm45.9 28.1c-.2.3-.4.6-.7.9l-2.2-.7c.1-.1.3-.2.5-.2h2.4zm-37.2 5.5c5.5-5 16.1-5 31.8-.2-.5 6.7 2.2 6.8 8 .3 3.6-3.9 5.6-8.6 5.9-14 .4-5.4 1.8-7.3 4.2-6 2.4 1.4 4.6 3.2 6.8 5.5 2 2.2 4.5 5.9 7.1 11.1-12.1-7.2-17.1-7-15 .7-2.9 5.5-7.3 10.9-13.6 16.1-7.1-7.8-14.8-10.9-23-9.1 3.7 5.5 9.4 7.9 17 7.1-11.9 4-21.7.2-29.2-11.5zm62.7 8.6v-.3l.1-.7c.1.2.2.5.4.7l-.5.3zm-6-9.4c-1.8.5-1.6 3.3.7 8.3-.7 4.7-2.6 9.9-5.5 15.6-7.5-3.6-13.9-3.6-19.4.1 4.4 2.9 9.2 3 14.4.2-7.2 7.3-15.3 7.4-24.3.4 2.4-5.3 10.1-8.4 22.9-9.5 1.7 4.9 3.5 4.8 5.5-.3 1.9-5.2 2.3-9.8 1.1-13.8-1.1-4.1-1.1-6.1.2-6.2 1.2-.2 5.2 1.2 12 4.3-3.4.1-5.8.4-7.6.9zm-22.9 69.9c13.3 2 21.3 3.4 23.8 4.2-29.5 4.7-50.6-4.6-63.7-28 27 12.6 41.4 15.6 43 9 1.6-6.6-6-7.8-23-3.5 15.5-12 30.8-13.2 45.7-3.4-6.9-.1-9.3 1.3-7.4 4.2-4.6.6-5.5 2.1-2.6 4.7-2.9.8-3.1 2.1-.5 3.8-2.4 1.2-.8 2.8 4.7 4.6 5.7 1.9 8.6 5.4 8.9 10.6-6.9-7.9-16.5-9.9-28.9-6.2zm25.1-11.3c-1.7.6-2 1.3-.7 2 1.1.7 2.5 1.1 4 .9.1.5-.6 1.3-2.3 2.5-1.6 1.1-4.6.6-9-1.7 2.4-.7 3.3-1.2 2.3-1.5-.9-.3-1.4-.7-1.3-1.5 0-.7.5-1.4 1.5-1.9-1.3-.6-2-1.4-2-2.4-.1-.9.6-1.7 2.3-2 1.6-.4 1.8-1.3.5-2.8 4.1-.1 5.7.6 4.9 2-.8 1.5-1.5 2.7-2 3.6-.6 1.4 0 2.1 1.8 2.8zm17.1.4c-1.2 2-5 3.1-11.4 3 1.3-1.5 1.1-2.1-.6-2-1.7.3-2.4.1-2.2-.6.2-.6.8-1.2 2-1.9-1.3.2-2.5-.2-3.7-1-1.1-.9-.7-2.3 1.3-4.1 2-1.8 1.5-2.8-1.4-3.1 4.2-2.4 6.4-2.8 6.6-1.1.3 1.6.3 3.2.2 4.6-.2 1.4.8 2 2.8 2-1.2 1.8-1.2 2.8.3 2.9 1.4.2 3.1-.2 5.1-.8 1.8-.8 2.2 0 1 2.1zm3.1-2.6c.1-2.1-.8-2.7-2.9-1.7-2 1-3.4 1.2-4 .4-.7-.7-.2-1.7 1.4-2.5-1 .4-2.1.3-3.3-.2-1.2-.6-1.4-2.2-.6-5 .9-2.9-.2-3.8-3.3-3 3.3-4.4 5.2-5.4 6-3.3.7 2.2 1.4 4.2 2.1 5.8.6 1.5 2.4 1.2 5.2-.8-.4 2.3.5 3.3 2.5 2.8 2.1-.6 3.6-1.2 4.6-2.2.9-.9 1.3-.4 1.3 1.9.1 2.1-3 4.8-9 7.8zm11.4-12.4c-1.2-1.6-2.5-1.6-3.9.1-1.4 1.7-2.6 2.3-3.6 2-.9-.3-.9-1.6.1-3.9-1.1 1.7-2.6 2.6-4.6 2.8-2 .1-3-1.4-3-4.8 0-3.3-1.4-4.3-4.1-2.6 2-5.3 3.9-6.9 5.4-4.7 1.5 2.1 2.9 3.4 4.1 4 1.3.5 2.7-.3 4.3-2.2 1.3 2.2 2.8 2.7 4.6 1.4 1.8-1.4 2.8-2.6 3.3-3.7.4-1.2 1.2-.6 2.4 1.6 1.3 2.1-.4 5.4-5 10zm6.5-11.6c-2.3-4.5-4.6-5-6.8-1.7s-4 3.3-5.3.4c-1.2 3-2.8 3.1-4.7.2-1.9-2.9-3.7-3.6-5.5-2.2-1.8-2.4-1.9-4.5-.4-6 1.6-1.7 3.4-1.3 5.9 1.1 2.3 2.4 3.9 1.6 4.7-2.7.9 4.2 2.4 4.9 4.7 2.1 2.2-2.8 4.4-2.9 6.4-.3 2.1 2.5 2.4 5.6 1 9.1zm1-9.2c-2.7-4.5-5.3-5.6-7.6-3.5-2.3 2.1-4.2 1.6-5.6-1.6-1.4 3.2-3.1 3.9-5.2 2.2-2-1.7-4.3-1.5-6.7.6-1.9-2.7-2.8-6.1-2.7-10.2 3.2-1.1 5.8-.6 7.9 1.6 2.1 2.2 4.4 1.6 6.7-1.8 2.6 3.9 5 4.6 7.3 2.3 2.2-2.3 4.7-2.7 7.4-1 .7 3 .1 6.7-1.5 11.4zm2-14.3c-3.7-2-6.7-1.7-8.9.8-2.2 2.6-4.3 1.5-6.2-3.2-1.9 4.6-3.9 5.8-6.1 3.2-2.2-2.5-5.4-3-9.4-1.4-1.7-1.9-2.8-5-3.3-9.5 3.8-2.3 6.4-1.9 7.8 1.5 1.3 3.3 2.9 4.7 4.6 4.2 3.1-1.1 5.2-4.9 6.3-11.4 1.2 6.5 3.3 10.3 6.4 11.4 1.8.6 3.3-.8 4.6-4.2 1.4-3.3 3.9-3.8 7.7-1.5-.4 4.6-1.6 7.9-3.5 10.1zm3.8-12.3c-4.6-3-7.6-2.6-9.1 1-1.6 3.5-3.3 4.5-5.3 2.5-1.9-1.9-3.3-5.8-4.6-11.7-1.1 5.9-2.6 9.9-4.6 11.7-1.9 2-3.6 1-5.2-2.5-1.6-3.6-4.6-4-9.2-1-3.5-5.9-5.2-12.5-5.1-19.9 2.7-7.7 2.4-15.6-.7-23.7 6.3 9 14.7 14.5 24.8 16.3 10.1-1.8 18.5-7.2 24.9-16.3-3.3 8.1-3.5 16-.8 23.7.2 7.3-1.6 13.9-5.1 19.9zm2.5 12.7c.2-.4.4-.7.5-1.1l.1.8c0 .2.1.4.1.6l-.7-.3zm16.5 14.9c5.3 2.8 10 2.7 14.4-.2-5.5-3.7-11.9-3.7-19.3-.1-3-5.7-4.8-10.9-5.5-15.6 2.1-5 2.4-7.8.6-8.3-1.8-.6-4.3-.8-7.4-.9 6.9-3.1 10.9-4.5 12.1-4.3 1.2.1 1.3 2.1.1 6.2-1.1 4-.7 8.5 1.2 13.8 2 5.1 3.7 5.2 5.4.3 12.8 1.1 20.4 4.2 23 9.5-9.2 7-17.4 6.9-24.6-.4zm47-23.4c-7.6 11.7-17.3 15.5-29.2 11.3 7.6.8 13.2-1.6 17-7.1-8.3-1.8-15.9 1.3-23 9.1-6.2-5.2-10.8-10.6-13.6-16.1 2-7.7-3-8-15-.7 2.6-5.1 4.9-8.8 7.1-11.1 2-2.3 4.3-4.1 6.7-5.5 2.4-1.3 3.8.6 4.2 6 .4 5.4 2.3 10.1 5.9 14 5.8 6.5 8.5 6.4 8.1-.3 15.7-4.7 26.3-4.7 31.8.4zm-37.2-5.5h2.4c.2.1.3.2.5.2l-2.2.7c-.3-.2-.5-.5-.7-.9zm45.9-28.1c-3.7 15.2-12.6 22.9-26.8 22.8 8.3-2 13.5-6.5 15.4-13.8-9.4 1.1-16.4 7.2-21.1 18.1-8.5-3.3-15.2-7.2-20.3-12.1-.7-9-6-7.4-16.2 4.7.8-6.5 2-11.6 3.5-15.2 1.5-3.6 3-5.6 4.6-5.9 1.6-.3 3.3 1.5 5.4 5.5 2 4 6.9 8 14.5 11.9 7.6 4 9.9 2.5 7.1-4.5 15-10.9 26.3-14.7 33.9-11.5zm-40.4 10zm35.1-47.8c2.5 17.7-3.7 29.5-18.8 35.4 8.1-5.6 11.5-12.5 10.6-21.1-9.5 5.1-14.3 14.5-14.6 28.1-10.4.2-19.3-1.2-26.6-4.2-4.6-9.3-9-7.2-13.4 6.3-.9-2.9-1.4-5.8-1.3-8.7.1-2.9.7-6.6 1.8-11.1 4.8 4.4 12.8 7.3 23.8 8.7 11.1 1.5 13.6-.9 7.6-7 11.1-17.9 21.4-26.7 30.9-26.4zm-17.2-3.5c-8.9 16-16.2 25.4-21.6 28.1-2.8-6.5-5.5-5.2-7.9 3.9-6.4-.7-11.6-3-15.4-6.7 3.8-6 4.6-13 2.6-20.6 5.3 4.1 7.7 8.8 7.2 14.4 4.6.2 10.6-2.7 18.1-8.6 10.4-8.3 16.4-19.3 18.1-33.5-6.6 4.4-12.4 9.4-17.2 15.1 8.4-20.8 15.5-29.9 21.6-27.5 6 2.5 13.1 9.7 21.2 21.6-8.8-6.9-17.7-2.3-26.7 13.8z"/></svg>