<?xml version="1.0" encoding="utf-8"?>
<!-- Generator: Adobe Illustrator 18.1.1, SVG Export Plug-In . SVG Version: 6.00 Build 0)  -->
<svg version="1.1" xmlns="http://www.w3.org/2000/svg" xmlns:xlink="http://www.w3.org/1999/xlink" x="0px" y="0px"
	 viewBox="0 0 320.8 335" enable-background="new 0 0 320.8 335" xml:space="preserve">
<g id="Layer_1">
</g>
<g id="Layer_2">
	<g>
		<g>
			<path fill="#FFFFFF" d="M211.6,163.3c0.7,4.2,2.6,9.8,0.6,13.8c-2-1.1-2.9-4-5-4.7c0.9,5.9,1.9,11.9,1.7,17.9
				c-0.3,8.1-4.2-3-6.7-3.9c0,9.9,0,18.9-4.8,27.9c-0.6,1.1-5.3,9.3-6.5,7.4c-1.8-2.8-2.1-9.8-5.4-11.2c0.5,5.3-0.5,8.2-2.7,13.1
				c5.3,0.5,9.3,1,14.3-1.2c5.6-2.4,11.2-4.9,16.8-7.3c6-2.6,12.1-5.2,18.1-7.8c4.7-2,9.8-3.5,13.2-7.7c3.3-4.2,6.4-2,8.3,2.5
				c1.7,4.1-1,10.8-2.2,14.8c-1.7,6-3.8,11.9-5.4,17.9c-1.6,5.9-2.1,11.9-4.6,17.5c-8.5,19.1-23.1,36.7-42.9,44.4
				c-9.8,3.8-19,6.5-29.2,8.8c-6,1.3-11.9,1.9-18,2.1c-3.9,0.1-10.9,0.9-14.7-0.8c1.5-1,3.2-0.8,4.9-1.5c2.7-1,5.3-2.4,7.9-3.7
				c4.5-2.2,9-4.5,13.3-7.1c8.2-4.9,20.2-11.3,25.6-20.2c-6.4,1.3-12.9,2.6-19,4.8c-3.3,1.2-6.8,2.5-9.8,4.4
				c-2.7,1.7-4.5,4.7-7.3,6.1c-0.4-4.8,2.6-10.9,4.4-15.4c2.1-5.2,5.6-10,9.1-14.2c7.6-9.2,21.7-12.6,33-13
				c10.6-0.4,24.3,3.7,32.4-5.1c3.7-3.9,6.7-8.9,8.7-13.9c1.7-4.2,5.2-12.2,4.2-16.6c-10.9,7.5-24.6,12.1-37.1,16.1
				c-7.5,2.4-15.6,5.3-23.5,5.6c-3,0.1-6.3-1.3-9.2-0.4c-3.1,1-4.9,5.8-7.1,8c-5,5-12.6,8.3-18.9,3.7c-3.9-2.9,5.8-14.1,8.1-15.9
				c6.6-5.3,11.9-9.3,16.7-16.5c2.8-4.1,7-13.1,3.4-17.8c-1.5-2-5-1.6-5.9-4.1c-0.9-2.8,0.5-6.4,1.5-9c1.3-3.6,0.8-4.4-2.9-5.4
				c-3-0.8-7.4-2.9-8.9,1.2c-0.8,2.2-1.6,6-3.7,7.3c-2.5,1.5-5.4-0.1-8.1,1c-6.8,2.9-6.4,12-7.5,18.2c-0.6,3.5-1.9,4.7-4,7.4
				c-2.1,2.7,1.4,7.2,2.2,9.5c2.1,5.7,5.1,14,0.3,19.2c-3.8,4.1-11.3,1.1-11.8-4.2c-0.5-5.5,5.5-14.1,2.2-18.6
				c-1.4,3.9-1.8,18.5-9.2,14.8c-7.1-3.6-4-18.6-4.5-25c-0.8-9.5-2.5-19.5-5.4-28.6c-1.3-4.2-2.9-8.2-3.9-12.4
				c-1.4-5.6-4.6-2.5-6.3,1.4c-3.6,8.1-4.6,15.7-3.9,24.5c0.7,8.2,9.2,13.8,12.6,20.9c3.8,7.7,7.3,16.2,7.8,24.8
				c0.3,6.9-1.7,22.9-8.6,26.5c-1.3-2.9-1.2-22.9-4.8-22.7c-4.3,13.1-5.1,27.1-3.2,40.8c0.2,1.1,2.9,13,0.5,10.9
				c-5.2-4.5-9.6-8.6-13.5-14.2c-8.2-11.6-15.6-24.7-18.7-38.5c-3-13.6-2.3-28,1.4-41.3c3.3-11.9,9.1-23,16.6-32.8
				c3.9-5,7.5-10.6,11.8-15.2c3.3-3.5,11.7-2.8,13,2.4c0.6,2.5,0.1,5,0.4,7.5c0.5,3.9,1.8,6.8,3.4,10.3c3,6.6,4.7,13.8,7.7,20.4
				c0.9,2.1,1.3,3.1,3.2,1.3c2.5-2.3,1.7-4.7,1.8-7.7c0-6.7-6.1-4.6-9.6-8.1c5.5-5.5,13.7-8.3,19.8-13.3c4.6-3.8-15.1-8-16.1-8.7
				c2.6-3.5,8.5-4.8,12.3-6.4c2.3-1,4.7-1.9,7-2.9c1.7-0.7,6.4-1.2,7.4-2.7c-3.1-0.5-7.1-0.3-9.8-1.8c4-4.6,11.9-6.7,17.4-8.8
				c-5.6-2.4-3.6-3,1.5-4.5c5.2-1.5,10.5-3,15.7-4.5c10.1-2.9,20.7-6.6,28.8-13.4c14.7-12.3,22.6-36,16.4-54.4
				c-2.7-8-12-14.3-20.5-12.5c-12.1,2.6-5.8,15.2-8.2,23.3c-2.6,8.8-10.8,15.6-18.5,20.2c-4,2.3-8.3,4.8-12.7,5.9
				c-2.9,0.7-10.5,3.4-15.9,2.3c14.9-7.2,25.9-19.5,29.5-35.8c-4.4,2.9-8.9,5.6-13.2,8.7c-4.4,3.2-6.5,8.2-10.5,11.5
				c-3.2,2.6-2.4-9.1-2.4-10.5c0-6.6,1.8-14.2,5.1-19.9C162,30.1,194,20.1,211.9,32.7c9.5,6.7,13.6,17.1,15.7,28
				c2.4,12.8-1.2,24.3-6.2,36c-4.8,11.3-14.8,22.1-11.8,35.3c1.3,5.9,3.5,11.5,5,17.4c1,4,2.7,14.6-0.1,18
				C213.8,166.7,212,163.2,211.6,163.3C212.1,165.9,211.7,163.3,211.6,163.3z M149.2,164.5c5.3,0.7,10.5,1.4,15.7,2.6
				c4.6,1,10,1.6,14.1,3.9c1.9,1,11.5,6.2,13.3,5.2c3.2-1.8,3.2-8.5,1-10.5c-7.1-6.6-17-12.1-26.7-13.3c-4-0.5-8.7-0.8-12.7,0.1
				C146.7,154.3,148.1,158.6,149.2,164.5C152.4,165,149.2,164.5,149.2,164.5z M173.8,32.8c4.4,1.2,9.5,1.8,12,6.4
				c2.4,4.6-3.1,8-6.2,9.9c-9.8,6-19.3,9.8-25.7,19.9c0.7,0.6,18.2-12.5,20.4-13.1c0.7,6.5-3.9,14.4-7.6,19.4
				c-4.1,5.5-7.8,9.8-13.2,14.1c1.5,2.4,12.3-7.4,13.7-9.1c4.1-5.3,6.1-12,8.6-18.1c1.2-2.9,2.3-6,4.9-8c2.5-1.9,5.7-3.7,7-6.8
				c1.2-3,1.4-6.4,2.5-9.5c1.1-3.1,2.8-6.1,4.2-9C187.3,28.7,180.4,30.2,173.8,32.8C174.5,32.9,180.6,30.2,173.8,32.8z M108.1,251.9
				c2.2-0.1,0.1-15.1-0.7-17.5c-2.3-7.5-5.2-12.8-9.7-19.1c-4.8-6.8-7.6-10.8-4.9-19.2c2.2-6.9-6.5-6.5-11.2-6
				c5.8,6.3,6.9,14.2,11.5,21.1c3.9,5.9,10.3,12.2,8.3,20c-2,8-5.3,16.3-6.4,24.5c-1.1,8.2,1.2,16.7,3.6,24.4
				c-0.5-7.1-0.6-14.2-0.2-21.4c0.4-7.3,3.9-14.2,3.9-21.4C106.5,237.9,107.4,248.2,108.1,251.9
				C108.3,251.9,107.7,249.9,108.1,251.9z M198.2,140.2c0.8-6.1,1.7-12.3,4.9-17.6c-5.8-2.7-10.4-1.4-15.6,1.9
				c-4.6,2.8-10.1,3.8-14.6,6.6c0.6,2.1,11,3.5,13.1,4.1C190.2,136.2,194.2,138.3,198.2,140.2C198.9,133.9,198.2,140.2,198.2,140.2z
				 M201.6,248.7c-0.2-1.1-3.2-0.1-4,0c-3.4,0.5-2.7,0.8-3,4c-0.3,4-4.1,6.4-7.2,8.3c-9.5,6-17.8,10.6-25.2,19.1
				c2.2,1.1,11.9-4,14.5-4.7c3.5-0.9,12.3-4.4,15.6-2.2C192.3,262.6,192.5,255.2,201.6,248.7C201.6,248.5,200.8,249.2,201.6,248.7z
				 M237.7,235.6c-3.6,4.7-7.1,9.8-12.7,12.2c5.9,5.3,7.3,12.3,6,20C234.4,262.7,250.9,238.3,237.7,235.6
				C237.7,235.6,239.7,236,237.7,235.6z M110.2,245.5c1.5,0.1,1.3-11.1,1.2-12.7c-0.5-4.9-2.4-9-3.9-13.5c-1.4-4.3-1.5-7.9-4.3-11.6
				c-3.2-4.3-6.1-9.1-8.6-13.8c-4.1,9.3,0.3,14.8,5.5,22.5C106.6,225.9,109.2,234.1,110.2,245.5C110.3,245.5,110,243.6,110.2,245.5z
				 M73.3,192.8c7.2-4.2,12.2-6.3,20.3-2.4c-1.3-7.9-4.8-14.9-6.4-22.9c-1.9-0.3-6.6,9.4-7.6,11.1C77.1,183.3,75,188,73.3,192.8
				C76,191.3,73.3,192.8,73.3,192.8z M156.4,168.1c-2-0.4-4-0.7-6-1.1c-3.3-0.6-4.1,1.2-6.8,3.1c-2.5,1.7-10.6,5-8.9,9
				c1.9,4.6,9.8,1.2,12.6-0.5C151.7,175.8,154.1,172.5,156.4,168.1C153.7,167.6,156.6,168.1,156.4,168.1z M186.2,198.2
				c3-2.6,3.8-9,4.6-12.7c1.1-5.5,1.7-8.2-4.4-9c-2.7-0.3-4.1-1.1-4.6,1.9c-0.4,2.3-1.7,4.7-1.7,7.1
				C180.2,189.8,184.1,194.6,186.2,198.2C187.3,197.2,186.2,198.2,186.2,198.2z M191.7,273.8c-6.5,5.3-12,11.2-19,15.9
				c-7.1,4.8-14.8,8.6-22.1,13.2c8.4-1.6,17.3-5.6,24.7-9.7C182.2,289.2,191.2,282.5,191.7,273.8C191.2,274.2,191.5,277,191.7,273.8
				z M108.5,165.4c2.1,0-0.3-3.3-0.2-4.6c0-2.8,1.2-5.5-0.5-8.1c-3.2-4.9-8.4-0.8-10.4,2.8c-1.1,2-1.7,4.2-1.9,6.4
				c-0.3,3.8,4.1,1.1,5-0.3C104.6,154.7,107,160.7,108.5,165.4C109.6,165.3,108.5,165.4,108.5,165.4z M206.4,225.9
				c2.7,0,6.3-2.4,8.9-3.2c3.5-1.1,5.1-3.5,2.6-6.8c-1.3-1.8-7.7,2.4-9.5,3.1C204.7,220.5,206,222.4,206.4,225.9
				C206.4,225.9,206.2,224.1,206.4,225.9z M203.3,40.7c1.8,0.6,5,2.6,6.9,1.4c1.6-1,6.9-3.6,3.8-5.6c-1-0.7-5.6-5.4-6.9-4.1
				C204.8,34.7,202.8,37.2,203.3,40.7C204.9,41.2,203.3,40.7,203.3,40.7z M241.3,228.6c1.5,0.5,3.7,1.9,4.5-0.3
				c0.9-2.3,3.8-7.3,3.3-9.7c-0.5-2.4-4.4-0.6-5.2,0.4C242.1,221.3,241.3,228.6,241.3,228.6C242.1,228.9,241.3,228.6,241.3,228.6z
				 M233,215.3c2.3,0.2,8.4-2.9,8.7-5.5c0.9-7.1-6.5-2-9.8-0.6C233.1,211,234,213.1,233,215.3C233.2,215.3,233,215.3,233,215.3z
				 M226.5,64.6c0.7-1.8-1.1-12.5-3.9-11.7c-3.7,1-0.4,8.9,0,12.2C223.8,64.9,225.2,64.8,226.5,64.6
				C226.4,64.7,225.1,64.8,226.5,64.6z M115.8,192.2c0.5-1.2,3.9-13.9-0.1-13.2C111.5,179.8,114.7,190.3,115.8,192.2
				C115.8,192.2,114.3,189.5,115.8,192.2z M220.6,82.2c-0.5,2.2-1.1,4.4-1.6,6.6c2.5,0.2,3.4,1.2,4.3-1.4c0.7-1.9,1.4-3.9,2.1-5.8
				C223.5,81.4,222.4,81.7,220.6,82.2C220.1,84.2,221.8,81.9,220.6,82.2z"/>
		</g>
		<g>
			<path fill="#FFFFFF" d="M166.5,207.9c1.7,0.8,3.4,1.6,5.1,2.3c-1.6,1.1-3.1,2.2-4.7,3.3c-0.4-0.8,1.2-1.5,0-2.4
				c-1.3-1-2.4-1.5-2.7-3.3c-0.3-2-0.2-4-0.3-5.9c-0.1-1.8-0.1-4.4-1-6c-0.8-1.3-2.4-0.7-3.3,0.1c-1.3,1.2-1.8,2.9-2,4.6
				c-0.2,1.9,0,3.8,0,5.7c0,0.4,0.1,2.9-0.5,1.6c-0.4-1-0.3-2.4-0.4-3.4c-0.2-2-0.3-4-0.5-6c-0.2-1.4-0.7-2.7-2.4-2.4
				c-1.5,0.3-2.4,1.9-2.8,3.3c-0.6,1.8-0.5,3.6-0.6,5.4c0,1-0.1,1.9-0.1,2.9c-0.1,1-0.6,1.7-0.8,0.4c-0.3-2,0-4-0.4-5.9
				c-0.3-1.6-1.1-2.6-2.3-3.8c-0.5-0.5-0.3-1.1,0.1-1.6c0.5-0.7,1.5-0.2,2,0.1c0.8,0.5,0.8,1.4,1,2.3c1-1.8,2.1-4.9,4.5-5
				c2.4-0.1,2.7,1.7,2.8,3.6c1.2-1.9,2.4-4,4.9-4.1c3-0.1,2.9,3.3,2.8,5.3c-0.1,2.9-0.1,5.8,0.2,8.6c0.1,0.8,0.5,2.4,1.6,2.3
				c0.4-0.1,0.5-0.4,0.5-0.8C167.1,208.5,166.3,208.3,166.5,207.9C168.2,208.6,166.5,208,166.5,207.9z"/>
		</g>
	</g>
</g>
</svg>
