<?xml version="1.0" encoding="utf-8"?>
<!-- Generator: Adobe Illustrator 18.1.1, SVG Export Plug-In . SVG Version: 6.00 Build 0)  -->
<svg version="1.1" xmlns="http://www.w3.org/2000/svg" xmlns:xlink="http://www.w3.org/1999/xlink" x="0px" y="0px"
	 viewBox="0 0 320.8 335" enable-background="new 0 0 320.8 335" xml:space="preserve">
<g id="Layer_1">
</g>
<g id="Layer_2">
	<g>
		<g>
			<g>
				<g>
					<path fill="#FFFFFF" d="M253.4,52.4C253.3,52.3,253.3,52.7,253.4,52.4L253.4,52.4z"/>
					<path fill="#FFFFFF" d="M287.9,112.6c-3.2-9.1-10.2-15.9-17.9-21.4c-8-5.7-15-13.1-16.3-23.4c-0.7-5.6-0.1-10.5,1.8-15.7
						c1.3-3.4,3-6,5.9-8.1c-6.4,0.1-12.3,11.7-14.1,16.8c-2.5,7-3,14.5-0.3,21.5c4.3,11.1,24.2,29.6,8.8,39.9
						c-14,9.4-34.5,9-50.6,9.2c-7.9,0.1-17,2.4-23.6,6.8c-4.3,2.8-4.7,3.9-9.9,2.4c-3.8-1-7.6-1.8-11.4-2.4c-4.5,0.8-8.9,1.8-13.3,3
						c-3.8,1.1-4.8-0.9-7.9-3c-6.6-4.4-15.7-6.7-23.6-6.8c-16.1-0.2-36.6,0.3-50.6-9.2c-15.3-10.3,4.5-28.9,8.8-39.9
						c2.7-7,2.2-14.5-0.3-21.5c-1.9-5.1-7.6-16.6-14.1-16.8c3.3,3.2,5.1,5.7,6.5,10c1.7,5.2,1.9,10.5,0.9,15.9
						c-1.8,9.3-8.6,16.1-16,21.4c-7.9,5.7-16.1,13.2-18.4,23c-1.9,8.2,1.7,18.3,7,24.6c12.9,15.2,33.5,24.7,52.3,30.4
						c10.4,3.2,21.8,4.8,31.6,9.7c7.5,3.8,17.3,8.3,21.4,16.2c-5.7-3.2-11.4-7.5-17.8-9c-7-1.7-14.1-2.1-21.2-0.9
						c-3.6,0.6-7.1,2.1-10.8,3.9c-0.8,0.4-1.7,1.7-2.5,1c-0.9-0.8-1.9-1.5-2.9-2.1c-5.1-2.9-11.6-3.9-17.4-4.2
						c-6.6-0.3-12.9,1.1-19.4,2.1c-0.7,0.1-6.6,0.2-4.1,2.4c2.4,2.1,4.7,4.1,6.9,6.3c5,5,11.1,7.9,17.8,10.1
						c2.3,0.7,4.8,0.8,6.7,2.4c2.3,1.9,4.3,4.2,6.5,6.2c9.8,9.1,20.3,17.7,29.4,27.6c2.2,2.4,5.6,5.1,6.4,8.3c0.8,3.5,1.6,7,2,10.5
						c0.5,3.6,2.4,3.8,4.7,6.3c2.2,2.4,2.3,4.9,3.5,7.7c2.3,5.6,3.9,10.3,9.5,13.3c5.5,3,12.3,4,18.5,3.8v0c0.3,0.3,0.9,0.4,1.8,0.1
						c6.4,0.4,13.7-1.9,19-5.4c4.3-2.9,6.2-8.6,7.8-13.4c1.2-3.7,2.2-5.8,5.4-8.2c2.7-2.1,2.3-5.3,2.8-8.5c0.4-2.1,0.6-6.3,2-8
						c2.4-2.7,4.8-5.5,7.3-8.1c9.2-9.7,19.5-18.2,29.3-27.3c2.2-2,4.5-5.4,7.4-6.2c2.7-0.7,5.4-1.4,8-2.4c6-2.3,10.9-5.4,15.3-10.1
						c0.8-0.9,7-5.6,6-6.6c-1.3-1.2-5.5-1-7.3-1.4c-6-1.2-12.4-2.1-18.6-1.4c-6.3,0.7-13.5,1.8-18.3,6.2c-0.9,0.8-12.9-4.9-15.4-5.2
						c-6.6-0.7-14.1-0.7-20.4,1.6c-5.8,2.2-11,5.6-16.4,8.6c4.2-8.1,15.2-13.6,23.3-17c9.6-4,19.9-5.8,29.8-8.9
						c18.7-5.8,39.3-15.2,52.3-30.4C287,132.2,290.9,121.1,287.9,112.6z M252.2,90.2c-2.3-4.2-4.6-8.4-5.5-13.1
						c-0.9-4.6-0.1-9.4,1-13.9c0.4-1.6,3.6-11.3,5.7-10.8c-1.1,3.8-2.7,6.7-3.2,10.7c-0.5,4.4,0,8.5,0.7,12.9
						c1.5,9.2,6.8,17.4,9.5,26.2C258,100,253.9,93.3,252.2,90.2z M69.9,76c1.1-6.9,2.3-16.4-2.2-22.5c-0.1-0.4-0.2-0.7-0.3-1.1
						c2.1-0.5,5.4,9.3,5.7,10.8c1,4.5,1.9,9.3,1,13.9c-0.9,4.7-3,9.2-5.8,13.1c-2.2,2.9-4.9,10.3-7.9,12.1
						C63.1,93.4,68.4,85.1,69.9,76z M80.7,164c-3-1.2-7.3-2.3-9.8-4.2c-4.7-3.5-11.1-6.5-13.9-12c-3.6-7-5.3-14.4-4.6-22.3
						c0.6-6.8,1.6-16.8,6.4-22.2c-1,3.9-2,8.1-2.6,11.2c-2,9.7,4.7,21.7,10.1,29.2c3.7,5.1,8.7,10,13.5,14.1
						c4.2,3.6,9.9,6.7,13.5,10.7C88.9,167.8,84.7,165.6,80.7,164z M105.2,153.2c-3.1-0.2-6-0.7-9-1.2c-6.7-1.3-13.8-4.6-19.5-8.3
						c-5.3-3.4-10.9-7.6-14.4-12.9c-3.1-4.7-6.4-13.2-4.5-18.8c2.4,12.9,13.6,13.8,23.6,19.1c5.2,2.7,11,4.2,16.2,6.9
						c5.8,3.1,10.6,6.8,15.1,11.5c1.1,1.2,2.2,2.4,3.3,3.6C113,154.1,105.2,153.2,105.2,153.2z M148.4,217.4
						c-6.7-1.3-12.2-2.6-18.2-6c-3.8-2.2-6.6-5.4-8.7-9.2C131.7,203.3,143.6,207.6,148.4,217.4z M55.2,190.7c-6.1-5,6.8-5.4,9.5-5.5
						c6.6-0.4,13.9-0.1,20.2,2.1c2.6,0.9,5,2.3,7.1,4C80.7,196.9,65.7,199.4,55.2,190.7z M127.3,262.8c-1.9-2.5-1.5-7.9-2.2-10.9
						c-0.8-4-1.1-7.5-4.2-10.3c-7.6-6.6-15.3-13-22.9-19.6c-3.4-2.9-6.4-6-9.9-8.8c-2.7-2.2-5.6-4.1-7.7-6.8
						c9.6,0,18.8,1.2,28.2-1.7c1.1-0.3,4.3-2.2,4.8-0.3c0.5,2.1,1.1,4.3,1.7,6.4c1.2,4.2,2.4,8.3,3.5,12.5c0.4,1.4,7,2.5,8.6,3.3
						c3.2,1.5,8.1,4.6,9.3,8.1c2.7,7.9-2,14.2-9,17.8c1.3,4.4,13.3,7.6,17.2,7.9C140.2,266.1,132.6,269.9,127.3,262.8z M147.7,278.6
						c-3.3,0.9-8.6-6.1-3.8-6.9c1.7-0.3,4.2,2,5.2,3.2C151,277.1,149.6,278,147.7,278.6z M178.4,275.4c-1.3,1.8-2.9,3.2-5.2,3.2
						c0,0,2.5,0,0,0c-5.6,0.5,0.7-5.5,2.2-6.5C177.5,270.6,179.8,273.4,178.4,275.4z M249.6,185c1.9,0,19.1,0.3,17.7,3.5
						c-2.4,5.3-12.6,8.4-17.9,7.9c-7.2-0.7-14.1-1.9-20.7-5.1C234.4,186.6,242.4,185,249.6,185z M202.2,223.2
						c1.3-4.9,2.8-9.7,4.1-14.6c0.3-1,0.5-5.7,2.3-5.1c1.8,0.6,3.5,1.1,5.3,1.7c8.7,2.6,17.6,1.2,26.4,1.2c-2.6,3.2-6.1,5.5-9.3,8.1
						c-3.4,2.7-6.4,5.9-9.7,8.8c-7.7,6.6-15.5,13.1-23.2,19.8c-2.2,2-2.4,7.9-2.9,10.7c-0.5,2.8,0,8.2-2.7,10
						c-3.6,2.4-4.6,4.2-9.1,2.5c-3.2-1.2-5.3-3.1-7.3-5.8c0,0,0.1,0.1,0.1,0.2c0-0.1-0.1-0.1-0.1-0.2c3.9-0.3,15.9-3.5,17.2-7.9
						c-6.9-3.6-13.1-11.4-8.4-19.2c2.2-3.6,7-5.4,10.3-7.6C196.9,224.5,201.7,225.2,202.2,223.2z M198.4,202.2
						C198.4,202.3,198.3,202.3,198.4,202.2C198.3,202.3,198.4,202.3,198.4,202.2z M199.3,202.1c-5.6,10.3-16.2,13.2-26.9,15.3
						C177.2,207.6,189,203.3,199.3,202.1z M164.9,151.7c4.5,0.5,9,3.1,11,7.2c2.2,4.4,2.9,9.7,0.6,14.2c-2.1,4.2-6,6.5-8.9,9.9
						c-3.7,4.4-4.9,11.9-5.5,16.7c-0.6,5.5-1,11.3-1.4,16.8c-0.2,2.5-0.2,5.3-0.2,7.9c2,0.8,4.4,1.3,5.9,2.9
						c2.5,2.9,5.6,6.2,6.1,10.2c-4.2,0.3-7.2-1.2-6.7,4.4c0.4,4.4,2.4,7.3,3.6,11.4c-1.8,0.5-3.5,0.9-5.3,1.4l-3.5,0.9
						c-2.9-0.8-5.9-1.5-8.8-2.3c1.1-4.1,3.2-7,3.6-11.4c0.5-5.7-2.5-4.1-6.7-4.4c0.5-4,3.5-7.3,6.1-10.2c1.4-1.6,3.9-2.1,5.9-2.9
						c0-2.5,0-5.1,0-7.6c-0.2-2.2-0.9-14.1-1.3-17c-0.6-4.9-1.7-9.3-3.9-13.8c-2-4.2-6.3-6.4-9.1-10c-3-3.7-3.8-8.2-2.8-12.8
						c1.9-8.7,8.9-11.7,17-11.6 M213.6,153.3c-2.4,0.6-6.6,1.2-8.9-0.1c9.5-10.5,19.8-16.2,32.9-21.2c10.5-4,23-7.6,25.3-20
						c1.9,5.6-1.3,14.1-4.5,18.8c-3.5,5.3-9.1,9.4-14.4,12.9c-5.7,3.7-12.8,7-19.5,8.3C220.9,152.6,217.2,152.4,213.6,153.3z
						 M262.9,149.2c-1.9,2.7-4.6,4.6-7.2,6.6c-1.8,1.4-5.1,3.9-7.1,4.7c-6.7,2.6-13.8,7-21,7.8c3.6-4,9.3-7.1,13.5-10.7
						c4.8-4.1,9.8-9,13.5-14.1c3.2-4.5,5.7-9,7.7-14.2c1.7-4.6,2.7-8.4,2.9-13.5c0,0,0,0,0-0.1c-0.4-5.3-2.2-8.5-3.2-12.6
						c5,6,6.1,17,6.6,24.5C269,135,267.1,143.2,262.9,149.2z"/>
				</g>
			</g>
		</g>
		<path fill="#FFFFFF" d="M171.3,163.1c0.4-1.3,1-3.1-0.3-4c-1.1-0.7-2.9-0.8-3.9-0.2c-1.2,0.6-2.1,2-2,3.4c0.1,1.6,1.2,2.2,2.2,3.3
			c1.8,1.9,2.3,4.9,1.6,7.3c-0.8,2.7-3.5,4.8-6.2,5.2c-6,1-13.4-5.3-8.8-11.1c1-1.3,2.3-2.3,2.4-4.1c0-1.5-0.7-2.9-2.1-3.4
			c-1.2-0.4-2.7-0.2-3.8,0.5c-1,0.7-1,2-0.9,3.1c-0.5-0.8-0.5-1.1-0.5-2c0-0.8,0.4-1.5,0.9-2.1c1.3-1.4,3.1-1.9,5-1.3
			c1.4,0.5,2.5,1.5,3.1,2.9c0.6,1.5,1.7,3,3.6,2.5c1.5-0.5,1.6-2.5,2.3-3.7c0.8-1.4,2.2-2.2,3.7-2.5c1.5-0.2,3.2,0.1,4.4,1.2
			c1.2,1.1,1.1,3.6,0.3,4.2C172.4,162.1,171.3,163.1,171.3,163.1z M156,170.8c0.1,2.5,1.7,5.7,4.4,6.1c3,0.4,5.4-3.7,5.4-6.3
			c0-2.7-2.5-5.8-5.4-5.5C157.6,165.3,156.1,168.3,156,170.8C156.1,172.2,156.1,168.3,156,170.8z"/>
	</g>
</g>
</svg>
