<svg xmlns="http://www.w3.org/2000/svg" width="65.7" height="43.4" viewBox="0 0 65.7 43.4"><g fill="currentColor"><path d="M65.5 15.6c-.1-.4 0 4.9-3.3 5.7-4.8 1.2-6.5-7.3-8.8-12.4C50.3 2 47 0 43.6 0c-2.3 0-3.5 1.5-4.5 3.4-.6 1.2-6.4 17.4-9.7 18.5-4.7 1.6-6.8-7.9-9.1-12.9-3-7-6.4-9-9.7-9C5 0 4 9.6 4 9.6s.7-4.3 3.5-5.3c3.9-1.4 4.9 1.5 6.9 7.1 1.1 3.2 4.1 9.2 5 10.8 2.6 4.6 5.8 5.3 8.4 4.1C33 23.9 38.5 5 40.6 4.4c4.4-1.2 4.9 1.5 6.9 7.1 1.2 3.2 4.1 9.2 5 10.8 2.6 4.6 5.7 5 8.4 4.1 3.9-1.4 5.4-5.4 4.6-10.8zM61.5 32.2c-.1-.4 0 4.9-3.3 5.7-4.8 1.2-6.5-7.3-8.8-12.4-3.1-6.9-6.4-8.9-9.8-8.9-2.3 0-3.5 1.5-4.5 3.4-.6 1.2-6.4 17.4-9.7 18.5-4.7 1.6-6.8-7.9-9.1-12.9-3.1-6.9-6.4-8.9-9.8-8.9C1 16.6 0 26.2 0 26.2s.7-4.3 3.5-5.3c3.9-1.4 4.9 1.5 6.9 7.1 1.1 3.2 4.1 9.2 5 10.8 2.6 4.6 5.8 5.3 8.4 4.1C29 40.5 34.5 21.6 36.6 21c4.4-1.2 4.9 1.5 6.9 7.1 1.2 3.2 4.1 9.2 5 10.8 2.6 4.6 5.7 5 8.4 4.1 3.9-1.4 5.4-5.4 4.6-10.8z"/></g></svg>