<svg xmlns="http://www.w3.org/2000/svg" viewBox="0 0 57.6 46.6"><path fill="currentColor" d="M56 6.3C54.7 4 51.1-.2 45.6 0 39.5.2 34 1.1 28.8 10.6 23.6 1.1 18.2.2 12.1 0 6.5-.2 2.9 4 1.6 6.3c-3.9 6.7-.1 14 4.3 15.5 3.8 1.3 8 0 8 0s-7.2-.8-9.4-5c-1-1.9-2.1-6.1 1.9-9.3 4-3.2 9.9-1.8 14.3 1.5 5.6 4.2 6.8 12.8 3.1 27.2-1.2 4.8.7 10.9 5 10.3 4.4.5 6.3-5.5 5-10.3C30.2 21.8 31.4 13.3 37 9c4.4-3.3 10.3-4.7 14.3-1.5s2.9 7.4 1.9 9.3c-2.2 4.2-9.4 4.9-9.4 4.9s4.3 1.3 8 0c4.4-1.4 8.1-8.7 4.2-15.4zM28.8 46.5c-.5-.2-2.9-.9-1.2-4.9.4-.9.8-2 1.2-3.4.4 1.4.9 2.5 1.2 3.4 1.7 4-.7 4.7-1.2 4.9z"/></svg>