<svg id="icon-capricorn" xmlns="http://www.w3.org/2000/svg" viewBox="0 0 57 68.8"><path d="M49.5 42.3c-1.8-.2-3.8.5-5.7 1.8-.1-.2-.1-.3-.2-.5-.9-3.3-2.6-24.8-3.4-29.3C38.4 4.7 34.8 1.1 30.5.1c-6.2-1.4-10.1 7.5-10.9 9.7-2-6.3-5-8.8-8.5-9.7C4.1-1.5 0 10.3 0 10.3s2.1-5.1 6-5.6c5.3-.6 5.7 3.4 6.5 10.9.5 4.3 1.6 9.8 2.3 12.1 1.9 6.6 4.3 8.2 7.6 11.1-1.5-10.4-.4-17.5-1.7-24.5-.3-1.7-.7-3.1-1.1-4.4.6-1.2 2.6-4.8 5.8-5.2 5.3-.6 5.8 3.4 6.5 10.9 1.5 15.6 6.4 31.1 7.4 33.2-1.1 1.8-1.8 3.9-2.1 6.2-1.2 11.6-7.8 12.6-11.5 13.4-4 .9 8.2.2 11.9-5.8C40 58.8 40 54.8 41 51.7c2.9 4.3 6.5 6.8 11.8 4.1 6.1-3.1 5.9-12.7-3.3-13.5zm-2.8 9.1c-.9-1.4-1.4-2.6-1.9-4 4.8-2.5 7.9-.9 7.9 2.6s-4.4 4-6 1.4z"/></svg>