<svg xmlns="http://www.w3.org/2000/svg" viewBox="0 0 49.4 55.3"><path d="M46.6 40.1c-1.4-.8-3.9-.7-5.1 1.1-1.1 1.8-.3 3.6.6 4 1.3.6 2.1 0 2.1 0s-1.9.2-2.1-1.7c-.1-1.9 3.2-2 4.1-1.2.9.8 2.1 4.2-1.4 7.2-2 1.7-8.5 2.7-11.4-2.1-3.4-5.6.3-10.1 3.5-14.9 3.2-4.8 9.2-13.1 8.5-19.4S39.4 1.7 34.5.5C29-.7 17.8-.3 15 6.2c-2.8 6.5.7 16-.6 21s-7.3 7.9-10.9 4c-3.6-3.9-1-7.7-1-7.7s-3.8 4.3-2.2 8.4 4.6 5.8 8.5 5.5c8.5-.7 12.2-6.1 11.9-12.2s-2.6-14-.3-18.2c2.5-4.5 4-6.5 8.9-6.5 5.3-.1 8.6 6.2 8.6 10.9S28.6 29 27.4 37.3c-.9 6.1-.8 12.1 3.3 15.5 6.7 5.5 15.5.7 17.6-2.8 2.1-3.5.9-8.5-1.7-9.9z"/></svg>