<svg id="Layer_1" xmlns="http://www.w3.org/2000/svg" viewBox="0 0 45.5 53.1"><path d="M17 38.8s.7-4.9 0-5.8v-.1c-2.5-3.3-4.2-8.6-4.2-14.7 0-10 4.5-18.1 10-18.1-9.4 0-17 8.1-17 18.1 0 6.3 3 11.8 7.6 15.1C5.5 34.1 0 35.8 0 35.8s7.2 2.3 17 3zm15.8-20.7c0 6.1-1.7 11.5-4.2 14.7v.1c-.7.9 0 5.9 0 5.9 9.8-.7 17-3 17-3s-5.5-1.7-13.3-2.6c4.6-3.2 7.6-8.8 7.6-15.1 0-10-7.6-18.1-17-18.1 5.4 0 9.9 8.1 9.9 18.1zm-3.4 22.7c-3.5-.6-9.9-.7-13.4 0C5.6 43.1 3.6 53.1 3.6 53.1s3.6-3.1 7.7-5.2c2.5-1.3 7.8-1.8 11.5-1.9 3.7.1 8.9.6 11.5 1.9 4.1 2.2 7.7 5.2 7.7 5.2s-2.1-10.5-12.6-12.3z"/></svg>