<svg xmlns="http://www.w3.org/2000/svg"><symbol class="icon icon-pisces" id="icon-pisces" viewBox="0 0 39.7 51.6"><path fill="currentColor" d="M31 26.1v-.2l7.3.2s-3-1.7-7.2-3c.2-4.4.7-10.4 2.3-13.3C36 4.9 39.7.5 39.7.5S27.1 3 25 15.6c-.4 2.4-.6 4.3-.8 6-1-.1-2-.2-3-.2h-2.7c-1 0-2 .1-2.9.2-.1-1.7-.4-3.9-.8-6.5C12.6 2.5 0 0 0 0s3.7 4.3 6.3 9.3c1.6 3.1 2.1 9.4 2.3 13.8-4.2 1.3-7.2 3-7.2 3l7.3-.2c-.1 4.2-.5 12.3-2.3 15.9-2.6 5-6.3 9.3-6.3 9.3S12.6 48.6 14.7 36c.8-5.1 1-8.4.9-10.3l4.2-.1 4.2.1v.4c0 1.9.1 5.2 1 10.4 2.1 12.6 14.7 15.1 14.7 15.1s-3.7-4.3-6.3-9.3c-2-3.7-2.3-12.2-2.4-16.2z"/></symbol><symbol class="icon icon-aquarius" id="icon-aquarius" viewBox="0 0 65.7 43.4"><path fill="currentColor" d="M65.5 15.6c-.1-.4 0 4.9-3.3 5.7-4.8 1.2-6.5-7.3-8.8-12.4C50.3 2 47 0 43.6 0c-2.3 0-3.5 1.5-4.5 3.4-.6 1.2-6.4 17.4-9.7 18.5-4.7 1.6-6.8-7.9-9.1-12.9-3-7-6.4-9-9.7-9C5 0 4 9.6 4 9.6s.7-4.3 3.5-5.3c3.9-1.4 4.9 1.5 6.9 7.1 1.1 3.2 4.1 9.2 5 10.8 2.6 4.6 5.8 5.3 8.4 4.1C33 23.9 38.5 5 40.6 4.4c4.4-1.2 4.9 1.5 6.9 7.1 1.2 3.2 4.1 9.2 5 10.8 2.6 4.6 5.7 5 8.4 4.1 3.9-1.4 5.4-5.4 4.6-10.8zM61.5 32.2c-.1-.4 0 4.9-3.3 5.7-4.8 1.2-6.5-7.3-8.8-12.4-3.1-6.9-6.4-8.9-9.8-8.9-2.3 0-3.5 1.5-4.5 3.4-.6 1.2-6.4 17.4-9.7 18.5-4.7 1.6-6.8-7.9-9.1-12.9-3.1-6.9-6.4-8.9-9.8-8.9C1 16.6 0 26.2 0 26.2s.7-4.3 3.5-5.3c3.9-1.4 4.9 1.5 6.9 7.1 1.1 3.2 4.1 9.2 5 10.8 2.6 4.6 5.8 5.3 8.4 4.1C29 40.5 34.5 21.6 36.6 21c4.4-1.2 4.9 1.5 6.9 7.1 1.2 3.2 4.1 9.2 5 10.8 2.6 4.6 5.7 5 8.4 4.1 3.9-1.4 5.4-5.4 4.6-10.8z"/></symbol><symbol class="icon icon-capricorn" id="icon-capricorn" viewBox="0 0 57 68.8"><path fill="currentColor" d="M49.5 42.3c-1.8-.2-3.8.5-5.7 1.8-.1-.2-.1-.3-.2-.5-.9-3.3-2.6-24.8-3.4-29.3C38.4 4.7 34.8 1.1 30.5.1c-6.2-1.4-10.1 7.5-10.9 9.7-2-6.3-5-8.8-8.5-9.7C4.1-1.5 0 10.3 0 10.3s2.1-5.1 6-5.6c5.3-.6 5.7 3.4 6.5 10.9.5 4.3 1.6 9.8 2.3 12.1 1.9 6.6 4.3 8.2 7.6 11.1-1.5-10.4-.4-17.5-1.7-24.5-.3-1.7-.7-3.1-1.1-4.4.6-1.2 2.6-4.8 5.8-5.2 5.3-.6 5.8 3.4 6.5 10.9 1.5 15.6 6.4 31.1 7.4 33.2-1.1 1.8-1.8 3.9-2.1 6.2-1.2 11.6-7.8 12.6-11.5 13.4-4 .9 8.2.2 11.9-5.8C40 58.8 40 54.8 41 51.7c2.9 4.3 6.5 6.8 11.8 4.1 6.1-3.1 5.9-12.7-3.3-13.5zm-2.8 9.1c-.9-1.4-1.4-2.6-1.9-4 4.8-2.5 7.9-.9 7.9 2.6s-4.4 4-6 1.4z"/></symbol><symbol class="icon icon-sagittarius" id="icon-sagittarius" viewBox="0 0 59.3 60.2"><path fill="currentColor" d="M59.3 0S50.2 6.8 41 6.3c5.1.6 7.3 3.1 8 4l.3.3c-6.2 5.6-16.7 15-26.7 23.5-1.5-1.4-3-2.7-4.3-3.5C9 24.5 0 30.4 0 30.4s5 .4 9.6 1.8c2.4.7 5.7 3.4 8.4 5.7-3 2.6-6 5.1-8.8 7.3-15.1 12-7.7 7.4-5.3 10.8l.1.1.1.1C7.6 58.7 3 66.1 15 51c2.1-2.7 4.6-5.7 7.2-8.8 2 2.4 4 5.1 4.6 7.1 1.4 4.6 1.8 9.6 1.8 9.6s6.3-9.3-.2-18.4c-.6-.8-1.4-1.8-2.3-2.9 8.6-10 18-20.5 23.6-26.8 1.1 1.1 2.9 3.2 3.4 7.4C52.5 9.1 59.3 0 59.3 0z"/></symbol><symbol class="icon icon-scorpio" id="icon-scorpio" viewBox="0 0 67.5 49.9"><path fill="currentColor" d="M50.7 36.5c3.8 1.3 5.3 3.3 6 4.4-4.4 3.1-9.5 6.3-11.4 5.9-5.1-1.2-1.8-26.9-1.1-32.7 1-7.9-.9-11.6-3.9-13.4-4.5-2.7-9.9 3.5-11 4.8-.7-2.3-2-3.8-3.6-4.8-4.5-2.7-9.9 3.5-11 4.8-.7-2.3-2-3.8-3.6-4.8C6.1-2.4 0 5.8 0 5.8S3 2.4 6.1 3c4.2.8 3.5 4 2.3 10-.7 3.5-1.3 10.5-1.4 12.5-.2 5.6 2.4 7.9 5.4 8.3 2.6.2 4.6-2.4 4.6-2.4s-1.1.1-1.7 0c-5.1-1.2-1-11.5-.2-17.3.5-3.7.3-6.5-.3-8.6.7-.7 3.2-3.1 5.9-2.6 4.3.9 3.5 4 2.3 10.1-.7 3.5-1.3 10.5-1.4 12.4-.2 5.6 2.4 7.9 5.4 8.3 2.7.3 4.6-2.3 4.6-2.3s-1.1.1-1.7 0c-5.1-1.2-1-11.5-.2-17.3.5-3.7.3-6.5-.3-8.6.7-.7 3.2-3.1 5.9-2.6 4.3.9 2.7 8.5 2.3 14.9-.2 3.5-1.4 19.1-1.4 21.1-.2 5.6 2.4 10.7 5.4 11 3.6.4 10.3-4.3 15.7-8.1v-.1c.8 1 2.1 3.2 1.8 7.2 1.1-8 8.5-14.6 8.5-14.6s-9.1 4.3-16.9 2.2z"/></symbol><symbol class="icon icon-libra" id="icon-libra" viewBox="0 0 45.5 53.1"><path fill="currentColor" d="M17 38.8s.7-4.9 0-5.8v-.1c-2.5-3.3-4.2-8.6-4.2-14.7 0-10 4.5-18.1 10-18.1-9.4 0-17 8.1-17 18.1 0 6.3 3 11.8 7.6 15.1C5.5 34.1 0 35.8 0 35.8s7.2 2.3 17 3zm15.8-20.7c0 6.1-1.7 11.5-4.2 14.7v.1c-.7.9 0 5.9 0 5.9 9.8-.7 17-3 17-3s-5.5-1.7-13.3-2.6c4.6-3.2 7.6-8.8 7.6-15.1 0-10-7.6-18.1-17-18.1 5.4 0 9.9 8.1 9.9 18.1zm-3.4 22.7c-3.5-.6-9.9-.7-13.4 0C5.6 43.1 3.6 53.1 3.6 53.1s3.6-3.1 7.7-5.2c2.5-1.3 7.8-1.8 11.5-1.9 3.7.1 8.9.6 11.5 1.9 4.1 2.2 7.7 5.2 7.7 5.2s-2.1-10.5-12.6-12.3z"/></symbol><symbol class="icon icon-virgo" id="icon-virgo" viewBox="0 0 56.1 62.1"><path fill="currentColor" d="M15.3 32.2c-5.1-1.2-1-11.5-.2-17.3 1-7.9-.9-11.6-3.9-13.4C6.1-1.5 0 6.6 0 6.6s3-3.4 6.1-2.8c4.3.9 3.5 4 2.3 10.1-.7 3.5-1.3 10.5-1.4 12.4-.2 5.6 2.4 7.9 5.4 8.3 2.7.3 4.6-2.3 4.6-2.3s-1.2.1-1.7-.1z"/><path fill="currentColor" d="M29.8 32.2c-5.1-1.2-1-11.5-.2-17.3 1-7.9-.9-11.6-3.9-13.4-5-3-11.1 5.1-11.1 5.1s3-3.4 6.1-2.8c4.3.9 3.5 4 2.3 10.1-.7 3.5-1.3 10.5-1.4 12.4-.2 5.6 2.4 7.9 5.4 8.3 2.7.3 4.6-2.3 4.6-2.3s-1.2.1-1.8-.1zM55 57.9c-1.7-1.1-9.5-6.5-13.8-13.6 2.2-4.1 4-8.6 5.1-13.4 1.1-5.1.9-10.1-1.6-13.4-.3-.4-.6-.7-1-1.1.2-.8.3-1.6.4-2.2 1-7.9-.9-11.6-3.9-13.4-5-3-11.1 5.1-11.1 5.1s3-3.4 6.1-2.8c4.3.9 3.5 4 2.3 10.1-.2.8-.3 1.7-.4 2.7-.7.5-1.3 1-1.8 1.7-2.5 3.3-2.8 8.3-1.6 13.4 1.1 4.8 2.9 9.4 5.1 13.4C34.5 51.6 26.7 57 25 58c-2 1-1.8 4.2 1 4 1.8-.1 8.5-6.4 13.9-15.6C45.3 55.7 52 61.9 53.8 62c2.8.2 3-3 1.2-4.1zM36.6 30.1c-.1-4.2 1.4-7.2 3.2-9.3.8.9 1.6 2 2.1 3.2.8 1.8 1.2 4 1.1 6.8-.1.9-.2 1.8-.4 2.8-.5 2.4-1.4 5.1-2.8 8.2-2.2-4.7-3.1-8.5-3.2-11.7z"/></symbol><symbol class="icon icon-leo" id="icon-leo" viewBox="0 0 49.4 55.3"><path fill="currentColor" d="M46.6 40.1c-1.4-.8-3.9-.7-5.1 1.1-1.1 1.8-.3 3.6.6 4 1.3.6 2.1 0 2.1 0s-1.9.2-2.1-1.7c-.1-1.9 3.2-2 4.1-1.2.9.8 2.1 4.2-1.4 7.2-2 1.7-8.5 2.7-11.4-2.1-3.4-5.6.3-10.1 3.5-14.9 3.2-4.8 9.2-13.1 8.5-19.4S39.4 1.7 34.5.5C29-.7 17.8-.3 15 6.2c-2.8 6.5.7 16-.6 21s-7.3 7.9-10.9 4c-3.6-3.9-1-7.7-1-7.7s-3.8 4.3-2.2 8.4 4.6 5.8 8.5 5.5c8.5-.7 12.2-6.1 11.9-12.2s-2.6-14-.3-18.2c2.5-4.5 4-6.5 8.9-6.5 5.3-.1 8.6 6.2 8.6 10.9S28.6 29 27.4 37.3c-.9 6.1-.8 12.1 3.3 15.5 6.7 5.5 15.5.7 17.6-2.8 2.1-3.5.9-8.5-1.7-9.9z"/></symbol><symbol class="icon icon-cancer" id="icon-cancer" viewBox="0 0 54.2 45.5"><path fill="currentColor" d="M34 6.4c8.2 1.1 12.6 6.2 13.7 9.6.8 2.7 1.2 10.3-5.7 11.8-4.9 1.1-8.4-1.8-9.7-4.2-1-1.9-1.2-5 1.2-7.5 1.7-1.8 4.4-2.3 4.4-2.3s-3.1-.7-5.7.8c-2.6 1.6-5.6 5.3-2.8 11.5 2.2 5 8.3 7.1 14 5.7C49.1 30.4 56 24.4 53.6 14 51.3 3.6 36.5-2.6 18.4 1 9.2 2.9 1.2 11.2 1.2 11.2S15.6 3.9 34 6.4zM20.2 39.1C11.9 38 7.5 32.9 6.5 29.5c-.8-2.7-1.2-10.3 5.7-11.8 4.9-1.1 8.4 1.8 9.7 4.2 1 1.9 1.2 5-1.2 7.5-1.7 1.8-4.4 2.3-4.4 2.3s3.1.7 5.7-.8c2.6-1.6 5.6-5.3 2.8-11.5-2.2-5-8.3-7.1-14-5.7C5 15.1-1.9 21.1.5 31.5c2.4 10.4 17.2 16.6 35.3 13C45 42.6 53 34.3 53 34.3s-14.5 7.3-32.8 4.8z"/></symbol><symbol class="icon icon-gemini" id="icon-gemini" viewBox="0 0 47.2 56.4"><path fill="currentColor" d="M39.2 45.7c-7-5.3-7-29.7 0-35C45 6.3 47.2 0 47.2 0s-4 3.5-8.7 5.9C34.4 8 27.7 8 23.6 8.1 19.5 8 12.9 8 8.7 5.9 4 3.5 0 0 0 0s2.3 6.3 8.1 10.7c7 5.3 7 29.7 0 35C2.3 50.1 0 56.4 0 56.4s4-3.5 8.7-5.9c4.2-2.1 10.9-2.1 14.9-2.2 4.1.1 10.8.1 14.9 2.2 4.7 2.4 8.7 5.9 8.7 5.9s-2.2-6.3-8-10.7zm-12.9-2.8h-5.4c-1.6.1-3.6.3-6.1.7 1.4-1.7 2.6-3.9 3.1-6.8.7-4.1.8-6.7.7-8.2v-.2-.1-.1-.2c0-1.5-.1-4.2-.7-8.2-.5-2.9-1.7-5.1-3.1-6.8 2.5.4 4.5.6 6.1.7h5.4c1.6-.1 3.6-.3 6.1-.7-1.4 1.7-2.6 3.9-3.1 6.8-.7 4.1-.8 6.7-.7 8.2V28.6c0 1.5.1 4.2.7 8.2.5 2.9 1.7 5.1 3.1 6.8-2.5-.4-4.5-.6-6.1-.7z"/></symbol><symbol class="icon icon-taurus" id="icon-taurus" viewBox="0 0 41.3 52.3"><path fill="currentColor" d="M24.3 13.7c.2 0 .3 0 .4-.1 1.4-.3 1.9-.3 3-.4C39.1 11.3 41.3 0 41.3 0S37.4 3.3 33 5.6c-2.7 1.4-8.4 1.9-12.4 2-3.9-.1-9.6-.6-12.4-2C3.9 3.3 0 0 0 0s2.1 11 13.4 13.1c1.2.2 1.4.3 3.1.4h.7C8.7 15.3 2.3 23.2 2.3 32.8c0 10.8 8.2 19.5 18.3 19.5-5.9 0-10.8-8.7-10.8-19.5 0-9.4 3.7-17.2 8.5-19.1 1.5.1 3.2.1 4.6.1 4.8 1.9 8.4 9.7 8.4 19 0 10.8-4.8 19.5-10.8 19.5 10.1 0 18.3-8.7 18.3-19.5.1-9.5-6.1-17.3-14.5-19.1z"/></symbol><symbol class="icon icon-aries" id="icon-aries" viewBox="0 0 57.6 46.6"><path fill="currentColor" d="M56 6.3C54.7 4 51.1-.2 45.6 0 39.5.2 34 1.1 28.8 10.6 23.6 1.1 18.2.2 12.1 0 6.5-.2 2.9 4 1.6 6.3c-3.9 6.7-.1 14 4.3 15.5 3.8 1.3 8 0 8 0s-7.2-.8-9.4-5c-1-1.9-2.1-6.1 1.9-9.3 4-3.2 9.9-1.8 14.3 1.5 5.6 4.2 6.8 12.8 3.1 27.2-1.2 4.8.7 10.9 5 10.3 4.4.5 6.3-5.5 5-10.3C30.2 21.8 31.4 13.3 37 9c4.4-3.3 10.3-4.7 14.3-1.5s2.9 7.4 1.9 9.3c-2.2 4.2-9.4 4.9-9.4 4.9s4.3 1.3 8 0c4.4-1.4 8.1-8.7 4.2-15.4zM28.8 46.5c-.5-.2-2.9-.9-1.2-4.9.4-.9.8-2 1.2-3.4.4 1.4.9 2.5 1.2 3.4 1.7 4-.7 4.7-1.2 4.9z"/></symbol><symbol class="icon icon-exclamation-circle" id="icon-exclamation-circle" viewBox="0 0 38.8 39.1"><path fill="#93278F" d="M19.4 0C8.7 0 0 8.8 0 19.6s8.7 19.6 19.4 19.6 19.4-8.8 19.4-19.6C38.7 8.8 30.1 0 19.4 0zm0 8.5c1.7 0 3.1 1.4 3.1 3.1s-1.4 3.1-3.1 3.1c-1.7 0-3.1-1.4-3.1-3.1s1.4-3.1 3.1-3.1zm4.5 20.8h-9v-1.5h1.3c.2 0 .3-.2.3-.3v-9.9c0-.2-.2-.3-.3-.3h-1.3v-1.5h7.2v11.6c0 .3.2.5.3.5h1.4l.1 1.4z"/></symbol><symbol class="icon icon-leaf" id="icon-leaf" viewBox="0 0 37.4 35.9"><path fill="#8CC63F" d="M19.5 23.6c-.3 0-.5.5-.9 1-.6.8-1 1.6-1.3 2.3-.6 1.3-1 2.8-1 4.2 0 1 .2 2.1.3 3.1.1 1-.1 1.4-1.1 1.6-.3.1-.6.1-1 .1-.7 0-1.1-.3-1.1-1-.1-.8-.1-1.6 0-2.4.1-2.1.6-3.9 1.3-5.9.3-.7.9-1.8 1.5-2.9.3-.5.2-1.1-.4-.7-.9.6-4.1 4-9 4-4.1 0-7-2.4-7-8.2 0-3.7.8-8.4 5.3-7 1.5.5 5.9 3.6 6.5 3.2.5-.4-5.2-3.9-5.2-7.6 0-3.8 3.3-6.7 9-7.2 4.9-.5 8.5 1.4 7.8 6.4-.5 3.3-.9 6.7 0 5.1.9-1.6.9-3.6 1.8-5.2 1.5-3 4-3.5 6.7-2.3 4.4 2 8.8 12.4 2.9 14.4-1.9.7-6.7.9-6.7 1.4 0 .7 6.9.4 7.2 6 .1 2.6-1.6 8.2-7.9 8.3-4.6.1-7.2-4.2-7.2-8.3 0-.4.1-2.3-.5-2.4z"/></symbol><symbol class="icon icon-thumbs-down" id="icon-thumbs-down" viewBox="0 0 37.9 37.3"><path fill="#ED1C24" d="M0 .3h8.4v21.6H0zM36.8 8.7c.8-2.3-2.7-3.3-2.5-4.6C35-.2 29.9 0 29.8 0H16.3c-3.6 0-6 1.2-6 1.2v19.3c1.4 0 2.6 1.1 3.7 2 1 1 2.5 3 3.6 4.6 1.3 1.8 2.3 3.9 2.3 5.9v3.3c0 .6.8 1 .8 1s5.4.6 5.2-4.8c-.2-3.5-2-6.6-2-8 0-1.4 1.2-2.8 2.6-2.8h8.6c1.6 0 2.8-1.2 2.7-2.6 0-1.1-.3-1.9-.5-2.3l-.3-.9c-.1-.4 0-.9.3-1.4 1.9-3.1-1.4-3.1-.5-5.8z"/></symbol><symbol class="icon icon-thumbs-up" id="icon-thumbs-up" viewBox="0 0 37.9 37.3"><path fill="#29ABE2" d="M0 15.4h8.4V37H0zM37.4 22.8c-.3-.5-.4-1-.3-1.4l.3-.9c.1-.3.4-1.2.5-2.3.1-1.4-1.1-2.6-2.7-2.6h-8.6c-1.4 0-2.6-1.3-2.6-2.8 0-1.4 1.9-4.5 2-8C26.2-.5 20.7 0 20.7 0s-.8.4-.8 1v3.3c0 2-1 4-2.3 5.9-1.1 1.6-2.5 3.6-3.6 4.6-1.1.8-2.3 2-3.7 2v19.3s2.4 1.2 6 1.2h13.4c.2 0 5.2.2 4.5-4.1-.2-1.3 3.3-2.3 2.5-4.6-.8-2.7 2.5-2.8.7-5.8z"/></symbol><symbol class="icon icon-heart" id="icon-heart" viewBox="0 0 60.4 60.4"><circle fill="#F15A24" cx="30.2" cy="30.2" r="30.2"/><path fill="#FFF" d="M41.2 17.6c-4-1.8-9.1-.1-11 3.8-1.8-3.9-7-5.7-11-3.8-4.2 2-6.2 7-2.9 12.8 2.4 4.2 6.6 7.4 13.9 13 7.3-5.7 11.5-8.8 13.9-13 3.3-5.8 1.3-10.8-2.9-12.8z"/></symbol><symbol class="icon icon-smile" id="icon-smile" viewBox="0 0 35 35"><circle fill="#8CC63F" cx="17.5" cy="17.5" r="17.5"/><path fill="#FFF" d="M17.8 27.9c5.5 0 9.6-3.9 9.6-8.9 0-.5-4.1 1.2-9.6 1.2S8.2 18.5 8.2 19c.1 5 4.2 8.9 9.6 8.9z"/><ellipse fill="#FFF" cx="13.8" cy="12.9" rx="1.6" ry="4.1"/><ellipse fill="#FFF" cx="21.9" cy="12.9" rx="1.6" ry="4.1"/></symbol><symbol class="icon icon-skull" id="icon-skull" viewBox="0 0 35 35"><circle fill="#333" cx="17.5" cy="17.5" r="17.5"/><g fill="#FFF"><path d="M11.9 22.5c-.9-.7-1.5-1.6-2-2.6l-3.7 1.4c-.4-.7-1.3-1-2.1-.7-.9.3-1.3 1.3-1 2.2.2.5.5.8 1 1-.2.4-.3.9-.1 1.4.3.9 1.3 1.3 2.2 1 .8-.4 1.2-1.2 1.1-2l4.6-1.7zM31.9 14.6c-.2-.5-.5-.8-1-1 .2-.4.3-.9.1-1.4-.3-.9-1.3-1.3-2.2-1-.8.3-1.2 1.1-1.1 1.9l-1.9.7c.2.7.3 1.4.3 2.1 0 .4 0 .8-.1 1.2l2.9-1.1c.4.7 1.3 1 2.1.7.8-.2 1.3-1.2.9-2.1zM8.9 16c0-.7.1-1.5.3-2.2l-1.9-.7c.1-.8-.3-1.6-1.1-1.9-.9-.3-1.9.1-2.2 1-.2.5-.1 1 .1 1.4-.4.2-.8.5-1 1-.3.9.1 1.9 1 2.2.8.3 1.7 0 2.1-.7L9 17.2c0-.4-.1-.8-.1-1.2zM30.9 20.5c-.8-.3-1.7 0-2.1.7l-3.7-1.4c-.5 1-1.2 1.9-2 2.6l4.6 1.7c-.2.8.3 1.6 1.1 1.9.9.3 1.9-.1 2.2-1 .2-.5.1-1-.1-1.4.4-.2.8-.5 1-1 .4-.8-.1-1.8-1-2.1z"/><path d="M9.7 16c0 2.5 1.2 4.7 2.9 6.1l.7.4c.2.1.2.3.1.5-.1.1-.2.2-.3.2-.1 0-.2 0-.2-.1l-.2-.1v2c0 .5.4.8.9.8h.3c.2 0 .3-.2.3-.5s.2-.5.5-.5.5.2.5.5.3.5.8.5c.4 0 .8-.2.8-.5s.3-.5.6-.5.6.2.6.5.3.5.8.5.8-.2.8-.5.2-.5.5-.5.5.2.5.5.1.5.3.5h.3c.5 0 1-.3 1-.8v-2l-.2.1c-.1 0-.2.1-.2.1-.1 0-.3-.1-.3-.2-.1-.2-.1-.4.1-.5l.6-.4c1.9-1.4 3-3.7 3-6.2 0-4.3-3.5-7.8-7.8-7.8-4.2.1-7.7 3.6-7.7 7.9zm4.5 3.9c-1.4 0-2.6-1.1-2.6-2.6 0-.4.1-.8.3-1.2.1-.2.5-.2.5-.2l4 .4s.2 0 .2.2c.1.3.2.6.2.9 0 1.3-1.2 2.5-2.6 2.5zm4.4-2.6c0-.3.1-.6.2-.9 0-.1.2-.2.2-.2l4-.4s.4 0 .5.2c.2.4.3.7.3 1.2 0 1.4-1.1 2.6-2.6 2.6-1.5.1-2.6-1.1-2.6-2.5zm-1.1 4.8c-.1.2-.3.4-.6.4-.4 0-.7-.3-.7-.7 0-.2.1-.3.1-.5 0 0 .2-.3.5-.6s.8-.3 1.1 0l.5.6c.1.1.1.3.1.5 0 .4-.3.7-.7.7 0 0-.2-.2-.3-.4z"/></g></symbol><symbol class="card card-cancer" id="card-cancer" viewBox="0 0 188 250"><path fill="currentColor" d="M0 0h188v250H0z"/><path fill-opacity=".6" fill="#fff" d="M156.4 2.7c-1.6-1-3.1-1.9-4.8-2.7H81.3C53.5 10.7 24.7 32.6 0 64.5v44.2c14.9-20.9 35.1-43.9 61.7-64.1 32.5-24.7 65.3-22.4 80.8-14.3 12.2 6.4 40 31.4 21.4 60.9-13.2 20.8-35.7 22.9-48.3 18.8-10-3.3-21.4-13.4-21.7-30.2-.2-12.4 7.4-23.4 7.4-23.4s-13.5 8.3-17.1 22.4c-3.7 14.6-.8 37.8 29.9 49.6 24.9 9.6 53.5-4.3 68.5-28.6 1.9-3.2 3.7-6.7 5.2-10.4V38.2c-5.3-12.9-15.2-25.3-31.4-35.5zM32.3 248c1.5 1 3.1 1.9 4.7 2.7h70.4c27.4-10.6 55.9-32 80.3-63.2v-44.1c-14.8 20.6-34.7 43-60.7 62.7-32.5 24.7-65.3 22.4-80.8 14.3C34 214 6.2 189 24.8 159.5c13.2-20.8 35.7-22.9 48.3-18.8 10 3.3 21.4 13.4 21.7 30.2.2 12.4-7.4 23.4-7.4 23.4s13.5-8.3 17.1-22.4c3.7-14.6.8-37.8-29.9-49.6-24.9-9.6-53.5 4.3-68.5 28.6-2.4 3.9-4.5 8.4-6.2 13.2v45.8c5 13.8 15.1 27.3 32.4 38.1z"/></symbol><symbol class="card card-sagittarius" id="card-sagittarius" viewBox="0 0 187.4 249.8"><path fill="currentColor" d="M0 0h187.4v249.8H0z"/><path fill-opacity=".6" fill="#FFF" d="M81.4 214.9c-1.9 16.4-3 27.4-3.4 34.8h38c-.4-7.4-1.5-18.4-3.4-34.8-1.5-13.1-3-27.8-4.3-43.3 11.9 1 24.4 3 31.5 6.7 16.5 8.6 30.9 21 30.9 21s-8.2-42-50.2-49c-3.9-.6-8.8-1.2-14-1.5-4-50.2-7-103.9-8.6-135.9 5.9-.2 16.5 1 29.3 10.9C119.8 17.3 114 9.2 109.5 1H79.9c-4.5 8.2-10.3 16.3-17.7 22.8 15.6-12.2 28-11.2 32.4-10.7.4 0 1-.1 1.6-.1-1.6 31.9-4.6 85.5-8.6 135.5-7.9.2-15.4.8-21 2-41.7 8.7-49.8 48.9-49.8 48.9s14.4-12.3 30.9-21c8.5-4.4 24.5-6.4 38.1-7.2-1.4 15.6-2.9 30.5-4.4 43.7z"/></symbol><symbol class="card card-capricorn" id="card-capricorn" viewBox="0 0 188.4 249.8"><path fill="currentColor" d="M0 0h187.4v249.8H0z"/><path opacity=".6" fill="#FFF" d="M169.5 149.3c6.6 1.3 12.9 1.6 18.2.1V136c-2.1 1.2-4.7 1.6-7.4 1.1-4.8-1.1-8.6-2.5-12.4-4.4 4.4-13.8 12.8-17.8 19.7-13.3v-13.9c-6.1-1.2-13.3.5-20.5 6.6-4.1 3.5-7 9.2-8.2 15.8-.5-.3-.9-.5-1.5-.8-8.8-5.1-57.8-47.1-69-54.7C64.3 55.9 49.2 56 38.1 62.9c-16.1 9.9-5.4 37-2.6 43.5-15.6-8.1-26.7-8.1-35.5-4v17.9c8.5-6.2 17.5 1.2 32.8 13.3 10.2 8 24.2 17.2 30.4 20.6 17.9 9.9 26.2 8.2 39.5 7.4-25-18.8-37.7-36-55.4-48.1-4.2-2.8-8-5.1-11.7-7-1.3-3.9-4.6-15.7 1.4-23.2 9.9-12.5 19.4-5.2 36.9 9.2 36.2 29.9 79.2 52.3 85.8 54.4 1.6 6.1 4.4 12.1 8.7 17.4 22.1 27 10.3 43.1 4 52.7-6.6 10.2 17.8-16.9 12.9-37.3-3.1-13.1-11.5-21.6-15.8-30.4z"/></symbol><symbol class="card card-aquarius" id="card-aquarius" viewBox="0 0 188.1 249.8"><path fill="currentColor" d="M0 0h187.4v249.8H0z"/><g opacity=".3" fill="#FFF"><path d="M162 32.3c-1.2-.9 12.3 12.5 6.1 23-9.1 15.4-35.2-2.2-53.9-9.3-25.4-9.8-39.1-6.4-47.6 2.2-5.9 5.9-5.3 12.7-2.8 20.2 1.5 4.5 27.8 60.5 22.3 71.5-8 16-37.3-2.7-55.9-9.9-12.8-4.9-22.5-6.5-30.2-5.8v18.6c5.5 1 12.4 4.3 21.4 8.5 11 5.1 33.6 12.9 40 14.7 18.4 5.1 28.2-1.4 31.8-11.1C100.3 135.4 66 73.6 70 66.8c8.2-14.1 16.3-8.5 35.4.5 11 5.1 33.6 12.9 40 14.7 18.4 5.1 27.1-1.9 31.8-11.1 6.7-13.2.5-27-15.2-38.6z"/><path d="M187.7 113.8c-11.9-.5-28.5-10.5-41.4-15.4-25.4-9.8-39.1-6.4-47.6 2.2-5.9 5.9-5.3 12.7-2.8 20.2 1.5 4.5 27.8 60.5 22.3 71.5-8 16-37.3-2.7-55.9-9.9-25.4-9.8-39.1-6.4-47.6 2.2-14.1 14.1 7.8 41.1 7.8 41.1s-9-12.6-4.4-22.4c6.3-13.5 16.3-8.5 35.4.5 11 5.1 33.6 12.9 40 14.7 18.4 5.1 28.2-1.4 31.8-11.1 7.1-19.5-27.1-81.3-23.2-88.1 8.1-14.1 16.3-8.5 35.4.5 11 5.1 33.6 12.9 40 14.7 3.8 1.1 7.2 1.6 10.3 1.7v-22.4z"/></g></symbol><symbol class="card card-scorpio" id="card-scorpio" viewBox="0 0 187.4 249.8"><path fill="currentColor" d="M0 0h187.4v249.8H0z"/><path opacity=".3" fill="#FFF" d="M186 103.5c-5 8-12.2 16.9-21.7 22.5 10.5-5.3 18-4.1 21.6-3.2-2.7 15.7-6.6 33-11.5 36.1-13 8.2-60-52.3-70.6-66-14.2-18.6-25.8-22.3-36-19.8-15 3.7-13.3 27.8-12.8 32.9-6.4-3.4-12.2-3.9-17.5-2.5-15 3.7-13.3 27.8-12.8 32.9-6.4-3.4-12.2-3.9-17.5-2.5-2.3.6-4.2 1.6-5.8 3V149c10.6-7 15.7 1.2 25.8 16.3 5.8 8.7 19 24.6 23 28.8 11.3 12 21.5 11.6 28.4 6 6.2-4.9 4.8-14.4 4.8-14.4s-2.2 2.6-3.6 3.5c-13 8.2-26-22-36.6-35.6-6.7-8.7-12.9-14.1-18.5-17.2-.1-3.1.2-13.2 6.8-17.6 10.7-7.1 15.8 1.1 25.9 16.2 5.8 8.7 19 24.6 23 28.8 11.3 12 21.5 11.6 28.4 6 6.2-4.9 4.8-14.4 4.8-14.4s-2.2 2.6-3.6 3.5c-13 8.2-26-22-36.6-35.6-6.7-8.7-12.9-14.1-18.5-17.2-.1-3 .2-13.2 6.8-17.6 10.7-7.1 23.5 12.1 35.9 26.2 6.9 7.9 37 42.7 40.9 46.9 11.3 12 27.3 17.2 34.3 11.6 6.2-5 10.2-19.9 13.1-35.2v-34.5z"/></symbol><symbol class="card card-pisces" id="card-pisces" viewBox="0 0 188.7 249.8"><path fill="currentColor" d="M0 0h187.4v249.8H0z"/><path opacity=".3" fill="#FFF" d="M186.7 140.5c-1.6-.4-3.2-.9-4.8-1.4-15.9-5-40.9-28-52.7-39.4-.1-.2-.3-.3-.5-.5l21.1-20s-13.1 3.7-28.8 11.9c-11.8-13-27.2-31.4-31.2-44.1-6.7-21.4-8.4-44.1-8.4-44.1s-28.7 42.7 1 84.4c5.6 7.8 10.5 14.1 14.7 19.1-3.1 2.5-6.1 5.1-8.9 7.9l-7.7 7.7c-2.8 2.8-5.4 5.7-7.8 8.8-5.3-4.5-12-9.9-20.6-16-18.4-13.2-37-14.9-52.1-12.7V119c3.9.9 7.9 2 11.9 3.2 13.2 4.1 32.5 20.5 45.5 32.6-8.2 15.8-11.9 28.9-11.9 28.9l20-21.1c11.7 12.1 33.6 36.2 38.5 51.7 4 12.7 6.2 25.9 7.3 34.5h6.1c6.6-14.9 15.1-45.1-6.1-74.8-12-16.7-20.9-26.4-26.5-31.8L96.2 130l12.1-11.5 1 1c5.3 5.6 15.1 14.7 32.2 26.9 15.7 11.2 31.5 14.1 45.1 13.4v-19.3z"/></symbol><symbol class="card card-gemini" id="card-gemini" viewBox="0 0 188.7 249.8"><path fill="currentColor" d="M0 0h187.4v249.8H0z"/></symbol><symbol class="card card-aries" id="card-aries" viewBox="0 0 188.7 249.8"><path fill="currentColor" d="M0 0h187.4v249.8H0z"/></symbol><symbol class="card card-virgo" id="card-virgo" viewBox="0 0 188.7 249.8"><path fill="currentColor" d="M0 0h187.4v249.8H0z"/></symbol><symbol class="card card-taurus" id="card-taurus" viewBox="0 0 188.7 249.8"><path fill="currentColor" d="M0 0h187.4v249.8H0z"/></symbol><symbol class="card card-libra" id="card-libra" viewBox="0 0 188.7 249.8"><path fill="currentColor" d="M0 0h187.4v249.8H0z"/></symbol><symbol class="card card-leo" id="card-leo" viewBox="0 0 188.7 249.8"><path fill="currentColor" d="M0 0h187.4v249.8H0z"/></symbol></svg>