<svg id="Layer_1" xmlns="http://www.w3.org/2000/svg" viewBox="0 0 39.7 51.6"><path id="zodiac-1" d="M31 26.1v-.2l7.3.2s-3-1.7-7.2-3c.2-4.4.7-10.4 2.3-13.3C36 4.9 39.7.5 39.7.5S27.1 3 25 15.6c-.4 2.4-.6 4.3-.8 6-1-.1-2-.2-3-.2h-2.7c-1 0-2 .1-2.9.2-.1-1.7-.4-3.9-.8-6.5C12.6 2.5 0 0 0 0s3.7 4.3 6.3 9.3c1.6 3.1 2.1 9.4 2.3 13.8-4.2 1.3-7.2 3-7.2 3l7.3-.2c-.1 4.2-.5 12.3-2.3 15.9-2.6 5-6.3 9.3-6.3 9.3S12.6 48.6 14.7 36c.8-5.1 1-8.4.9-10.3l4.2-.1 4.2.1v.4c0 1.9.1 5.2 1 10.4 2.1 12.6 14.7 15.1 14.7 15.1s-3.7-4.3-6.3-9.3c-2-3.7-2.3-12.2-2.4-16.2z"/></svg>