<svg id="Layer_1" xmlns="http://www.w3.org/2000/svg" viewBox="0 0 67.5 49.9"><path d="M50.7 36.5c3.8 1.3 5.3 3.3 6 4.4-4.4 3.1-9.5 6.3-11.4 5.9-5.1-1.2-1.8-26.9-1.1-32.7 1-7.9-.9-11.6-3.9-13.4-4.5-2.7-9.9 3.5-11 4.8-.7-2.3-2-3.8-3.6-4.8-4.5-2.7-9.9 3.5-11 4.8-.7-2.3-2-3.8-3.6-4.8C6.1-2.4 0 5.8 0 5.8S3 2.4 6.1 3c4.2.8 3.5 4 2.3 10-.7 3.5-1.3 10.5-1.4 12.5-.2 5.6 2.4 7.9 5.4 8.3 2.6.2 4.6-2.4 4.6-2.4s-1.1.1-1.7 0c-5.1-1.2-1-11.5-.2-17.3.5-3.7.3-6.5-.3-8.6.7-.7 3.2-3.1 5.9-2.6 4.3.9 3.5 4 2.3 10.1-.7 3.5-1.3 10.5-1.4 12.4-.2 5.6 2.4 7.9 5.4 8.3 2.7.3 4.6-2.3 4.6-2.3s-1.1.1-1.7 0c-5.1-1.2-1-11.5-.2-17.3.5-3.7.3-6.5-.3-8.6.7-.7 3.2-3.1 5.9-2.6 4.3.9 2.7 8.5 2.3 14.9-.2 3.5-1.4 19.1-1.4 21.1-.2 5.6 2.4 10.7 5.4 11 3.6.4 10.3-4.3 15.7-8.1v-.1c.8 1 2.1 3.2 1.8 7.2 1.1-8 8.5-14.6 8.5-14.6s-9.1 4.3-16.9 2.2z"/></svg>