<svg xmlns="http://www.w3.org/2000/svg" viewBox="0 0 56.1 62.1"><path d="M15.3 32.2c-5.1-1.2-1-11.5-.2-17.3 1-7.9-.9-11.6-3.9-13.4C6.1-1.5 0 6.6 0 6.6s3-3.4 6.1-2.8c4.3.9 3.5 4 2.3 10.1-.7 3.5-1.3 10.5-1.4 12.4-.2 5.6 2.4 7.9 5.4 8.3 2.7.3 4.6-2.3 4.6-2.3s-1.2.1-1.7-.1z"/><path d="M29.8 32.2c-5.1-1.2-1-11.5-.2-17.3 1-7.9-.9-11.6-3.9-13.4-5-3-11.1 5.1-11.1 5.1s3-3.4 6.1-2.8c4.3.9 3.5 4 2.3 10.1-.7 3.5-1.3 10.5-1.4 12.4-.2 5.6 2.4 7.9 5.4 8.3 2.7.3 4.6-2.3 4.6-2.3s-1.2.1-1.8-.1zM55 57.9c-1.7-1.1-9.5-6.5-13.8-13.6 2.2-4.1 4-8.6 5.1-13.4 1.1-5.1.9-10.1-1.6-13.4-.3-.4-.6-.7-1-1.1.2-.8.3-1.6.4-2.2 1-7.9-.9-11.6-3.9-13.4-5-3-11.1 5.1-11.1 5.1s3-3.4 6.1-2.8c4.3.9 3.5 4 2.3 10.1-.2.8-.3 1.7-.4 2.7-.7.5-1.3 1-1.8 1.7-2.5 3.3-2.8 8.3-1.6 13.4 1.1 4.8 2.9 9.4 5.1 13.4C34.5 51.6 26.7 57 25 58c-2 1-1.8 4.2 1 4 1.8-.1 8.5-6.4 13.9-15.6C45.3 55.7 52 61.9 53.8 62c2.8.2 3-3 1.2-4.1zM36.6 30.1c-.1-4.2 1.4-7.2 3.2-9.3.8.9 1.6 2 2.1 3.2.8 1.8 1.2 4 1.1 6.8-.1.9-.2 1.8-.4 2.8-.5 2.4-1.4 5.1-2.8 8.2-2.2-4.7-3.1-8.5-3.2-11.7z"/></svg>